<?xml version="1.0" encoding="UTF-8" standalone="no"?>
<!-- Created with Inkscape (http://www.inkscape.org/) -->

<svg
   inkscape:export-ydpi="90.000000"
   inkscape:export-xdpi="90.000000"
   width="480"
   height="300"
   id="svg11300"
   sodipodi:version="0.32"
   inkscape:version="1.2.2 (b0a8486541, 2022-12-01)"
   sodipodi:docname="bottles.svg"
   inkscape:output_extension="org.inkscape.output.svg.inkscape"
   version="1.0"
   style="display:inline;enable-background:new"
   inkscape:export-filename="/home/sam/moka-next-template.png"
   xml:space="preserve"
   xmlns:inkscape="http://www.inkscape.org/namespaces/inkscape"
   xmlns:sodipodi="http://sodipodi.sourceforge.net/DTD/sodipodi-0.dtd"
   xmlns:xlink="http://www.w3.org/1999/xlink"
   xmlns="http://www.w3.org/2000/svg"
   xmlns:svg="http://www.w3.org/2000/svg"
   xmlns:rdf="http://www.w3.org/1999/02/22-rdf-syntax-ns#"
   xmlns:cc="http://creativecommons.org/ns#"
   xmlns:dc="http://purl.org/dc/elements/1.1/"><sodipodi:namedview
     stroke="#ef2929"
     fill="#f57900"
     id="base"
     pagecolor="#b2b2b2"
     bordercolor="#666666"
     borderopacity="0.25490196"
     inkscape:pageopacity="0"
     inkscape:pageshadow="2"
     inkscape:zoom="1.4142136"
     inkscape:cx="155.56349"
     inkscape:cy="133.28963"
     inkscape:current-layer="layer6"
     showgrid="false"
     inkscape:grid-bbox="true"
     inkscape:document-units="px"
     inkscape:showpageshadow="false"
     inkscape:window-width="1920"
     inkscape:window-height="1008"
     inkscape:window-x="0"
     inkscape:window-y="0"
     width="400px"
     height="300px"
     inkscape:snap-nodes="true"
     inkscape:snap-bbox="true"
     gridtolerance="10000"
     inkscape:object-nodes="true"
     inkscape:snap-grids="true"
     showguides="true"
     inkscape:guide-bbox="true"
     inkscape:window-maximized="1"
     inkscape:bbox-nodes="true"
     inkscape:bbox-paths="true"
     inkscape:snap-bbox-edge-midpoints="true"
     inkscape:snap-bbox-midpoints="true"
     inkscape:pagecheckerboard="0"
     inkscape:deskcolor="#d1d1d1"><inkscape:grid
       spacingy="1px"
       spacingx="1px"
       id="grid5883"
       type="xygrid"
       enabled="true"
       visible="true"
       empspacing="4"
       snapvisiblegridlinesonly="true"
       dotted="false"
       color="#000000"
       opacity="0.1254902"
       empcolor="#203ef3"
       empopacity="0.36470588"
       originx="0"
       originy="0"
       units="px" /><inkscape:grid
       type="xygrid"
       id="grid11592"
       empspacing="8"
       visible="true"
       enabled="false"
       spacingx="0.5px"
       spacingy="0.5px"
       color="#ff0000"
       opacity="0.1254902"
       empcolor="#ff0000"
       empopacity="0.25098039"
       snapvisiblegridlinesonly="true"
       dotted="true"
       originx="0"
       originy="0"
       units="px" /></sodipodi:namedview><defs
     id="defs3"><linearGradient
       id="linearGradient1116"><stop
         style="stop-color:#ffa348;stop-opacity:1;"
         offset="0"
         id="stop1112" /><stop
         style="stop-color:#ffbe6f;stop-opacity:1;"
         offset="1"
         id="stop1114" /></linearGradient><linearGradient
       id="linearGradient1110"><stop
         style="stop-color:#ffa348;stop-opacity:1;"
         offset="0"
         id="stop1106" /><stop
         style="stop-color:#ffbe6f;stop-opacity:1;"
         offset="1"
         id="stop1108" /></linearGradient><linearGradient
       id="linearGradient1104"><stop
         style="stop-color:#ffa348;stop-opacity:1;"
         offset="0"
         id="stop1100" /><stop
         style="stop-color:#ffbe6f;stop-opacity:1;"
         offset="1"
         id="stop1102" /></linearGradient><linearGradient
       id="linearGradient1098"><stop
         style="stop-color:#ffa348;stop-opacity:1;"
         offset="0"
         id="stop1094" /><stop
         style="stop-color:#ffbe6f;stop-opacity:1;"
         offset="1"
         id="stop1096" /></linearGradient><linearGradient
       id="linearGradient1092"><stop
         style="stop-color:#ffa348;stop-opacity:1;"
         offset="0"
         id="stop1088" /><stop
         style="stop-color:#ffbe6f;stop-opacity:1;"
         offset="1"
         id="stop1090" /></linearGradient><linearGradient
       id="linearGradient1086"><stop
         style="stop-color:#ffa348;stop-opacity:1;"
         offset="0"
         id="stop1082" /><stop
         style="stop-color:#ffbe6f;stop-opacity:1;"
         offset="1"
         id="stop1084" /></linearGradient><linearGradient
       id="linearGradient1080"><stop
         style="stop-color:#ffa348;stop-opacity:1;"
         offset="0"
         id="stop1076" /><stop
         style="stop-color:#ffbe6f;stop-opacity:1;"
         offset="1"
         id="stop1078" /></linearGradient><linearGradient
       id="outerBackgroundGradient"><stop
         style="stop-color:#7469b3;stop-opacity:1;"
         offset="0"
         id="stop3864-8-6" /><stop
         style="stop-color:#a6afe2;stop-opacity:1;"
         offset="1"
         id="stop3866-9-1" /></linearGradient><linearGradient
       inkscape:collect="always"
       xlink:href="#outerBackgroundGradient"
       id="linearGradient4097"
       gradientUnits="userSpaceOnUse"
       x1="264"
       y1="280.00003"
       x2="264"
       y2="40.00005"
       gradientTransform="matrix(0.06666667,0,0,0.06666667,414.4,137.33333)" /><linearGradient
       inkscape:collect="always"
       xlink:href="#outerBackgroundGradient"
       id="linearGradient4101"
       gradientUnits="userSpaceOnUse"
       gradientTransform="matrix(0.0875,0,0,0.0875,414.9,97.5)"
       x1="286.85715"
       y1="302.85715"
       x2="286.85715"
       y2="28.571428" /><linearGradient
       inkscape:collect="always"
       xlink:href="#outerBackgroundGradient"
       id="linearGradient4153"
       gradientUnits="userSpaceOnUse"
       gradientTransform="matrix(0.11931818,0,0,0.11931818,414.13636,48.22727)"
       x1="283.80957"
       y1="299.80954"
       x2="283.80957"
       y2="31.61907" /><linearGradient
       inkscape:collect="always"
       xlink:href="#outerBackgroundGradient"
       id="linearGradient4869"
       gradientUnits="userSpaceOnUse"
       gradientTransform="matrix(0.175,0,0,-0.175,286.79999,-215.99997)"
       x1="281.14291"
       y1="297.14304"
       x2="281.14291"
       y2="22.857315" /><clipPath
       clipPathUnits="userSpaceOnUse"
       id="clipPath4891"><rect
         ry="9"
         y="223"
         x="307"
         height="42"
         width="42"
         id="rect4893"
         style="color:#bebebe;fill:url(#linearGradient4895);fill-opacity:1;fill-rule:nonzero;stroke:none;stroke-width:0;marker:none;visibility:visible;display:inline;overflow:visible;enable-background:accumulate"
         transform="matrix(0,1,-1,0,0,0)" /></clipPath><linearGradient
       inkscape:collect="always"
       xlink:href="#outerBackgroundGradient"
       id="linearGradient4895"
       gradientUnits="userSpaceOnUse"
       gradientTransform="matrix(0.175,0,0,0.175,302.79999,215.99997)"
       x1="144.00006"
       y1="280.00018"
       x2="144.00006"
       y2="40.000172" /><clipPath
       clipPathUnits="userSpaceOnUse"
       id="clipPath4044"><rect
         ry="4"
         y="85"
         x="433"
         height="22"
         width="22"
         id="rect4046"
         style="color:#bebebe;fill:url(#linearGradient4048);fill-opacity:1;fill-rule:nonzero;stroke:none;stroke-width:0;marker:none;visibility:visible;display:inline;overflow:visible;enable-background:accumulate" /></clipPath><linearGradient
       inkscape:collect="always"
       xlink:href="#outerBackgroundGradient"
       id="linearGradient4048"
       gradientUnits="userSpaceOnUse"
       gradientTransform="matrix(0.0875,0,0,0.0875,430.9,81.499996)"
       x1="149.71428"
       y1="291.42862"
       x2="149.71428"
       y2="40.000046" /><clipPath
       clipPathUnits="userSpaceOnUse"
       id="clipPath4089"><rect
         style="color:#bebebe;fill:url(#linearGradient4093);fill-opacity:1;fill-rule:nonzero;stroke:none;stroke-width:0;marker:none;visibility:visible;display:inline;overflow:visible;enable-background:accumulate"
         id="rect4091"
         width="30"
         height="30"
         x="433"
         y="37"
         ry="6" /></clipPath><linearGradient
       inkscape:collect="always"
       xlink:href="#outerBackgroundGradient"
       id="linearGradient4093"
       gradientUnits="userSpaceOnUse"
       gradientTransform="matrix(0.11931818,0,0,0.11931818,430.13636,32.227267)"
       x1="149.71432"
       y1="291.42862"
       x2="149.71432"
       y2="40.00005" /><clipPath
       clipPathUnits="userSpaceOnUse"
       id="clipPath3855"><rect
         style="color:#bebebe;fill:url(#linearGradient3859);fill-opacity:1;fill-rule:nonzero;stroke:none;stroke-width:0;marker:none;visibility:visible;display:inline;overflow:visible;enable-background:accumulate"
         id="rect3857"
         width="16"
         height="16"
         x="304"
         y="212"
         ry="3"
         transform="matrix(0,1,-1,0,0,0)" /></clipPath><linearGradient
       inkscape:collect="always"
       xlink:href="#outerBackgroundGradient"
       id="linearGradient3859"
       gradientUnits="userSpaceOnUse"
       gradientTransform="matrix(0.06666667,0,0,0.06666667,302.4,209.33333)"
       x1="144"
       y1="280.00003"
       x2="144"
       y2="40.00005" /><clipPath
       clipPathUnits="userSpaceOnUse"
       id="clipPath3862"><rect
         ry="50"
         y="46"
         x="34"
         height="220"
         width="220"
         id="rect3864"
         style="color:#bebebe;fill:url(#linearGradient3866);fill-opacity:1;fill-rule:nonzero;stroke:none;stroke-width:0;marker:none;visibility:visible;display:inline;overflow:visible;enable-background:accumulate" /></clipPath><linearGradient
       inkscape:collect="always"
       xlink:href="#outerBackgroundGradient"
       id="linearGradient3866"
       gradientUnits="userSpaceOnUse"
       gradientTransform="translate(0,-4)"
       x1="144"
       y1="280"
       x2="144"
       y2="40" /><linearGradient
       inkscape:collect="always"
       xlink:href="#outerBackgroundGradient"
       id="linearGradient3876"
       gradientUnits="userSpaceOnUse"
       gradientTransform="translate(0,-4)"
       x1="272"
       y1="288"
       x2="272"
       y2="32" /><clipPath
       clipPathUnits="userSpaceOnUse"
       id="clipPath4187"><rect
         ry="12.5"
         y="142"
         x="290"
         height="60"
         width="60"
         id="rect4189"
         style="color:#bebebe;fill:url(#linearGradient4191);fill-opacity:1;fill-rule:nonzero;stroke:none;stroke-width:0;marker:none;visibility:visible;display:inline;overflow:visible;enable-background:accumulate" /></clipPath><linearGradient
       inkscape:collect="always"
       xlink:href="#outerBackgroundGradient"
       id="linearGradient4191"
       gradientUnits="userSpaceOnUse"
       x1="352"
       y1="204"
       x2="352"
       y2="140" /><linearGradient
       inkscape:collect="always"
       xlink:href="#outerBackgroundGradient"
       id="linearGradient4197"
       gradientUnits="userSpaceOnUse"
       x1="384"
       y1="124"
       x2="384"
       y2="28" /><linearGradient
       inkscape:collect="always"
       xlink:href="#outerBackgroundGradient"
       id="linearGradient4199"
       gradientUnits="userSpaceOnUse"
       x1="352"
       y1="204"
       x2="352"
       y2="140" /><clipPath
       clipPathUnits="userSpaceOnUse"
       id="clipPath4346"><rect
         style="color:#bebebe;fill:url(#linearGradient4350);fill-opacity:1;fill-rule:nonzero;stroke:none;stroke-width:0;marker:none;visibility:visible;display:inline;overflow:visible;enable-background:accumulate"
         id="rect4348"
         width="88"
         height="88"
         x="292"
         y="32"
         ry="18" /></clipPath><linearGradient
       inkscape:collect="always"
       xlink:href="#outerBackgroundGradient"
       id="linearGradient4350"
       gradientUnits="userSpaceOnUse"
       x1="384"
       y1="124"
       x2="384"
       y2="28" /><clipPath
       clipPathUnits="userSpaceOnUse"
       id="clipPath3871"><rect
         ry="5"
         y="101"
         x="417"
         height="22"
         width="22"
         id="rect3873"
         style="color:#bebebe;fill:url(#linearGradient3875);fill-opacity:1;fill-rule:nonzero;stroke:none;stroke-width:0;marker:none;visibility:visible;display:inline;overflow:visible;enable-background:accumulate" /></clipPath><linearGradient
       inkscape:collect="always"
       xlink:href="#outerBackgroundGradient"
       id="linearGradient3875"
       gradientUnits="userSpaceOnUse"
       gradientTransform="matrix(0.0875,0,0,0.0875,414.9,97.5)"
       x1="286.85715"
       y1="302.85715"
       x2="286.85715"
       y2="28.571428" /><clipPath
       clipPathUnits="userSpaceOnUse"
       id="clipPath3881"><rect
         style="color:#bebebe;fill:url(#linearGradient3885);fill-opacity:1;fill-rule:nonzero;stroke:none;stroke-width:0;marker:none;visibility:visible;display:inline;overflow:visible;enable-background:accumulate"
         id="rect3883"
         width="30"
         height="30"
         x="417"
         y="53"
         ry="7" /></clipPath><linearGradient
       inkscape:collect="always"
       xlink:href="#outerBackgroundGradient"
       id="linearGradient3885"
       gradientUnits="userSpaceOnUse"
       gradientTransform="matrix(0.11931818,0,0,0.11931818,414.13636,48.22727)"
       x1="283.80957"
       y1="299.80954"
       x2="283.80957"
       y2="31.61907" /><linearGradient
       inkscape:collect="always"
       xlink:href="#outerBackgroundGradient"
       id="linearGradient4235"
       gradientUnits="userSpaceOnUse"
       x1="384"
       y1="124"
       x2="384"
       y2="28" /><linearGradient
       inkscape:collect="always"
       xlink:href="#linearGradient1080"
       id="linearGradient4254"
       x1="35"
       y1="156"
       x2="253"
       y2="156"
       gradientUnits="userSpaceOnUse"
       gradientTransform="matrix(0,-1,1,0,-12,300)" /><linearGradient
       inkscape:collect="always"
       xlink:href="#linearGradient1104"
       id="linearGradient4256"
       x1="417"
       y1="148"
       x2="431"
       y2="148"
       gradientUnits="userSpaceOnUse"
       gradientTransform="matrix(0,-1,1,0,276,572)" /><linearGradient
       inkscape:collect="always"
       xlink:href="#outerBackgroundGradient"
       id="linearGradient4258"
       x1="418"
       y1="112"
       x2="438"
       y2="112"
       gradientUnits="userSpaceOnUse"
       gradientTransform="matrix(0,-1,1,0,316,540)" /><linearGradient
       inkscape:collect="always"
       xlink:href="#linearGradient1116"
       id="linearGradient4260"
       x1="418"
       y1="68"
       x2="446"
       y2="68"
       gradientUnits="userSpaceOnUse"
       gradientTransform="matrix(0,-1,1,0,364,500)" /><linearGradient
       inkscape:collect="always"
       xlink:href="#linearGradient1098"
       id="linearGradient4262"
       x1="292"
       y1="244"
       x2="332"
       y2="244"
       gradientUnits="userSpaceOnUse"
       gradientTransform="matrix(0,-1,1,0,68,556)" /><linearGradient
       inkscape:collect="always"
       xlink:href="#linearGradient1086"
       id="linearGradient4264"
       x1="293"
       y1="76"
       x2="379"
       y2="76"
       gradientUnits="userSpaceOnUse"
       gradientTransform="matrix(0,-1,1,0,260,412)" /><linearGradient
       inkscape:collect="always"
       xlink:href="#linearGradient1092"
       id="linearGradient4266"
       x1="291"
       y1="172"
       x2="349"
       y2="172"
       gradientUnits="userSpaceOnUse"
       gradientTransform="matrix(0,-1,1,0,148,492)" /><linearGradient
       inkscape:collect="always"
       xlink:href="#linearGradient1110"
       id="linearGradient3870"
       gradientUnits="userSpaceOnUse"
       gradientTransform="matrix(0,-1,1,0,316,540)"
       x1="418"
       y1="112"
       x2="438"
       y2="112" /></defs><metadata
     id="metadata4"><rdf:RDF><cc:Work
         rdf:about=""><dc:format>image/svg+xml</dc:format><dc:type
           rdf:resource="http://purl.org/dc/dcmitype/StillImage" /><dc:creator><cc:Agent><dc:title>Sam Hewitt</dc:title></cc:Agent></dc:creator><dc:source /><cc:license
           rdf:resource="" /><dc:subject><rdf:Bag /></dc:subject><dc:date /><dc:rights><cc:Agent><dc:title /></cc:Agent></dc:rights><dc:publisher><cc:Agent><dc:title /></cc:Agent></dc:publisher><dc:identifier /><dc:relation /><dc:language /><dc:coverage /><dc:description /><dc:contributor><cc:Agent><dc:title /></cc:Agent></dc:contributor></cc:Work><cc:Work
         rdf:about=""><dc:format>image/svg+xml</dc:format><dc:type
           rdf:resource="http://purl.org/dc/dcmitype/StillImage" /></cc:Work></rdf:RDF></metadata><g
     style="display:inline"
     inkscape:groupmode="layer"
     inkscape:label="Icon"
     id="layer1"><g
       style="display:none"
       inkscape:label="Baseplate"
       id="layer7"
       inkscape:groupmode="layer"><text
         y="19.745117"
         xml:space="preserve"
         x="15.006836"
         style="font-style:normal;font-variant:normal;font-weight:normal;font-stretch:normal;font-size:18px;font-family:'DejaVu Sans';-inkscape-font-specification:'DejaVu Sans';display:inline;fill:#000000;fill-opacity:1;stroke:none;enable-background:new"
         inkscape:label="context"
         id="context"><tspan
           style="font-style:normal;font-variant:normal;font-weight:normal;font-stretch:normal;font-family:'DejaVu Sans';-inkscape-font-specification:'DejaVu Sans'"
           y="19.745117"
           x="15.006836"
           sodipodi:role="line"
           id="tspan3933">apps</tspan></text><text
         y="19.745117"
         xml:space="preserve"
         x="122.48828"
         style="font-style:normal;font-variant:normal;font-weight:bold;font-stretch:normal;font-size:18px;line-height:125%;font-family:'DejaVu Sans';-inkscape-font-specification:'DejaVu Sans Bold';text-align:start;writing-mode:lr-tb;text-anchor:start;display:inline;fill:#000000;fill-opacity:1;stroke:none;enable-background:new"
         inkscape:label="icon-name"
         id="icon-name"><tspan
           style="font-style:normal;font-variant:normal;font-weight:bold;font-stretch:normal;font-size:18px;font-family:'DejaVu Sans';-inkscape-font-specification:'DejaVu Sans Bold'"
           y="19.745117"
           x="122.48828"
           sodipodi:role="line"
           id="tspan473">bottles</tspan></text><rect
         style="display:inline;overflow:visible;visibility:visible;fill:#eeeeec;fill-opacity:1;fill-rule:nonzero;stroke:none;stroke-width:2;marker:none;enable-background:accumulate"
         id="rect16x16"
         width="16"
         height="16"
         x="416"
         y="140"
         inkscape:label="16x16" /><rect
         style="display:inline;overflow:visible;visibility:visible;fill:#d4d4d4;fill-opacity:1;fill-rule:nonzero;stroke:none;stroke-width:2;marker:none;enable-background:accumulate"
         id="rect24x24"
         width="24"
         height="24"
         x="416"
         y="100"
         inkscape:label="24x24" /><rect
         style="display:inline;overflow:visible;visibility:visible;fill:#eeeeec;fill-opacity:1;fill-rule:nonzero;stroke:none;stroke-width:2;marker:none;enable-background:accumulate"
         id="rect32x32"
         width="32"
         height="32"
         x="416"
         y="52"
         inkscape:label="32x32" /><rect
         inkscape:label="22x22"
         y="101"
         x="417"
         height="22"
         width="22"
         id="rect22x22"
         style="display:inline;overflow:visible;visibility:visible;fill:#eeeeec;fill-opacity:1;fill-rule:nonzero;stroke:none;stroke-width:2;marker:none;enable-background:accumulate" /><rect
         inkscape:label="48x48"
         y="220"
         x="288"
         height="48"
         width="48"
         id="rect48x48"
         style="display:inline;overflow:visible;visibility:visible;fill:#eeeeec;fill-opacity:1;fill-rule:nonzero;stroke:none;stroke-width:2;marker:none;enable-background:accumulate" /><rect
         style="display:inline;overflow:visible;visibility:visible;fill:#eeeeec;fill-opacity:1;fill-rule:nonzero;stroke:none;stroke-width:2;marker:none;enable-background:accumulate"
         id="rect256x256"
         width="256"
         height="256"
         x="16"
         y="28"
         inkscape:label="256x256" /><rect
         style="display:inline;overflow:visible;visibility:visible;fill:#eeeeec;fill-opacity:1;fill-rule:nonzero;stroke:none;stroke-width:2;marker:none;enable-background:accumulate"
         id="rect64x64"
         width="64"
         height="64"
         x="288"
         y="140"
         inkscape:label="64x64" /><rect
         style="display:inline;overflow:visible;visibility:visible;fill:#eeeeec;fill-opacity:1;fill-rule:nonzero;stroke:none;stroke-width:2;marker:none;enable-background:accumulate"
         id="rect96x96"
         width="96"
         height="96"
         x="288"
         y="28"
         inkscape:label="96x96" /></g><g
       inkscape:groupmode="layer"
       id="layer4"
       inkscape:label="Shadow"
       style="display:inline"
       sodipodi:insensitive="true"><rect
         ry="50"
         y="47"
         x="34"
         height="220"
         width="220"
         id="rect4114"
         style="opacity:0.1;color:#bebebe;fill:#000000;fill-opacity:1;fill-rule:nonzero;stroke:none;stroke-width:0;marker:none;visibility:visible;display:inline;overflow:visible;enable-background:accumulate" /><rect
         style="opacity:0.1;color:#bebebe;fill:#000000;fill-opacity:1;fill-rule:nonzero;stroke:none;stroke-width:0;marker:none;visibility:visible;display:inline;overflow:visible;enable-background:accumulate"
         id="rect4120"
         width="30"
         height="30"
         x="417"
         y="54"
         ry="7" /><rect
         transform="scale(1,-1)"
         ry="9"
         y="-266"
         x="291"
         height="42"
         width="42"
         id="rect4122"
         style="opacity:0.1;color:#bebebe;fill:#000000;fill-opacity:1;fill-rule:nonzero;stroke:none;stroke-width:0;marker:none;visibility:visible;display:inline;overflow:visible;enable-background:accumulate" /><rect
         style="opacity:0.1;color:#bebebe;fill:#000000;fill-opacity:1;fill-rule:nonzero;stroke:none;stroke-width:0;marker:none;visibility:visible;display:inline;overflow:visible;enable-background:accumulate"
         id="rect4124"
         width="88"
         height="88"
         x="292"
         y="33"
         ry="18" /><rect
         ry="12.5"
         y="143"
         x="290"
         height="60"
         width="60"
         id="rect4126"
         style="opacity:0.1;color:#bebebe;fill:#000000;fill-opacity:1;fill-rule:nonzero;stroke:none;stroke-width:0;marker:none;visibility:visible;display:inline;overflow:visible;enable-background:accumulate" /><path
         id="path4268"
         d="m 422,101 c -2.77,0 -5,2.23 -5,5 l 0,12 c 0,2.77 2.23,5 5,5 l 12,0 c 2.77,0 5,-2.23 5,-5 l 0,-12 c 0,-2.77 -2.23,-5 -5,-5 z"
         style="opacity:0.1;color:#bebebe;fill:#000000;fill-opacity:1;fill-rule:nonzero;stroke:none;stroke-width:0;marker:none;visibility:visible;display:inline;overflow:visible;enable-background:accumulate"
         inkscape:connector-curvature="0"
         sodipodi:nodetypes="sssssssss" /><path
         id="path4270"
         d="m 419,140 c -1.662,0 -3,1.338 -3,3 l 0,10 c 0,1.662 1.338,3 3,3 l 10,0 c 1.662,0 3,-1.338 3,-3 l 0,-10 c 0,-1.662 -1.338,-3 -3,-3 z"
         style="opacity:0.1;color:#bebebe;fill:#000000;fill-opacity:1;fill-rule:nonzero;stroke:none;stroke-width:0;marker:none;visibility:visible;display:inline;overflow:visible;enable-background:accumulate"
         inkscape:connector-curvature="0"
         sodipodi:nodetypes="sssssssss" /></g><g
       inkscape:groupmode="layer"
       id="layer2"
       inkscape:label="Background"
       style="display:inline"><path
         style="color:#bebebe;fill:url(#linearGradient4254);fill-opacity:1;fill-rule:nonzero;stroke:none;stroke-width:2;marker:none;visibility:visible;display:inline;overflow:visible;enable-background:accumulate"
         d="M 84 46.5 C 56.568735 46.5 34.5 68.568732 34.5 96 L 34.5 216 C 34.5 243.43127 56.568735 265.5 84 265.5 L 204 265.5 C 231.43127 265.5 253.5 243.43127 253.5 216 L 253.5 96 C 253.5 68.568732 231.43127 46.5 204 46.5 L 84 46.5 z "
         id="path4200" /><path
         style="color:#bebebe;fill:url(#linearGradient4256);fill-opacity:1;fill-rule:nonzero;stroke:none;stroke-width:2;marker:none;visibility:visible;display:inline;overflow:visible;enable-background:accumulate"
         d="M 419 140.5 C 417.6156 140.5 416.5 141.6156 416.5 143 L 416.5 153 C 416.5 154.3844 417.6156 155.5 419 155.5 L 429 155.5 C 430.3844 155.5 431.5 154.3844 431.5 153 L 431.5 143 C 431.5 141.6156 430.3844 140.5 429 140.5 L 419 140.5 z "
         id="path4202" /><path
         style="color:#bebebe;fill:url(#linearGradient3870);fill-opacity:1;fill-rule:nonzero;stroke:none;stroke-width:2;marker:none;visibility:visible;display:inline;overflow:visible;enable-background:accumulate"
         d="M 422 101.5 C 419.50301 101.5 417.5 103.50301 417.5 106 L 417.5 118 C 417.5 120.49699 419.50301 122.5 422 122.5 L 434 122.5 C 436.49699 122.5 438.5 120.49699 438.5 118 L 438.5 106 C 438.5 103.50301 436.49699 101.5 434 101.5 L 422 101.5 z "
         id="path4204" /><path
         style="color:#bebebe;fill:url(#linearGradient4260);fill-opacity:1;fill-rule:nonzero;stroke:none;stroke-width:2;marker:none;visibility:visible;display:inline;overflow:visible;enable-background:accumulate"
         d="M 424 53.5 C 420.39346 53.5 417.5 56.393464 417.5 60 L 417.5 76 C 417.5 79.606536 420.39346 82.5 424 82.5 L 440 82.5 C 443.60654 82.5 446.5 79.606536 446.5 76 L 446.5 60 C 446.5 56.393464 443.60654 53.5 440 53.5 L 424 53.5 z "
         id="path4206" /><path
         style="color:#bebebe;fill:url(#linearGradient4262);fill-opacity:1;fill-rule:nonzero;stroke:none;stroke-width:2;marker:none;visibility:visible;display:inline;overflow:visible;enable-background:accumulate"
         d="M 300 223.5 C 295.28469 223.5 291.5 227.28469 291.5 232 L 291.5 256 C 291.5 260.71531 295.28469 264.5 300 264.5 L 324 264.5 C 328.71531 264.5 332.5 260.71531 332.5 256 L 332.5 232 C 332.5 227.28469 328.71531 223.5 324 223.5 L 300 223.5 z "
         id="path4208" /><path
         style="color:#bebebe;fill:url(#linearGradient4264);fill-opacity:1;fill-rule:nonzero;stroke:none;stroke-width:2;marker:none;visibility:visible;display:inline;overflow:visible;enable-background:accumulate"
         d="M 310 32.5 C 300.29745 32.5 292.5 40.297452 292.5 50 L 292.5 102 C 292.5 111.70255 300.29745 119.5 310 119.5 L 362 119.5 C 371.70255 119.5 379.5 111.70255 379.5 102 L 379.5 50 C 379.5 40.297452 371.70255 32.5 362 32.5 L 310 32.5 z "
         id="path4210" /><path
         style="color:#bebebe;fill:url(#linearGradient4266);fill-opacity:1;fill-rule:nonzero;stroke:none;stroke-width:2;marker:none;visibility:visible;display:inline;overflow:visible;enable-background:accumulate"
         d="M 302.5 142.5 C 295.84498 142.5 290.5 147.84498 290.5 154.5 L 290.5 189.5 C 290.5 196.15502 295.84498 201.5 302.5 201.5 L 337.5 201.5 C 344.15502 201.5 349.5 196.15502 349.5 189.5 L 349.5 154.5 C 349.5 147.84498 344.15502 142.5 337.5 142.5 L 302.5 142.5 z "
         id="path4212" /></g><g
       inkscape:groupmode="layer"
       id="layer6"
       inkscape:label="Symbols"
       style="display:inline"><g
         id="g2288"><g
           style="display:inline;enable-background:new;fill:#000000;fill-opacity:0.2"
           id="g1288-3"
           transform="matrix(1.3061823,0,0,1.3061823,73.466156,92.69088)"><path
             d="M 69,100 H 39 V 67.9609 H 69 Z M 54,46.0352 c 0,0 5.4531,6.6523 3.457,9.9414 -1.9961,3.289 -4.9218,3.289 -6.9179,0 C 48.543,52.6875 54,46.0352 54,46.0352 Z m 15,7.457 h -7.5 c 0,0 0,-9.457 -7.5,-9.457 -7.5,0 -7.5,9.457 -7.5,9.457 H 39 V 30.5039 L 69,30.5 Z M 64,14 c 0,0 5,14.0234 5,14.5117 H 39 C 39,27.6094 44,14 44,14 Z m 0,-2 H 44 V 6.94141 h 20 z"
             fill="#ffffff"
             id="path1273-6"
             style="fill:#000000;fill-opacity:0.2" /><path
             d="M 28.748,14 C 32.2684,20.3755 37,27.7839 37,35.8906 V 100 H 7.42578 C 7.30079,100 7.17187,99.9961 7.04297,99.9883 6.91798,99.9844 6.79297,99.9727 6.66406,99.957 6.53907,99.9453 6.41797,99.9297 6.29297,99.9062 6.16798,99.8867 6.05078,99.8633 5.92578,99.8359 5.8047,99.8125 5.68359,99.7812 5.56641,99.75 5.44923,99.7148 5.33203,99.6797 5.21485,99.6406 4.98048,99.5625 4.7539,99.4727 4.53125,99.375 4.3086,99.2734 4.08984,99.1602 3.87891,99.0391 3.67188,98.9141 3.46875,98.7812 3.26953,98.6367 3.07032,98.4922 2.87891,98.3398 2.69531,98.1758 2.51563,98.0156 2.33594,97.8437 2.16797,97.6641 2.00391,97.4805 1.84375,97.293 1.69141,97.0938 1.53907,96.8945 1.39844,96.6914 1.26563,96.4805 1.13282,96.2656 1.00781,96.0469 0.894533,95.8203 0.781253,95.5938 0.675782,95.3594 0.582033,95.1172 0.488284,94.8789 0.402346,94.6367 0.332033,94.3867 0.261722,94.1328 0.19922,93.8789 0.148439,93.6172 0.101564,93.3555 0.0625024,93.0898 0.0390645,92.8203 0.0156275,92.5508 1.95017e-6,92.2773 1.95017e-6,92 V 35.8906 C -0.00353016,27.7839 4.79166,20.3755 8.32129,14 Z M 18.5,42 c -5.5234,0 -10,4.4766 -10,10 0,5.5234 4.4766,10 10,10 5.5234,0 10,-4.4766 10,-10 0,-5.5234 -4.4766,-10 -10,-10 z M 25,4 c 0.0469,2.40139 1.1474,5.08014 2.6641,8 H 9.40528 C 10.919,9.08022 12,6.40134 12,4 Z M 25,2 H 12 V 0 h 13 z"
             fill="#ffffff"
             id="path1275-7"
             style="fill:#000000;fill-opacity:0.2" /><path
             d="m 100,25 c 4.269,2.0727 8,6.6941 8,11.5186 V 87.4922 H 96 V 92 h 11.99 c -0.206,4.4542 -3.776,7.9811 -8.1853,8 H 71 V 36.5186 c 2e-4,-4.8128 3.7462,-9.442 8,-11.5186 z m 0,-2 H 79 v -7 h 21 z"
             fill="#ffffff"
             id="path1277-5"
             style="fill:#000000;fill-opacity:0.2" /></g><g
           style="display:inline;fill:#ffffff;fill-opacity:1;enable-background:new"
           id="g1288"
           transform="matrix(1.3061823,0,0,1.3061823,73.466156,90.690885)"><path
             d="M 69,100 H 39 V 67.9609 H 69 Z M 54,46.0352 c 0,0 5.4531,6.6523 3.457,9.9414 -1.9961,3.289 -4.9218,3.289 -6.9179,0 C 48.543,52.6875 54,46.0352 54,46.0352 Z m 15,7.457 h -7.5 c 0,0 0,-9.457 -7.5,-9.457 -7.5,0 -7.5,9.457 -7.5,9.457 H 39 V 30.5039 L 69,30.5 Z M 64,14 c 0,0 5,14.0234 5,14.5117 H 39 C 39,27.6094 44,14 44,14 Z m 0,-2 H 44 V 6.94141 h 20 z"
             fill="#ffffff"
             id="path1273"
             style="fill:#ffffff;fill-opacity:1" /><path
             d="M 28.748,14 C 32.2684,20.3755 37,27.7839 37,35.8906 V 100 H 7.42578 C 7.30079,100 7.17187,99.9961 7.04297,99.9883 6.91798,99.9844 6.79297,99.9727 6.66406,99.957 6.53907,99.9453 6.41797,99.9297 6.29297,99.9062 6.16798,99.8867 6.05078,99.8633 5.92578,99.8359 5.8047,99.8125 5.68359,99.7812 5.56641,99.75 5.44923,99.7148 5.33203,99.6797 5.21485,99.6406 4.98048,99.5625 4.7539,99.4727 4.53125,99.375 4.3086,99.2734 4.08984,99.1602 3.87891,99.0391 3.67188,98.9141 3.46875,98.7812 3.26953,98.6367 3.07032,98.4922 2.87891,98.3398 2.69531,98.1758 2.51563,98.0156 2.33594,97.8437 2.16797,97.6641 2.00391,97.4805 1.84375,97.293 1.69141,97.0938 1.53907,96.8945 1.39844,96.6914 1.26563,96.4805 1.13282,96.2656 1.00781,96.0469 0.894533,95.8203 0.781253,95.5938 0.675782,95.3594 0.582033,95.1172 0.488284,94.8789 0.402346,94.6367 0.332033,94.3867 0.261722,94.1328 0.19922,93.8789 0.148439,93.6172 0.101564,93.3555 0.0625024,93.0898 0.0390645,92.8203 0.0156275,92.5508 1.95017e-6,92.2773 1.95017e-6,92 V 35.8906 C -0.00353016,27.7839 4.79166,20.3755 8.32129,14 Z M 18.5,42 c -5.5234,0 -10,4.4766 -10,10 0,5.5234 4.4766,10 10,10 5.5234,0 10,-4.4766 10,-10 0,-5.5234 -4.4766,-10 -10,-10 z M 25,4 c 0.0469,2.40139 1.1474,5.08014 2.6641,8 H 9.40528 C 10.919,9.08022 12,6.40134 12,4 Z M 25,2 H 12 V 0 h 13 z"
             fill="#ffffff"
             id="path1275"
             style="fill:#ffffff;fill-opacity:1" /><path
             d="m 100,25 c 4.269,2.0727 8,6.6941 8,11.5186 V 87.4922 H 96 V 92 h 11.99 c -0.206,4.4542 -3.776,7.9811 -8.1853,8 H 71 V 36.5186 c 2e-4,-4.8128 3.7462,-9.442 8,-11.5186 z m 0,-2 H 79 v -7 h 21 z"
             fill="#ffffff"
             id="path1277"
             style="fill:#ffffff;fill-opacity:1" /></g></g><g
         id="g2288-3"
         style="display:inline;enable-background:new"
         transform="matrix(0.42231589,0,0,0.42231589,275.18651,9.0288051)"><g
           style="display:inline;fill:#000000;fill-opacity:0.2;enable-background:new"
           id="g1288-3-5"
           transform="matrix(1.3061823,0,0,1.3061823,73.466168,95.8525)"><path
             d="M 69,100 H 39 V 67.9609 H 69 Z M 54,46.0352 c 0,0 5.4531,6.6523 3.457,9.9414 -1.9961,3.289 -4.9218,3.289 -6.9179,0 C 48.543,52.6875 54,46.0352 54,46.0352 Z m 15,7.457 h -7.5 c 0,0 0,-9.457 -7.5,-9.457 -7.5,0 -7.5,9.457 -7.5,9.457 H 39 V 30.5039 L 69,30.5 Z M 64,14 c 0,0 5,14.0234 5,14.5117 H 39 C 39,27.6094 44,14 44,14 Z m 0,-2 H 44 V 6.94141 h 20 z"
             fill="#ffffff"
             id="path1273-6-6"
             style="fill:#000000;fill-opacity:0.2" /><path
             d="M 28.748,14 C 32.2684,20.3755 37,27.7839 37,35.8906 V 100 H 7.42578 C 7.30079,100 7.17187,99.9961 7.04297,99.9883 6.91798,99.9844 6.79297,99.9727 6.66406,99.957 6.53907,99.9453 6.41797,99.9297 6.29297,99.9062 6.16798,99.8867 6.05078,99.8633 5.92578,99.8359 5.8047,99.8125 5.68359,99.7812 5.56641,99.75 5.44923,99.7148 5.33203,99.6797 5.21485,99.6406 4.98048,99.5625 4.7539,99.4727 4.53125,99.375 4.3086,99.2734 4.08984,99.1602 3.87891,99.0391 3.67188,98.9141 3.46875,98.7812 3.26953,98.6367 3.07032,98.4922 2.87891,98.3398 2.69531,98.1758 2.51563,98.0156 2.33594,97.8437 2.16797,97.6641 2.00391,97.4805 1.84375,97.293 1.69141,97.0938 1.53907,96.8945 1.39844,96.6914 1.26563,96.4805 1.13282,96.2656 1.00781,96.0469 0.894533,95.8203 0.781253,95.5938 0.675782,95.3594 0.582033,95.1172 0.488284,94.8789 0.402346,94.6367 0.332033,94.3867 0.261722,94.1328 0.19922,93.8789 0.148439,93.6172 0.101564,93.3555 0.0625024,93.0898 0.0390645,92.8203 0.0156275,92.5508 1.95017e-6,92.2773 1.95017e-6,92 V 35.8906 C -0.00353016,27.7839 4.79166,20.3755 8.32129,14 Z M 18.5,42 c -5.5234,0 -10,4.4766 -10,10 0,5.5234 4.4766,10 10,10 5.5234,0 10,-4.4766 10,-10 0,-5.5234 -4.4766,-10 -10,-10 z M 25,4 c 0.0469,2.40139 1.1474,5.08014 2.6641,8 H 9.40528 C 10.919,9.08022 12,6.40134 12,4 Z M 25,2 H 12 V 0 h 13 z"
             fill="#ffffff"
             id="path1275-7-2"
             style="fill:#000000;fill-opacity:0.2" /><path
             d="m 100,25 c 4.269,2.0727 8,6.6941 8,11.5186 V 87.4922 H 96 V 92 h 11.99 c -0.206,4.4542 -3.776,7.9811 -8.1853,8 H 71 V 36.5186 c 2e-4,-4.8128 3.7462,-9.442 8,-11.5186 z m 0,-2 H 79 v -7 h 21 z"
             fill="#ffffff"
             id="path1277-5-9"
             style="fill:#000000;fill-opacity:0.2" /></g><g
           style="display:inline;fill:#ffffff;fill-opacity:1;enable-background:new"
           id="g1288-1"
           transform="matrix(1.3061823,0,0,1.3061823,73.466156,90.690885)"><path
             d="M 69,100 H 39 V 67.9609 H 69 Z M 54,46.0352 c 0,0 5.4531,6.6523 3.457,9.9414 -1.9961,3.289 -4.9218,3.289 -6.9179,0 C 48.543,52.6875 54,46.0352 54,46.0352 Z m 15,7.457 h -7.5 c 0,0 0,-9.457 -7.5,-9.457 -7.5,0 -7.5,9.457 -7.5,9.457 H 39 V 30.5039 L 69,30.5 Z M 64,14 c 0,0 5,14.0234 5,14.5117 H 39 C 39,27.6094 44,14 44,14 Z m 0,-2 H 44 V 6.94141 h 20 z"
             fill="#ffffff"
             id="path1273-2"
             style="fill:#ffffff;fill-opacity:1" /><path
             d="M 28.748,14 C 32.2684,20.3755 37,27.7839 37,35.8906 V 100 H 7.42578 C 7.30079,100 7.17187,99.9961 7.04297,99.9883 6.91798,99.9844 6.79297,99.9727 6.66406,99.957 6.53907,99.9453 6.41797,99.9297 6.29297,99.9062 6.16798,99.8867 6.05078,99.8633 5.92578,99.8359 5.8047,99.8125 5.68359,99.7812 5.56641,99.75 5.44923,99.7148 5.33203,99.6797 5.21485,99.6406 4.98048,99.5625 4.7539,99.4727 4.53125,99.375 4.3086,99.2734 4.08984,99.1602 3.87891,99.0391 3.67188,98.9141 3.46875,98.7812 3.26953,98.6367 3.07032,98.4922 2.87891,98.3398 2.69531,98.1758 2.51563,98.0156 2.33594,97.8437 2.16797,97.6641 2.00391,97.4805 1.84375,97.293 1.69141,97.0938 1.53907,96.8945 1.39844,96.6914 1.26563,96.4805 1.13282,96.2656 1.00781,96.0469 0.894533,95.8203 0.781253,95.5938 0.675782,95.3594 0.582033,95.1172 0.488284,94.8789 0.402346,94.6367 0.332033,94.3867 0.261722,94.1328 0.19922,93.8789 0.148439,93.6172 0.101564,93.3555 0.0625024,93.0898 0.0390645,92.8203 0.0156275,92.5508 1.95017e-6,92.2773 1.95017e-6,92 V 35.8906 C -0.00353016,27.7839 4.79166,20.3755 8.32129,14 Z M 18.5,42 c -5.5234,0 -10,4.4766 -10,10 0,5.5234 4.4766,10 10,10 5.5234,0 10,-4.4766 10,-10 0,-5.5234 -4.4766,-10 -10,-10 z M 25,4 c 0.0469,2.40139 1.1474,5.08014 2.6641,8 H 9.40528 C 10.919,9.08022 12,6.40134 12,4 Z M 25,2 H 12 V 0 h 13 z"
             fill="#ffffff"
             id="path1275-70"
             style="fill:#ffffff;fill-opacity:1" /><path
             d="m 100,25 c 4.269,2.0727 8,6.6941 8,11.5186 V 87.4922 H 96 V 92 h 11.99 c -0.206,4.4542 -3.776,7.9811 -8.1853,8 H 71 V 36.5186 c 2e-4,-4.8128 3.7462,-9.442 8,-11.5186 z m 0,-2 H 79 v -7 h 21 z"
             fill="#ffffff"
             id="path1277-9"
             style="fill:#ffffff;fill-opacity:1" /></g></g><g
         id="g2288-3-3"
         style="display:inline;enable-background:new"
         transform="matrix(0.30324888,0,0,0.30324888,276.33216,124.04758)"><g
           style="display:inline;fill:#000000;fill-opacity:0.2;enable-background:new"
           id="g1288-3-5-6"
           transform="matrix(1.3061823,0,0,1.3061823,73.466158,94.94871)"><path
             d="M 69,100 H 39 V 67.9609 H 69 Z M 54,46.0352 c 0,0 5.4531,6.6523 3.457,9.9414 -1.9961,3.289 -4.9218,3.289 -6.9179,0 C 48.543,52.6875 54,46.0352 54,46.0352 Z m 15,7.457 h -7.5 c 0,0 0,-9.457 -7.5,-9.457 -7.5,0 -7.5,9.457 -7.5,9.457 H 39 V 30.5039 L 69,30.5 Z M 64,14 c 0,0 5,14.0234 5,14.5117 H 39 C 39,27.6094 44,14 44,14 Z m 0,-2 H 44 V 6.94141 h 20 z"
             fill="#ffffff"
             id="path1273-6-6-0"
             style="fill:#000000;fill-opacity:0.2" /><path
             d="M 28.748,14 C 32.2684,20.3755 37,27.7839 37,35.8906 V 100 H 7.42578 C 7.30079,100 7.17187,99.9961 7.04297,99.9883 6.91798,99.9844 6.79297,99.9727 6.66406,99.957 6.53907,99.9453 6.41797,99.9297 6.29297,99.9062 6.16798,99.8867 6.05078,99.8633 5.92578,99.8359 5.8047,99.8125 5.68359,99.7812 5.56641,99.75 5.44923,99.7148 5.33203,99.6797 5.21485,99.6406 4.98048,99.5625 4.7539,99.4727 4.53125,99.375 4.3086,99.2734 4.08984,99.1602 3.87891,99.0391 3.67188,98.9141 3.46875,98.7812 3.26953,98.6367 3.07032,98.4922 2.87891,98.3398 2.69531,98.1758 2.51563,98.0156 2.33594,97.8437 2.16797,97.6641 2.00391,97.4805 1.84375,97.293 1.69141,97.0938 1.53907,96.8945 1.39844,96.6914 1.26563,96.4805 1.13282,96.2656 1.00781,96.0469 0.894533,95.8203 0.781253,95.5938 0.675782,95.3594 0.582033,95.1172 0.488284,94.8789 0.402346,94.6367 0.332033,94.3867 0.261722,94.1328 0.19922,93.8789 0.148439,93.6172 0.101564,93.3555 0.0625024,93.0898 0.0390645,92.8203 0.0156275,92.5508 1.95017e-6,92.2773 1.95017e-6,92 V 35.8906 C -0.00353016,27.7839 4.79166,20.3755 8.32129,14 Z M 18.5,42 c -5.5234,0 -10,4.4766 -10,10 0,5.5234 4.4766,10 10,10 5.5234,0 10,-4.4766 10,-10 0,-5.5234 -4.4766,-10 -10,-10 z M 25,4 c 0.0469,2.40139 1.1474,5.08014 2.6641,8 H 9.40528 C 10.919,9.08022 12,6.40134 12,4 Z M 25,2 H 12 V 0 h 13 z"
             fill="#ffffff"
             id="path1275-7-2-6"
             style="fill:#000000;fill-opacity:0.2" /><path
             d="m 100,25 c 4.269,2.0727 8,6.6941 8,11.5186 V 87.4922 H 96 V 92 h 11.99 c -0.206,4.4542 -3.776,7.9811 -8.1853,8 H 71 V 36.5186 c 2e-4,-4.8128 3.7462,-9.442 8,-11.5186 z m 0,-2 H 79 v -7 h 21 z"
             fill="#ffffff"
             id="path1277-5-9-2"
             style="fill:#000000;fill-opacity:0.2" /></g><g
           style="display:inline;fill:#ffffff;fill-opacity:1;enable-background:new"
           id="g1288-1-6"
           transform="matrix(1.3061823,0,0,1.3061823,73.466156,90.690885)"><path
             d="M 69,100 H 39 V 67.9609 H 69 Z M 54,46.0352 c 0,0 5.4531,6.6523 3.457,9.9414 -1.9961,3.289 -4.9218,3.289 -6.9179,0 C 48.543,52.6875 54,46.0352 54,46.0352 Z m 15,7.457 h -7.5 c 0,0 0,-9.457 -7.5,-9.457 -7.5,0 -7.5,9.457 -7.5,9.457 H 39 V 30.5039 L 69,30.5 Z M 64,14 c 0,0 5,14.0234 5,14.5117 H 39 C 39,27.6094 44,14 44,14 Z m 0,-2 H 44 V 6.94141 h 20 z"
             fill="#ffffff"
             id="path1273-2-1"
             style="fill:#ffffff;fill-opacity:1" /><path
             d="M 28.748,14 C 32.2684,20.3755 37,27.7839 37,35.8906 V 100 H 7.42578 C 7.30079,100 7.17187,99.9961 7.04297,99.9883 6.91798,99.9844 6.79297,99.9727 6.66406,99.957 6.53907,99.9453 6.41797,99.9297 6.29297,99.9062 6.16798,99.8867 6.05078,99.8633 5.92578,99.8359 5.8047,99.8125 5.68359,99.7812 5.56641,99.75 5.44923,99.7148 5.33203,99.6797 5.21485,99.6406 4.98048,99.5625 4.7539,99.4727 4.53125,99.375 4.3086,99.2734 4.08984,99.1602 3.87891,99.0391 3.67188,98.9141 3.46875,98.7812 3.26953,98.6367 3.07032,98.4922 2.87891,98.3398 2.69531,98.1758 2.51563,98.0156 2.33594,97.8437 2.16797,97.6641 2.00391,97.4805 1.84375,97.293 1.69141,97.0938 1.53907,96.8945 1.39844,96.6914 1.26563,96.4805 1.13282,96.2656 1.00781,96.0469 0.894533,95.8203 0.781253,95.5938 0.675782,95.3594 0.582033,95.1172 0.488284,94.8789 0.402346,94.6367 0.332033,94.3867 0.261722,94.1328 0.19922,93.8789 0.148439,93.6172 0.101564,93.3555 0.0625024,93.0898 0.0390645,92.8203 0.0156275,92.5508 1.95017e-6,92.2773 1.95017e-6,92 V 35.8906 C -0.00353016,27.7839 4.79166,20.3755 8.32129,14 Z M 18.5,42 c -5.5234,0 -10,4.4766 -10,10 0,5.5234 4.4766,10 10,10 5.5234,0 10,-4.4766 10,-10 0,-5.5234 -4.4766,-10 -10,-10 z M 25,4 c 0.0469,2.40139 1.1474,5.08014 2.6641,8 H 9.40528 C 10.919,9.08022 12,6.40134 12,4 Z M 25,2 H 12 V 0 h 13 z"
             fill="#ffffff"
             id="path1275-70-8"
             style="fill:#ffffff;fill-opacity:1" /><path
             d="m 100,25 c 4.269,2.0727 8,6.6941 8,11.5186 V 87.4922 H 96 V 92 h 11.99 c -0.206,4.4542 -3.776,7.9811 -8.1853,8 H 71 V 36.5186 c 2e-4,-4.8128 3.7462,-9.442 8,-11.5186 z m 0,-2 H 79 v -7 h 21 z"
             fill="#ffffff"
             id="path1277-9-7"
             style="fill:#ffffff;fill-opacity:1" /></g></g><g
         id="g2288-3-3-9"
         style="display:inline;enable-background:new"
         transform="matrix(0.21780837,0,0,0.21780837,280.63559,209.5582)"><g
           style="display:inline;fill:#000000;fill-opacity:0.2;enable-background:new"
           id="g1288-3-5-6-2"
           transform="matrix(1.3061823,0,0,1.3061823,73.466158,94.94871)"><path
             d="M 69,100 H 39 V 67.9609 H 69 Z M 54,46.0352 c 0,0 5.4531,6.6523 3.457,9.9414 -1.9961,3.289 -4.9218,3.289 -6.9179,0 C 48.543,52.6875 54,46.0352 54,46.0352 Z m 15,7.457 h -7.5 c 0,0 0,-9.457 -7.5,-9.457 -7.5,0 -7.5,9.457 -7.5,9.457 H 39 V 30.5039 L 69,30.5 Z M 64,14 c 0,0 5,14.0234 5,14.5117 H 39 C 39,27.6094 44,14 44,14 Z m 0,-2 H 44 V 6.94141 h 20 z"
             fill="#ffffff"
             id="path1273-6-6-0-0"
             style="fill:#000000;fill-opacity:0.2" /><path
             d="M 28.748,14 C 32.2684,20.3755 37,27.7839 37,35.8906 V 100 H 7.42578 C 7.30079,100 7.17187,99.9961 7.04297,99.9883 6.91798,99.9844 6.79297,99.9727 6.66406,99.957 6.53907,99.9453 6.41797,99.9297 6.29297,99.9062 6.16798,99.8867 6.05078,99.8633 5.92578,99.8359 5.8047,99.8125 5.68359,99.7812 5.56641,99.75 5.44923,99.7148 5.33203,99.6797 5.21485,99.6406 4.98048,99.5625 4.7539,99.4727 4.53125,99.375 4.3086,99.2734 4.08984,99.1602 3.87891,99.0391 3.67188,98.9141 3.46875,98.7812 3.26953,98.6367 3.07032,98.4922 2.87891,98.3398 2.69531,98.1758 2.51563,98.0156 2.33594,97.8437 2.16797,97.6641 2.00391,97.4805 1.84375,97.293 1.69141,97.0938 1.53907,96.8945 1.39844,96.6914 1.26563,96.4805 1.13282,96.2656 1.00781,96.0469 0.894533,95.8203 0.781253,95.5938 0.675782,95.3594 0.582033,95.1172 0.488284,94.8789 0.402346,94.6367 0.332033,94.3867 0.261722,94.1328 0.19922,93.8789 0.148439,93.6172 0.101564,93.3555 0.0625024,93.0898 0.0390645,92.8203 0.0156275,92.5508 1.95017e-6,92.2773 1.95017e-6,92 V 35.8906 C -0.00353016,27.7839 4.79166,20.3755 8.32129,14 Z M 18.5,42 c -5.5234,0 -10,4.4766 -10,10 0,5.5234 4.4766,10 10,10 5.5234,0 10,-4.4766 10,-10 0,-5.5234 -4.4766,-10 -10,-10 z M 25,4 c 0.0469,2.40139 1.1474,5.08014 2.6641,8 H 9.40528 C 10.919,9.08022 12,6.40134 12,4 Z M 25,2 H 12 V 0 h 13 z"
             fill="#ffffff"
             id="path1275-7-2-6-2"
             style="fill:#000000;fill-opacity:0.2" /><path
             d="m 100,25 c 4.269,2.0727 8,6.6941 8,11.5186 V 87.4922 H 96 V 92 h 11.99 c -0.206,4.4542 -3.776,7.9811 -8.1853,8 H 71 V 36.5186 c 2e-4,-4.8128 3.7462,-9.442 8,-11.5186 z m 0,-2 H 79 v -7 h 21 z"
             fill="#ffffff"
             id="path1277-5-9-2-3"
             style="fill:#000000;fill-opacity:0.2" /></g><g
           style="display:inline;fill:#ffffff;fill-opacity:1;enable-background:new"
           id="g1288-1-6-7"
           transform="matrix(1.3061823,0,0,1.3061823,73.466156,90.690885)"><path
             d="M 69,100 H 39 V 67.9609 H 69 Z M 54,46.0352 c 0,0 5.4531,6.6523 3.457,9.9414 -1.9961,3.289 -4.9218,3.289 -6.9179,0 C 48.543,52.6875 54,46.0352 54,46.0352 Z m 15,7.457 h -7.5 c 0,0 0,-9.457 -7.5,-9.457 -7.5,0 -7.5,9.457 -7.5,9.457 H 39 V 30.5039 L 69,30.5 Z M 64,14 c 0,0 5,14.0234 5,14.5117 H 39 C 39,27.6094 44,14 44,14 Z m 0,-2 H 44 V 6.94141 h 20 z"
             fill="#ffffff"
             id="path1273-2-1-5"
             style="fill:#ffffff;fill-opacity:1" /><path
             d="M 28.748,14 C 32.2684,20.3755 37,27.7839 37,35.8906 V 100 H 7.42578 C 7.30079,100 7.17187,99.9961 7.04297,99.9883 6.91798,99.9844 6.79297,99.9727 6.66406,99.957 6.53907,99.9453 6.41797,99.9297 6.29297,99.9062 6.16798,99.8867 6.05078,99.8633 5.92578,99.8359 5.8047,99.8125 5.68359,99.7812 5.56641,99.75 5.44923,99.7148 5.33203,99.6797 5.21485,99.6406 4.98048,99.5625 4.7539,99.4727 4.53125,99.375 4.3086,99.2734 4.08984,99.1602 3.87891,99.0391 3.67188,98.9141 3.46875,98.7812 3.26953,98.6367 3.07032,98.4922 2.87891,98.3398 2.69531,98.1758 2.51563,98.0156 2.33594,97.8437 2.16797,97.6641 2.00391,97.4805 1.84375,97.293 1.69141,97.0938 1.53907,96.8945 1.39844,96.6914 1.26563,96.4805 1.13282,96.2656 1.00781,96.0469 0.894533,95.8203 0.781253,95.5938 0.675782,95.3594 0.582033,95.1172 0.488284,94.8789 0.402346,94.6367 0.332033,94.3867 0.261722,94.1328 0.19922,93.8789 0.148439,93.6172 0.101564,93.3555 0.0625024,93.0898 0.0390645,92.8203 0.0156275,92.5508 1.95017e-6,92.2773 1.95017e-6,92 V 35.8906 C -0.00353016,27.7839 4.79166,20.3755 8.32129,14 Z M 18.5,42 c -5.5234,0 -10,4.4766 -10,10 0,5.5234 4.4766,10 10,10 5.5234,0 10,-4.4766 10,-10 0,-5.5234 -4.4766,-10 -10,-10 z M 25,4 c 0.0469,2.40139 1.1474,5.08014 2.6641,8 H 9.40528 C 10.919,9.08022 12,6.40134 12,4 Z M 25,2 H 12 V 0 h 13 z"
             fill="#ffffff"
             id="path1275-70-8-9"
             style="fill:#ffffff;fill-opacity:1" /><path
             d="m 100,25 c 4.269,2.0727 8,6.6941 8,11.5186 V 87.4922 H 96 V 92 h 11.99 c -0.206,4.4542 -3.776,7.9811 -8.1853,8 H 71 V 36.5186 c 2e-4,-4.8128 3.7462,-9.442 8,-11.5186 z m 0,-2 H 79 v -7 h 21 z"
             fill="#ffffff"
             id="path1277-9-7-2"
             style="fill:#ffffff;fill-opacity:1" /></g></g><g
         id="g2288-3-3-9-2"
         style="display:inline;enable-background:new"
         transform="matrix(0.14184939,0,0,0.14184939,411.57369,45.418139)"><g
           style="display:inline;fill:#000000;fill-opacity:0.2;enable-background:new"
           id="g1288-3-5-6-2-8"
           transform="matrix(1.3061823,0,0,1.3061823,73.466158,97.082963)"><path
             d="M 69,100 H 39 V 67.9609 H 69 Z M 54,46.0352 c 0,0 5.4531,6.6523 3.457,9.9414 -1.9961,3.289 -4.9218,3.289 -6.9179,0 C 48.543,52.6875 54,46.0352 54,46.0352 Z m 15,7.457 h -7.5 c 0,0 0,-9.457 -7.5,-9.457 -7.5,0 -7.5,9.457 -7.5,9.457 H 39 V 30.5039 L 69,30.5 Z M 64,14 c 0,0 5,14.0234 5,14.5117 H 39 C 39,27.6094 44,14 44,14 Z m 0,-2 H 44 V 6.94141 h 20 z"
             fill="#ffffff"
             id="path1273-6-6-0-0-9"
             style="fill:#000000;fill-opacity:0.2" /><path
             d="M 28.748,14 C 32.2684,20.3755 37,27.7839 37,35.8906 V 100 H 7.42578 C 7.30079,100 7.17187,99.9961 7.04297,99.9883 6.91798,99.9844 6.79297,99.9727 6.66406,99.957 6.53907,99.9453 6.41797,99.9297 6.29297,99.9062 6.16798,99.8867 6.05078,99.8633 5.92578,99.8359 5.8047,99.8125 5.68359,99.7812 5.56641,99.75 5.44923,99.7148 5.33203,99.6797 5.21485,99.6406 4.98048,99.5625 4.7539,99.4727 4.53125,99.375 4.3086,99.2734 4.08984,99.1602 3.87891,99.0391 3.67188,98.9141 3.46875,98.7812 3.26953,98.6367 3.07032,98.4922 2.87891,98.3398 2.69531,98.1758 2.51563,98.0156 2.33594,97.8437 2.16797,97.6641 2.00391,97.4805 1.84375,97.293 1.69141,97.0938 1.53907,96.8945 1.39844,96.6914 1.26563,96.4805 1.13282,96.2656 1.00781,96.0469 0.894533,95.8203 0.781253,95.5938 0.675782,95.3594 0.582033,95.1172 0.488284,94.8789 0.402346,94.6367 0.332033,94.3867 0.261722,94.1328 0.19922,93.8789 0.148439,93.6172 0.101564,93.3555 0.0625024,93.0898 0.0390645,92.8203 0.0156275,92.5508 1.95017e-6,92.2773 1.95017e-6,92 V 35.8906 C -0.00353016,27.7839 4.79166,20.3755 8.32129,14 Z M 18.5,42 c -5.5234,0 -10,4.4766 -10,10 0,5.5234 4.4766,10 10,10 5.5234,0 10,-4.4766 10,-10 0,-5.5234 -4.4766,-10 -10,-10 z M 25,4 c 0.0469,2.40139 1.1474,5.08014 2.6641,8 H 9.40528 C 10.919,9.08022 12,6.40134 12,4 Z M 25,2 H 12 V 0 h 13 z"
             fill="#ffffff"
             id="path1275-7-2-6-2-7"
             style="fill:#000000;fill-opacity:0.2" /><path
             d="m 100,25 c 4.269,2.0727 8,6.6941 8,11.5186 V 87.4922 H 96 V 92 h 11.99 c -0.206,4.4542 -3.776,7.9811 -8.1853,8 H 71 V 36.5186 c 2e-4,-4.8128 3.7462,-9.442 8,-11.5186 z m 0,-2 H 79 v -7 h 21 z"
             fill="#ffffff"
             id="path1277-5-9-2-3-3"
             style="fill:#000000;fill-opacity:0.2" /></g><g
           style="display:inline;fill:#ffffff;fill-opacity:1;enable-background:new"
           id="g1288-1-6-7-6"
           transform="matrix(1.3061823,0,0,1.3061823,73.466156,90.690885)"><path
             d="M 69,100 H 39 V 67.9609 H 69 Z M 54,46.0352 c 0,0 5.4531,6.6523 3.457,9.9414 -1.9961,3.289 -4.9218,3.289 -6.9179,0 C 48.543,52.6875 54,46.0352 54,46.0352 Z m 15,7.457 h -7.5 c 0,0 0,-9.457 -7.5,-9.457 -7.5,0 -7.5,9.457 -7.5,9.457 H 39 V 30.5039 L 69,30.5 Z M 64,14 c 0,0 5,14.0234 5,14.5117 H 39 C 39,27.6094 44,14 44,14 Z m 0,-2 H 44 V 6.94141 h 20 z"
             fill="#ffffff"
             id="path1273-2-1-5-1"
             style="fill:#ffffff;fill-opacity:1" /><path
             d="M 28.748,14 C 32.2684,20.3755 37,27.7839 37,35.8906 V 100 H 7.42578 C 7.30079,100 7.17187,99.9961 7.04297,99.9883 6.91798,99.9844 6.79297,99.9727 6.66406,99.957 6.53907,99.9453 6.41797,99.9297 6.29297,99.9062 6.16798,99.8867 6.05078,99.8633 5.92578,99.8359 5.8047,99.8125 5.68359,99.7812 5.56641,99.75 5.44923,99.7148 5.33203,99.6797 5.21485,99.6406 4.98048,99.5625 4.7539,99.4727 4.53125,99.375 4.3086,99.2734 4.08984,99.1602 3.87891,99.0391 3.67188,98.9141 3.46875,98.7812 3.26953,98.6367 3.07032,98.4922 2.87891,98.3398 2.69531,98.1758 2.51563,98.0156 2.33594,97.8437 2.16797,97.6641 2.00391,97.4805 1.84375,97.293 1.69141,97.0938 1.53907,96.8945 1.39844,96.6914 1.26563,96.4805 1.13282,96.2656 1.00781,96.0469 0.894533,95.8203 0.781253,95.5938 0.675782,95.3594 0.582033,95.1172 0.488284,94.8789 0.402346,94.6367 0.332033,94.3867 0.261722,94.1328 0.19922,93.8789 0.148439,93.6172 0.101564,93.3555 0.0625024,93.0898 0.0390645,92.8203 0.0156275,92.5508 1.95017e-6,92.2773 1.95017e-6,92 V 35.8906 C -0.00353016,27.7839 4.79166,20.3755 8.32129,14 Z M 18.5,42 c -5.5234,0 -10,4.4766 -10,10 0,5.5234 4.4766,10 10,10 5.5234,0 10,-4.4766 10,-10 0,-5.5234 -4.4766,-10 -10,-10 z M 25,4 c 0.0469,2.40139 1.1474,5.08014 2.6641,8 H 9.40528 C 10.919,9.08022 12,6.40134 12,4 Z M 25,2 H 12 V 0 h 13 z"
             fill="#ffffff"
             id="path1275-70-8-9-2"
             style="fill:#ffffff;fill-opacity:1" /><path
             d="m 100,25 c 4.269,2.0727 8,6.6941 8,11.5186 V 87.4922 H 96 V 92 h 11.99 c -0.206,4.4542 -3.776,7.9811 -8.1853,8 H 71 V 36.5186 c 2e-4,-4.8128 3.7462,-9.442 8,-11.5186 z m 0,-2 H 79 v -7 h 21 z"
             fill="#ffffff"
             id="path1277-9-7-2-9"
             style="fill:#ffffff;fill-opacity:1" /></g></g><g
         id="g2288-3-3-9-2-3"
         style="display:inline;enable-background:new"
         transform="matrix(0.10247521,0,0,0.10247521,413.24357,95.686352)"><g
           style="display:inline;fill:#000000;fill-opacity:0.2;enable-background:new"
           id="g1288-3-5-6-2-8-6"
           transform="matrix(1.3061823,0,0,1.3061823,73.466158,97.082963)"><path
             d="M 69,100 H 39 V 67.9609 H 69 Z M 54,46.0352 c 0,0 5.4531,6.6523 3.457,9.9414 -1.9961,3.289 -4.9218,3.289 -6.9179,0 C 48.543,52.6875 54,46.0352 54,46.0352 Z m 15,7.457 h -7.5 c 0,0 0,-9.457 -7.5,-9.457 -7.5,0 -7.5,9.457 -7.5,9.457 H 39 V 30.5039 L 69,30.5 Z M 64,14 c 0,0 5,14.0234 5,14.5117 H 39 C 39,27.6094 44,14 44,14 Z m 0,-2 H 44 V 6.94141 h 20 z"
             fill="#ffffff"
             id="path1273-6-6-0-0-9-1"
             style="fill:#000000;fill-opacity:0.2" /><path
             d="M 28.748,14 C 32.2684,20.3755 37,27.7839 37,35.8906 V 100 H 7.42578 C 7.30079,100 7.17187,99.9961 7.04297,99.9883 6.91798,99.9844 6.79297,99.9727 6.66406,99.957 6.53907,99.9453 6.41797,99.9297 6.29297,99.9062 6.16798,99.8867 6.05078,99.8633 5.92578,99.8359 5.8047,99.8125 5.68359,99.7812 5.56641,99.75 5.44923,99.7148 5.33203,99.6797 5.21485,99.6406 4.98048,99.5625 4.7539,99.4727 4.53125,99.375 4.3086,99.2734 4.08984,99.1602 3.87891,99.0391 3.67188,98.9141 3.46875,98.7812 3.26953,98.6367 3.07032,98.4922 2.87891,98.3398 2.69531,98.1758 2.51563,98.0156 2.33594,97.8437 2.16797,97.6641 2.00391,97.4805 1.84375,97.293 1.69141,97.0938 1.53907,96.8945 1.39844,96.6914 1.26563,96.4805 1.13282,96.2656 1.00781,96.0469 0.894533,95.8203 0.781253,95.5938 0.675782,95.3594 0.582033,95.1172 0.488284,94.8789 0.402346,94.6367 0.332033,94.3867 0.261722,94.1328 0.19922,93.8789 0.148439,93.6172 0.101564,93.3555 0.0625024,93.0898 0.0390645,92.8203 0.0156275,92.5508 1.95017e-6,92.2773 1.95017e-6,92 V 35.8906 C -0.00353016,27.7839 4.79166,20.3755 8.32129,14 Z M 18.5,42 c -5.5234,0 -10,4.4766 -10,10 0,5.5234 4.4766,10 10,10 5.5234,0 10,-4.4766 10,-10 0,-5.5234 -4.4766,-10 -10,-10 z M 25,4 c 0.0469,2.40139 1.1474,5.08014 2.6641,8 H 9.40528 C 10.919,9.08022 12,6.40134 12,4 Z M 25,2 H 12 V 0 h 13 z"
             fill="#ffffff"
             id="path1275-7-2-6-2-7-0"
             style="fill:#000000;fill-opacity:0.2" /><path
             d="m 100,25 c 4.269,2.0727 8,6.6941 8,11.5186 V 87.4922 H 96 V 92 h 11.99 c -0.206,4.4542 -3.776,7.9811 -8.1853,8 H 71 V 36.5186 c 2e-4,-4.8128 3.7462,-9.442 8,-11.5186 z m 0,-2 H 79 v -7 h 21 z"
             fill="#ffffff"
             id="path1277-5-9-2-3-3-6"
             style="fill:#000000;fill-opacity:0.2" /></g><g
           style="display:inline;fill:#ffffff;fill-opacity:1;enable-background:new"
           id="g1288-1-6-7-6-3"
           transform="matrix(1.3061823,0,0,1.3061823,73.466156,90.690885)"><path
             d="M 69,100 H 39 V 67.9609 H 69 Z M 54,46.0352 c 0,0 5.4531,6.6523 3.457,9.9414 -1.9961,3.289 -4.9218,3.289 -6.9179,0 C 48.543,52.6875 54,46.0352 54,46.0352 Z m 15,7.457 h -7.5 c 0,0 0,-9.457 -7.5,-9.457 -7.5,0 -7.5,9.457 -7.5,9.457 H 39 V 30.5039 L 69,30.5 Z M 64,14 c 0,0 5,14.0234 5,14.5117 H 39 C 39,27.6094 44,14 44,14 Z m 0,-2 H 44 V 6.94141 h 20 z"
             fill="#ffffff"
             id="path1273-2-1-5-1-2"
             style="fill:#ffffff;fill-opacity:1" /><path
             d="M 28.748,14 C 32.2684,20.3755 37,27.7839 37,35.8906 V 100 H 7.42578 C 7.30079,100 7.17187,99.9961 7.04297,99.9883 6.91798,99.9844 6.79297,99.9727 6.66406,99.957 6.53907,99.9453 6.41797,99.9297 6.29297,99.9062 6.16798,99.8867 6.05078,99.8633 5.92578,99.8359 5.8047,99.8125 5.68359,99.7812 5.56641,99.75 5.44923,99.7148 5.33203,99.6797 5.21485,99.6406 4.98048,99.5625 4.7539,99.4727 4.53125,99.375 4.3086,99.2734 4.08984,99.1602 3.87891,99.0391 3.67188,98.9141 3.46875,98.7812 3.26953,98.6367 3.07032,98.4922 2.87891,98.3398 2.69531,98.1758 2.51563,98.0156 2.33594,97.8437 2.16797,97.6641 2.00391,97.4805 1.84375,97.293 1.69141,97.0938 1.53907,96.8945 1.39844,96.6914 1.26563,96.4805 1.13282,96.2656 1.00781,96.0469 0.894533,95.8203 0.781253,95.5938 0.675782,95.3594 0.582033,95.1172 0.488284,94.8789 0.402346,94.6367 0.332033,94.3867 0.261722,94.1328 0.19922,93.8789 0.148439,93.6172 0.101564,93.3555 0.0625024,93.0898 0.0390645,92.8203 0.0156275,92.5508 1.95017e-6,92.2773 1.95017e-6,92 V 35.8906 C -0.00353016,27.7839 4.79166,20.3755 8.32129,14 Z M 18.5,42 c -5.5234,0 -10,4.4766 -10,10 0,5.5234 4.4766,10 10,10 5.5234,0 10,-4.4766 10,-10 0,-5.5234 -4.4766,-10 -10,-10 z M 25,4 c 0.0469,2.40139 1.1474,5.08014 2.6641,8 H 9.40528 C 10.919,9.08022 12,6.40134 12,4 Z M 25,2 H 12 V 0 h 13 z"
             fill="#ffffff"
             id="path1275-70-8-9-2-0"
             style="fill:#ffffff;fill-opacity:1" /><path
             d="m 100,25 c 4.269,2.0727 8,6.6941 8,11.5186 V 87.4922 H 96 V 92 h 11.99 c -0.206,4.4542 -3.776,7.9811 -8.1853,8 H 71 V 36.5186 c 2e-4,-4.8128 3.7462,-9.442 8,-11.5186 z m 0,-2 H 79 v -7 h 21 z"
             fill="#ffffff"
             id="path1277-9-7-2-9-6"
             style="fill:#ffffff;fill-opacity:1" /></g></g><g
         id="g2288-3-3-9-2-3-1"
         style="display:inline;enable-background:new"
         transform="matrix(0.07699477,0,0,0.07699477,412.91275,135.74274)"><g
           style="display:inline;fill:#000000;fill-opacity:0.2;enable-background:new"
           id="g1288-3-5-6-2-8-6-5"
           transform="matrix(1.3061823,0,0,1.3061823,73.466158,97.082963)"><path
             d="M 69,100 H 39 V 67.9609 H 69 Z M 54,46.0352 c 0,0 5.4531,6.6523 3.457,9.9414 -1.9961,3.289 -4.9218,3.289 -6.9179,0 C 48.543,52.6875 54,46.0352 54,46.0352 Z m 15,7.457 h -7.5 c 0,0 0,-9.457 -7.5,-9.457 -7.5,0 -7.5,9.457 -7.5,9.457 H 39 V 30.5039 L 69,30.5 Z M 64,14 c 0,0 5,14.0234 5,14.5117 H 39 C 39,27.6094 44,14 44,14 Z m 0,-2 H 44 V 6.94141 h 20 z"
             fill="#ffffff"
             id="path1273-6-6-0-0-9-1-5"
             style="fill:#000000;fill-opacity:0.2" /><path
             d="M 28.748,14 C 32.2684,20.3755 37,27.7839 37,35.8906 V 100 H 7.42578 C 7.30079,100 7.17187,99.9961 7.04297,99.9883 6.91798,99.9844 6.79297,99.9727 6.66406,99.957 6.53907,99.9453 6.41797,99.9297 6.29297,99.9062 6.16798,99.8867 6.05078,99.8633 5.92578,99.8359 5.8047,99.8125 5.68359,99.7812 5.56641,99.75 5.44923,99.7148 5.33203,99.6797 5.21485,99.6406 4.98048,99.5625 4.7539,99.4727 4.53125,99.375 4.3086,99.2734 4.08984,99.1602 3.87891,99.0391 3.67188,98.9141 3.46875,98.7812 3.26953,98.6367 3.07032,98.4922 2.87891,98.3398 2.69531,98.1758 2.51563,98.0156 2.33594,97.8437 2.16797,97.6641 2.00391,97.4805 1.84375,97.293 1.69141,97.0938 1.53907,96.8945 1.39844,96.6914 1.26563,96.4805 1.13282,96.2656 1.00781,96.0469 0.894533,95.8203 0.781253,95.5938 0.675782,95.3594 0.582033,95.1172 0.488284,94.8789 0.402346,94.6367 0.332033,94.3867 0.261722,94.1328 0.19922,93.8789 0.148439,93.6172 0.101564,93.3555 0.0625024,93.0898 0.0390645,92.8203 0.0156275,92.5508 1.95017e-6,92.2773 1.95017e-6,92 V 35.8906 C -0.00353016,27.7839 4.79166,20.3755 8.32129,14 Z M 18.5,42 c -5.5234,0 -10,4.4766 -10,10 0,5.5234 4.4766,10 10,10 5.5234,0 10,-4.4766 10,-10 0,-5.5234 -4.4766,-10 -10,-10 z M 25,4 c 0.0469,2.40139 1.1474,5.08014 2.6641,8 H 9.40528 C 10.919,9.08022 12,6.40134 12,4 Z M 25,2 H 12 V 0 h 13 z"
             fill="#ffffff"
             id="path1275-7-2-6-2-7-0-4"
             style="fill:#000000;fill-opacity:0.2" /><path
             d="m 100,25 c 4.269,2.0727 8,6.6941 8,11.5186 V 87.4922 H 96 V 92 h 11.99 c -0.206,4.4542 -3.776,7.9811 -8.1853,8 H 71 V 36.5186 c 2e-4,-4.8128 3.7462,-9.442 8,-11.5186 z m 0,-2 H 79 v -7 h 21 z"
             fill="#ffffff"
             id="path1277-5-9-2-3-3-6-7"
             style="fill:#000000;fill-opacity:0.2" /></g><g
           style="display:inline;fill:#ffffff;fill-opacity:1;enable-background:new"
           id="g1288-1-6-7-6-3-6"
           transform="matrix(1.3061823,0,0,1.3061823,73.466156,90.690885)"><path
             d="M 69,100 H 39 V 67.9609 H 69 Z M 54,46.0352 c 0,0 5.4531,6.6523 3.457,9.9414 -1.9961,3.289 -4.9218,3.289 -6.9179,0 C 48.543,52.6875 54,46.0352 54,46.0352 Z m 15,7.457 h -7.5 c 0,0 0,-9.457 -7.5,-9.457 -7.5,0 -7.5,9.457 -7.5,9.457 H 39 V 30.5039 L 69,30.5 Z M 64,14 c 0,0 5,14.0234 5,14.5117 H 39 C 39,27.6094 44,14 44,14 Z m 0,-2 H 44 V 6.94141 h 20 z"
             fill="#ffffff"
             id="path1273-2-1-5-1-2-5"
             style="fill:#ffffff;fill-opacity:1" /><path
             d="M 28.748,14 C 32.2684,20.3755 37,27.7839 37,35.8906 V 100 H 7.42578 C 7.30079,100 7.17187,99.9961 7.04297,99.9883 6.91798,99.9844 6.79297,99.9727 6.66406,99.957 6.53907,99.9453 6.41797,99.9297 6.29297,99.9062 6.16798,99.8867 6.05078,99.8633 5.92578,99.8359 5.8047,99.8125 5.68359,99.7812 5.56641,99.75 5.44923,99.7148 5.33203,99.6797 5.21485,99.6406 4.98048,99.5625 4.7539,99.4727 4.53125,99.375 4.3086,99.2734 4.08984,99.1602 3.87891,99.0391 3.67188,98.9141 3.46875,98.7812 3.26953,98.6367 3.07032,98.4922 2.87891,98.3398 2.69531,98.1758 2.51563,98.0156 2.33594,97.8437 2.16797,97.6641 2.00391,97.4805 1.84375,97.293 1.69141,97.0938 1.53907,96.8945 1.39844,96.6914 1.26563,96.4805 1.13282,96.2656 1.00781,96.0469 0.894533,95.8203 0.781253,95.5938 0.675782,95.3594 0.582033,95.1172 0.488284,94.8789 0.402346,94.6367 0.332033,94.3867 0.261722,94.1328 0.19922,93.8789 0.148439,93.6172 0.101564,93.3555 0.0625024,93.0898 0.0390645,92.8203 0.0156275,92.5508 1.95017e-6,92.2773 1.95017e-6,92 V 35.8906 C -0.00353016,27.7839 4.79166,20.3755 8.32129,14 Z M 18.5,42 c -5.5234,0 -10,4.4766 -10,10 0,5.5234 4.4766,10 10,10 5.5234,0 10,-4.4766 10,-10 0,-5.5234 -4.4766,-10 -10,-10 z M 25,4 c 0.0469,2.40139 1.1474,5.08014 2.6641,8 H 9.40528 C 10.919,9.08022 12,6.40134 12,4 Z M 25,2 H 12 V 0 h 13 z"
             fill="#ffffff"
             id="path1275-70-8-9-2-0-6"
             style="fill:#ffffff;fill-opacity:1" /><path
             d="m 100,25 c 4.269,2.0727 8,6.6941 8,11.5186 V 87.4922 H 96 V 92 h 11.99 c -0.206,4.4542 -3.776,7.9811 -8.1853,8 H 71 V 36.5186 c 2e-4,-4.8128 3.7462,-9.442 8,-11.5186 z m 0,-2 H 79 v -7 h 21 z"
             fill="#ffffff"
             id="path1277-9-7-2-9-6-9"
             style="fill:#ffffff;fill-opacity:1" /></g></g></g><g
       inkscape:groupmode="layer"
       id="layer5"
       inkscape:label="Highlights"
       style="display:inline"
       sodipodi:insensitive="true"><path
         style="opacity:0.12999998;color:#bebebe;fill:#ffffff;fill-opacity:1;fill-rule:nonzero;stroke:none;stroke-width:0;marker:none;visibility:visible;display:inline;overflow:visible;enable-background:accumulate"
         d="M 84,47 C 56.836703,47 35,68.836703 35,96 l 0,1 C 35,69.836703 56.836703,48 84,48 l 120,0 c 27.1633,0 49,21.836703 49,49 l 0,-1 C 253,68.836703 231.1633,47 204,47 L 84,47 z"
         id="rect3894"
         inkscape:connector-curvature="0" /><path
         style="opacity:0.12999998;color:#bebebe;fill:#ffffff;fill-opacity:1;fill-rule:nonzero;stroke:none;stroke-width:0;marker:none;visibility:visible;display:inline;overflow:visible;enable-background:accumulate"
         d="m 419,141 c -1.1253,0 -2,0.8747 -2,2 l 0,1 c 0,-1.1253 0.8747,-2 2,-2 l 10,0 c 1.1253,0 2,0.8747 2,2 l 0,-1 c 0,-1.1253 -0.8747,-2 -2,-2 l -10,0 z"
         id="rect3896"
         inkscape:connector-curvature="0" /><path
         style="opacity:0.12999998;color:#bebebe;fill:#ffffff;fill-opacity:1;fill-rule:nonzero;stroke:none;stroke-width:0;marker:none;visibility:visible;display:inline;overflow:visible;enable-background:accumulate"
         d="m 422,102 c -2.2333,0 -4,1.7667 -4,4 l 0,1 c 0,-2.2333 1.7667,-4 4,-4 l 12,0 c 2.2333,0 4,1.7667 4,4 l 0,-1 c 0,-2.2333 -1.7667,-4 -4,-4 l -12,0 z"
         id="rect3898"
         inkscape:connector-curvature="0" /><path
         style="opacity:0.12999998;color:#bebebe;fill:#ffffff;fill-opacity:1;fill-rule:nonzero;stroke:none;stroke-width:0;marker:none;visibility:visible;display:inline;overflow:visible;enable-background:accumulate"
         d="m 424,54 c -3.3413,0 -6,2.658703 -6,6 l 0,1 c 0,-3.341297 2.6587,-6 6,-6 l 16,0 c 3.3413,0 6,2.658703 6,6 l 0,-1 c 0,-3.341297 -2.6587,-6 -6,-6 l -16,0 z"
         id="rect3900"
         inkscape:connector-curvature="0" /><path
         style="opacity:0.12999998;color:#bebebe;fill:#ffffff;fill-opacity:1;fill-rule:nonzero;stroke:none;stroke-width:0;marker:none;visibility:visible;display:inline;overflow:visible;enable-background:accumulate"
         d="m 300,224 c -4.4493,0 -8,3.5507 -8,8 l 0,1 c 0,-4.4493 3.5507,-8 8,-8 l 24,0 c 4.4493,0 8,3.5507 8,8 l 0,-1 c 0,-4.4493 -3.5507,-8 -8,-8 l -24,0 z"
         id="rect3902"
         inkscape:connector-curvature="0" /><path
         style="opacity:0.12999998;color:#bebebe;fill:#ffffff;fill-opacity:1;fill-rule:nonzero;stroke:none;stroke-width:0;marker:none;visibility:visible;display:inline;overflow:visible;enable-background:accumulate"
         d="m 310,33 c -9.4353,0 -17,7.564703 -17,17 l 0,1 c 0,-9.435297 7.5647,-17 17,-17 l 52,0 c 9.4353,0 17,7.564703 17,17 l 0,-1 c 0,-9.435297 -7.5647,-17 -17,-17 l -52,0 z"
         id="rect3904"
         inkscape:connector-curvature="0" /><path
         style="opacity:0.12999998;color:#bebebe;fill:#ffffff;fill-opacity:1;fill-rule:nonzero;stroke:none;stroke-width:0;marker:none;visibility:visible;display:inline;overflow:visible;enable-background:accumulate"
         d="m 302.5,143 c -6.3883,0 -11.5,5.1117 -11.5,11.5 l 0,1 c 0,-6.3883 5.1117,-11.5 11.5,-11.5 l 35,0 c 6.3883,0 11.5,5.1117 11.5,11.5 l 0,-1 c 0,-6.3883 -5.1117,-11.5 -11.5,-11.5 l -35,0 z"
         id="rect3906"
         inkscape:connector-curvature="0" /><path
         id="path4085"
         d="m 204,266 c 27.1633,0 49,-21.8367 49,-49 l 0,-1 c 0,27.1633 -21.8367,49 -49,49 L 84,265 C 56.8367,265 35,243.1633 35,216 l 0,1 c 0,27.1633 21.8367,49 49,49 l 120,0 z"
         style="opacity:0.5;color:#bebebe;fill:#000000;fill-opacity:1;fill-rule:nonzero;stroke:none;stroke-width:0;marker:none;visibility:visible;display:inline;overflow:visible;enable-background:accumulate"
         inkscape:connector-curvature="0" /><path
         id="path4087"
         d="m 429,156 c 1.1253,0 2,-0.8747 2,-2 l 0,-1 c 0,1.1253 -0.8747,2 -2,2 l -10,0 c -1.1253,0 -2,-0.8747 -2,-2 l 0,1 c 0,1.1253 0.8747,2 2,2 l 10,0 z"
         style="opacity:0.3;color:#bebebe;fill:#000000;fill-opacity:1;fill-rule:nonzero;stroke:none;stroke-width:0;marker:none;visibility:visible;display:inline;overflow:visible;enable-background:accumulate"
         inkscape:connector-curvature="0" /><path
         id="path4089"
         d="m 434,123 c 2.2333,0 4,-1.7667 4,-4 l 0,-1 c 0,2.2333 -1.7667,4 -4,4 l -12,0 c -2.2333,0 -4,-1.7667 -4,-4 l 0,1 c 0,2.2333 1.7667,4 4,4 l 12,0 z"
         style="opacity:0.3;color:#bebebe;fill:#000000;fill-opacity:1;fill-rule:nonzero;stroke:none;stroke-width:0;marker:none;visibility:visible;display:inline;overflow:visible;enable-background:accumulate"
         inkscape:connector-curvature="0" /><path
         id="path4091"
         d="m 440,83 c 3.3413,0 6,-2.6587 6,-6 l 0,-1 c 0,3.3413 -2.6587,6 -6,6 l -16,0 c -3.3413,0 -6,-2.6587 -6,-6 l 0,1 c 0,3.3413 2.6587,6 6,6 l 16,0 z"
         style="opacity:0.5;color:#bebebe;fill:#000000;fill-opacity:1;fill-rule:nonzero;stroke:none;stroke-width:0;marker:none;visibility:visible;display:inline;overflow:visible;enable-background:accumulate"
         inkscape:connector-curvature="0" /><path
         id="path4093"
         d="m 324,265 c 4.4493,0 8,-3.5507 8,-8 l 0,-1 c 0,4.4493 -3.5507,8 -8,8 l -24,0 c -4.4493,0 -8,-3.5507 -8,-8 l 0,1 c 0,4.4493 3.5507,8 8,8 l 24,0 z"
         style="opacity:0.5;color:#bebebe;fill:#000000;fill-opacity:1;fill-rule:nonzero;stroke:none;stroke-width:0;marker:none;visibility:visible;display:inline;overflow:visible;enable-background:accumulate"
         inkscape:connector-curvature="0" /><path
         id="path4095"
         d="m 362,120 c 9.4353,0 17,-7.5647 17,-17 l 0,-1 c 0,9.4353 -7.5647,17 -17,17 l -52,0 c -9.4353,0 -17,-7.5647 -17,-17 l 0,1 c 0,9.4353 7.5647,17 17,17 l 52,0 z"
         style="opacity:0.5;color:#bebebe;fill:#000000;fill-opacity:1;fill-rule:nonzero;stroke:none;stroke-width:0;marker:none;visibility:visible;display:inline;overflow:visible;enable-background:accumulate"
         inkscape:connector-curvature="0" /><path
         id="path4097"
         d="m 337.5,202 c 6.3883,0 11.5,-5.1117 11.5,-11.5 l 0,-1 c 0,6.3883 -5.1117,11.5 -11.5,11.5 l -35,0 c -6.3883,0 -11.5,-5.1117 -11.5,-11.5 l 0,1 c 0,6.3883 5.1117,11.5 11.5,11.5 l 35,0 z"
         style="opacity:0.5;color:#bebebe;fill:#000000;fill-opacity:1;fill-rule:nonzero;stroke:none;stroke-width:0;marker:none;visibility:visible;display:inline;overflow:visible;enable-background:accumulate"
         inkscape:connector-curvature="0" /><path
         inkscape:connector-curvature="0"
         id="path4280"
         d="M 84,265 C 56.836703,265 35,243.1633 35,216 l 0,-1 c 0,27.1633 21.836703,49 49,49 l 120,0 c 27.1633,0 49,-21.8367 49,-49 l 0,1 c 0,27.1633 -21.8367,49 -49,49 l -120,0 z"
         style="opacity:0.1;color:#bebebe;fill:#ffffff;fill-opacity:1;fill-rule:nonzero;stroke:none;stroke-width:0;marker:none;visibility:visible;display:inline;overflow:visible;enable-background:accumulate" /><path
         style="opacity:0.1;color:#bebebe;fill:#ffffff;fill-opacity:1;fill-rule:nonzero;stroke:none;stroke-width:0;marker:none;visibility:visible;display:inline;overflow:visible;enable-background:accumulate"
         d="m 300,264 c -4.4493,0 -8,-3.5507 -8,-8 l 0,-1 c 0,4.4493 3.5507,8 8,8 l 24,0 c 4.4493,0 8,-3.5507 8,-8 l 0,1 c 0,4.4493 -3.5507,8 -8,8 l -24,0 z"
         id="path4294"
         inkscape:connector-curvature="0" /><path
         style="opacity:0.1;color:#bebebe;fill:#ffffff;fill-opacity:1;fill-rule:nonzero;stroke:none;stroke-width:0;marker:none;visibility:visible;display:inline;overflow:visible;enable-background:accumulate"
         d="m 302.5,201 c -6.3883,0 -11.5,-5.1117 -11.5,-11.5 l 0,-1 c 0,6.3883 5.1117,11.5 11.5,11.5 l 35,0 c 6.3883,0 11.5,-5.1117 11.5,-11.5 l 0,1 c 0,6.3883 -5.1117,11.5 -11.5,11.5 l -35,0 z"
         id="path4296"
         inkscape:connector-curvature="0" /><path
         style="opacity:0.1;color:#bebebe;fill:#ffffff;fill-opacity:1;fill-rule:nonzero;stroke:none;stroke-width:0;marker:none;visibility:visible;display:inline;overflow:visible;enable-background:accumulate"
         d="m 310,119 c -9.4353,0 -17,-7.5647 -17,-17 l 0,-1 c 0,9.4353 7.5647,17 17,17 l 52,0 c 9.4353,0 17,-7.5647 17,-17 l 0,1 c 0,9.4353 -7.5647,17 -17,17 l -52,0 z"
         id="path4298"
         inkscape:connector-curvature="0" /><path
         style="opacity:0.1;color:#bebebe;fill:#ffffff;fill-opacity:1;fill-rule:nonzero;stroke:none;stroke-width:0;marker:none;visibility:visible;display:inline;overflow:visible;enable-background:accumulate"
         d="m 424,82 c -3.3413,0 -6,-2.658703 -6,-6 l 0,-1 c 0,3.341297 2.6587,6 6,6 l 16,0 c 3.3413,0 6,-2.658703 6,-6 l 0,1 c 0,3.341297 -2.6587,6 -6,6 l -16,0 z"
         id="path4300"
         inkscape:connector-curvature="0" /><path
         style="opacity:0.1;color:#bebebe;fill:#ffffff;fill-opacity:1;fill-rule:nonzero;stroke:none;stroke-width:0;marker:none;visibility:visible;display:inline;overflow:visible;enable-background:accumulate"
         d="m 422,122 c -2.2333,0 -4,-1.7667 -4,-4 l 0,-1 c 0,2.2333 1.7667,4 4,4 l 12,0 c 2.2333,0 4,-1.7667 4,-4 l 0,1 c 0,2.2333 -1.7667,4 -4,4 l -12,0 z"
         id="path4302"
         inkscape:connector-curvature="0" /><path
         style="opacity:0.1;color:#bebebe;fill:#ffffff;fill-opacity:1;fill-rule:nonzero;stroke:none;stroke-width:0;marker:none;visibility:visible;display:inline;overflow:visible;enable-background:accumulate"
         d="m 419,154.5 c -1.1253,0 -2,-0.8747 -2,-2 l 0,-1 c 0,1.1253 0.8747,2 2,2 l 10,0 c 1.1253,0 2,-0.8747 2,-2 l 0,1 c 0,1.1253 -0.8747,2 -2,2 l -10,0 z"
         id="path4304"
         inkscape:connector-curvature="0" /></g><g
       inkscape:groupmode="layer"
       id="layer3"
       inkscape:label="Border"
       style="display:inline"
       sodipodi:insensitive="true"><path
         style="opacity:0.41000001;color:#bebebe;fill:#000000;fill-opacity:1;fill-rule:nonzero;stroke:none;stroke-width:0;marker:none;visibility:visible;display:inline;overflow:visible;enable-background:accumulate"
         d="m 422,101 c -2.77,0 -5,2.23 -5,5 l 0,12 c 0,2.77 2.23,5 5,5 l 12,0 c 2.77,0 5,-2.23 5,-5 l 0,-12 c 0,-2.77 -2.23,-5 -5,-5 l -12,0 z m 0,1 12,0 c 2.2333,0 4,1.7667 4,4 l 0,12 c 0,2.2333 -1.7667,4 -4,4 l -12,0 c -2.2333,0 -4,-1.7667 -4,-4 l 0,-12 c 0,-2.2333 1.7667,-4 4,-4 z"
         id="rect4099"
         inkscape:connector-curvature="0" /><path
         style="opacity:0.41000001;color:#bebebe;fill:#000000;fill-opacity:1;fill-rule:nonzero;stroke:none;stroke-width:0;marker:none;visibility:visible;display:inline;overflow:visible;enable-background:accumulate"
         d="m 424,53 c -3.878,0 -7,3.122 -7,7 l 0,16 c 0,3.878 3.122,7 7,7 l 16,0 c 3.878,0 7,-3.122 7,-7 l 0,-16 c 0,-3.878 -3.122,-7 -7,-7 l -16,0 z m 0,1 16,0 c 3.3413,0 6,2.658703 6,6 l 0,16 c 0,3.341297 -2.6587,6 -6,6 l -16,0 c -3.3413,0 -6,-2.658703 -6,-6 l 0,-16 c 0,-3.341297 2.6587,-6 6,-6 z"
         id="rect4151"
         inkscape:connector-curvature="0" /><path
         style="opacity:0.41000001;color:#bebebe;fill:#000000;fill-opacity:1;fill-rule:nonzero;stroke:none;stroke-width:0;marker:none;visibility:visible;display:inline;overflow:visible;enable-background:accumulate"
         d="m 419,140 c -1.662,0 -3,1.338 -3,3 l 0,10 c 0,1.662 1.338,3 3,3 l 10,0 c 1.662,0 3,-1.338 3,-3 l 0,-10 c 0,-1.662 -1.338,-3 -3,-3 l -10,0 z m 0,1 10,0 c 1.1253,0 2,0.8747 2,2 l 0,10 c 0,1.1253 -0.8747,2 -2,2 l -10,0 c -1.1253,0 -2,-0.8747 -2,-2 l 0,-10 c 0,-1.1253 0.8747,-2 2,-2 z"
         id="rect4095"
         inkscape:connector-curvature="0" /><path
         style="opacity:0.41000001;color:#bebebe;fill:#000000;fill-opacity:1;fill-rule:nonzero;stroke:none;stroke-width:0;marker:none;visibility:visible;display:inline;overflow:visible;enable-background:accumulate"
         d="m 300,223 c -4.986,0 -9,4.014 -9,9 l 0,24 c 0,4.986 4.014,9 9,9 l 24,0 c 4.986,0 9,-4.014 9,-9 l 0,-24 c 0,-4.986 -4.014,-9 -9,-9 l -24,0 z m 0,1 24,0 c 4.4493,0 8,3.5507 8,8 l 0,24 c 0,4.4493 -3.5507,8 -8,8 l -24,0 c -4.4493,0 -8,-3.5507 -8,-8 l 0,-24 c 0,-4.4493 3.5507,-8 8,-8 z"
         id="rect4783"
         inkscape:connector-curvature="0" /><path
         style="opacity:0.41000001;color:#bebebe;fill:#000000;fill-opacity:1;fill-rule:nonzero;stroke:none;stroke-width:0;marker:none;visibility:visible;display:inline;overflow:visible;enable-background:accumulate"
         d="m 302.5,142 c -6.925,0 -12.5,5.575 -12.5,12.5 l 0,35 c 0,6.925 5.575,12.5 12.5,12.5 l 35,0 c 6.925,0 12.5,-5.575 12.5,-12.5 l 0,-35 c 0,-6.925 -5.575,-12.5 -12.5,-12.5 l -35,0 z m 0,1 35,0 c 6.3883,0 11.5,5.1117 11.5,11.5 l 0,35 c 0,6.3883 -5.1117,11.5 -11.5,11.5 l -35,0 c -6.3883,0 -11.5,-5.1117 -11.5,-11.5 l 0,-35 c 0,-6.3883 5.1117,-11.5 11.5,-11.5 z"
         id="rect4515"
         inkscape:connector-curvature="0" /><path
         style="opacity:0.41000001;color:#bebebe;fill:#000000;fill-opacity:1;fill-rule:nonzero;stroke:none;stroke-width:0;marker:none;visibility:visible;display:inline;overflow:visible;enable-background:accumulate"
         d="m 310,32 c -9.972,0 -18,8.028 -18,18 l 0,52 c 0,9.972 8.028,18 18,18 l 52,0 c 9.972,0 18,-8.028 18,-18 l 0,-52 c 0,-9.972 -8.028,-18 -18,-18 l -52,0 z m 0,1 52,0 c 9.4353,0 17,7.564703 17,17 l 0,52 c 0,9.4353 -7.5647,17 -17,17 l -52,0 c -9.4353,0 -17,-7.5647 -17,-17 l 0,-52 c 0,-9.435297 7.5647,-17 17,-17 z"
         id="rect4511"
         inkscape:connector-curvature="0" /><path
         style="opacity:0.41000001;color:#bebebe;fill:#000000;fill-opacity:1;fill-rule:nonzero;stroke:none;stroke-width:0;marker:none;visibility:visible;display:inline;overflow:visible;enable-background:accumulate"
         d="M 84,46 C 56.3,46 34,68.3 34,96 l 0,120 c 0,27.7 22.3,50 50,50 l 120,0 c 27.7,0 50,-22.3 50,-50 L 254,96 C 254,68.3 231.7,46 204,46 L 84,46 z m 0,1 120,0 c 27.1633,0 49,21.836703 49,49 l 0,120 c 0,27.1633 -21.8367,49 -49,49 L 84,265 C 56.836703,265 35,243.1633 35,216 L 35,96 C 35,68.836703 56.836703,47 84,47 z"
         id="rect4040"
         inkscape:connector-curvature="0" /></g></g></svg>
