<?xml version="1.0" encoding="UTF-8" standalone="no"?>
<!-- Created with Inkscape (http://www.inkscape.org/) -->

<svg
   inkscape:export-ydpi="90.000000"
   inkscape:export-xdpi="90.000000"
   width="480"
   height="300"
   id="svg11300"
   sodipodi:version="0.32"
   inkscape:version="1.2.2 (b0a8486541, 2022-12-01)"
   sodipodi:docname="localsend.svg"
   inkscape:output_extension="org.inkscape.output.svg.inkscape"
   version="1.0"
   style="display:inline;enable-background:new"
   inkscape:export-filename="/home/sam/moka-next-template.png"
   xml:space="preserve"
   xmlns:inkscape="http://www.inkscape.org/namespaces/inkscape"
   xmlns:sodipodi="http://sodipodi.sourceforge.net/DTD/sodipodi-0.dtd"
   xmlns:xlink="http://www.w3.org/1999/xlink"
   xmlns="http://www.w3.org/2000/svg"
   xmlns:svg="http://www.w3.org/2000/svg"
   xmlns:rdf="http://www.w3.org/1999/02/22-rdf-syntax-ns#"
   xmlns:cc="http://creativecommons.org/ns#"
   xmlns:dc="http://purl.org/dc/elements/1.1/"><sodipodi:namedview
     stroke="#ef2929"
     fill="#f57900"
     id="base"
     pagecolor="#b2b2b2"
     bordercolor="#666666"
     borderopacity="0.25490196"
     inkscape:pageopacity="0"
     inkscape:pageshadow="2"
     inkscape:zoom="2.0000001"
     inkscape:cx="242.49999"
     inkscape:cy="123.74999"
     inkscape:current-layer="layer6"
     showgrid="false"
     inkscape:grid-bbox="true"
     inkscape:document-units="px"
     inkscape:showpageshadow="false"
     inkscape:window-width="1920"
     inkscape:window-height="1008"
     inkscape:window-x="0"
     inkscape:window-y="0"
     width="400px"
     height="300px"
     inkscape:snap-nodes="true"
     inkscape:snap-bbox="true"
     gridtolerance="10000"
     inkscape:object-nodes="true"
     inkscape:snap-grids="true"
     showguides="true"
     inkscape:guide-bbox="true"
     inkscape:window-maximized="1"
     inkscape:bbox-nodes="true"
     inkscape:bbox-paths="true"
     inkscape:snap-bbox-edge-midpoints="true"
     inkscape:snap-bbox-midpoints="true"
     inkscape:pagecheckerboard="0"
     inkscape:deskcolor="#d1d1d1"><inkscape:grid
       spacingy="1px"
       spacingx="1px"
       id="grid5883"
       type="xygrid"
       enabled="true"
       visible="true"
       empspacing="4"
       snapvisiblegridlinesonly="true"
       dotted="false"
       color="#000000"
       opacity="0.1254902"
       empcolor="#203ef3"
       empopacity="0.36470588"
       originx="0"
       originy="0"
       units="px" /><inkscape:grid
       type="xygrid"
       id="grid11592"
       empspacing="8"
       visible="true"
       enabled="false"
       spacingx="0.5px"
       spacingy="0.5px"
       color="#ff0000"
       opacity="0.1254902"
       empcolor="#ff0000"
       empopacity="0.25098039"
       snapvisiblegridlinesonly="true"
       dotted="true"
       originx="0"
       originy="0"
       units="px" /></sodipodi:namedview><defs
     id="defs3"><linearGradient
       id="linearGradient1014"><stop
         style="stop-color:#008080;stop-opacity:1;"
         offset="0"
         id="stop1010" /><stop
         style="stop-color:#00b0b0;stop-opacity:1;"
         offset="1"
         id="stop1012" /></linearGradient><linearGradient
       id="linearGradient1008"><stop
         style="stop-color:#008080;stop-opacity:1;"
         offset="0"
         id="stop1004" /><stop
         style="stop-color:#00b0b0;stop-opacity:1;"
         offset="1"
         id="stop1006" /></linearGradient><linearGradient
       id="linearGradient1002"><stop
         style="stop-color:#008080;stop-opacity:1;"
         offset="0"
         id="stop998" /><stop
         style="stop-color:#00b0b0;stop-opacity:1;"
         offset="1"
         id="stop1000" /></linearGradient><linearGradient
       id="linearGradient996"><stop
         style="stop-color:#008080;stop-opacity:1;"
         offset="0"
         id="stop992" /><stop
         style="stop-color:#00b0b0;stop-opacity:1;"
         offset="1"
         id="stop994" /></linearGradient><linearGradient
       id="linearGradient990"><stop
         style="stop-color:#008080;stop-opacity:1;"
         offset="0"
         id="stop986" /><stop
         style="stop-color:#00b0b0;stop-opacity:1;"
         offset="1"
         id="stop988" /></linearGradient><linearGradient
       id="linearGradient984"><stop
         style="stop-color:#008080;stop-opacity:1;"
         offset="0"
         id="stop980" /><stop
         style="stop-color:#00b0b0;stop-opacity:1;"
         offset="1"
         id="stop982" /></linearGradient><linearGradient
       id="linearGradient978"><stop
         style="stop-color:#008080;stop-opacity:1;"
         offset="0"
         id="stop974" /><stop
         style="stop-color:#00b0b0;stop-opacity:1;"
         offset="1"
         id="stop976" /></linearGradient><linearGradient
       id="outerBackgroundGradient"><stop
         style="stop-color:#7469b3;stop-opacity:1;"
         offset="0"
         id="stop3864-8-6" /><stop
         style="stop-color:#a6afe2;stop-opacity:1;"
         offset="1"
         id="stop3866-9-1" /></linearGradient><linearGradient
       inkscape:collect="always"
       xlink:href="#outerBackgroundGradient"
       id="linearGradient4097"
       gradientUnits="userSpaceOnUse"
       x1="264"
       y1="280.00003"
       x2="264"
       y2="40.00005"
       gradientTransform="matrix(0.06666667,0,0,0.06666667,414.4,137.33333)" /><linearGradient
       inkscape:collect="always"
       xlink:href="#outerBackgroundGradient"
       id="linearGradient4101"
       gradientUnits="userSpaceOnUse"
       gradientTransform="matrix(0.0875,0,0,0.0875,414.9,97.5)"
       x1="286.85715"
       y1="302.85715"
       x2="286.85715"
       y2="28.571428" /><linearGradient
       inkscape:collect="always"
       xlink:href="#outerBackgroundGradient"
       id="linearGradient4153"
       gradientUnits="userSpaceOnUse"
       gradientTransform="matrix(0.11931818,0,0,0.11931818,414.13636,48.22727)"
       x1="283.80957"
       y1="299.80954"
       x2="283.80957"
       y2="31.61907" /><linearGradient
       inkscape:collect="always"
       xlink:href="#outerBackgroundGradient"
       id="linearGradient4869"
       gradientUnits="userSpaceOnUse"
       gradientTransform="matrix(0.175,0,0,-0.175,286.79999,-215.99997)"
       x1="281.14291"
       y1="297.14304"
       x2="281.14291"
       y2="22.857315" /><clipPath
       clipPathUnits="userSpaceOnUse"
       id="clipPath4891"><rect
         ry="9"
         y="223"
         x="307"
         height="42"
         width="42"
         id="rect4893"
         style="color:#bebebe;fill:url(#linearGradient4895);fill-opacity:1;fill-rule:nonzero;stroke:none;stroke-width:0;marker:none;visibility:visible;display:inline;overflow:visible;enable-background:accumulate"
         transform="matrix(0,1,-1,0,0,0)" /></clipPath><linearGradient
       inkscape:collect="always"
       xlink:href="#outerBackgroundGradient"
       id="linearGradient4895"
       gradientUnits="userSpaceOnUse"
       gradientTransform="matrix(0.175,0,0,0.175,302.79999,215.99997)"
       x1="144.00006"
       y1="280.00018"
       x2="144.00006"
       y2="40.000172" /><clipPath
       clipPathUnits="userSpaceOnUse"
       id="clipPath4044"><rect
         ry="4"
         y="85"
         x="433"
         height="22"
         width="22"
         id="rect4046"
         style="color:#bebebe;fill:url(#linearGradient4048);fill-opacity:1;fill-rule:nonzero;stroke:none;stroke-width:0;marker:none;visibility:visible;display:inline;overflow:visible;enable-background:accumulate" /></clipPath><linearGradient
       inkscape:collect="always"
       xlink:href="#outerBackgroundGradient"
       id="linearGradient4048"
       gradientUnits="userSpaceOnUse"
       gradientTransform="matrix(0.0875,0,0,0.0875,430.9,81.499996)"
       x1="149.71428"
       y1="291.42862"
       x2="149.71428"
       y2="40.000046" /><clipPath
       clipPathUnits="userSpaceOnUse"
       id="clipPath4089"><rect
         style="color:#bebebe;fill:url(#linearGradient4093);fill-opacity:1;fill-rule:nonzero;stroke:none;stroke-width:0;marker:none;visibility:visible;display:inline;overflow:visible;enable-background:accumulate"
         id="rect4091"
         width="30"
         height="30"
         x="433"
         y="37"
         ry="6" /></clipPath><linearGradient
       inkscape:collect="always"
       xlink:href="#outerBackgroundGradient"
       id="linearGradient4093"
       gradientUnits="userSpaceOnUse"
       gradientTransform="matrix(0.11931818,0,0,0.11931818,430.13636,32.227267)"
       x1="149.71432"
       y1="291.42862"
       x2="149.71432"
       y2="40.00005" /><clipPath
       clipPathUnits="userSpaceOnUse"
       id="clipPath3855"><rect
         style="color:#bebebe;fill:url(#linearGradient3859);fill-opacity:1;fill-rule:nonzero;stroke:none;stroke-width:0;marker:none;visibility:visible;display:inline;overflow:visible;enable-background:accumulate"
         id="rect3857"
         width="16"
         height="16"
         x="304"
         y="212"
         ry="3"
         transform="matrix(0,1,-1,0,0,0)" /></clipPath><linearGradient
       inkscape:collect="always"
       xlink:href="#outerBackgroundGradient"
       id="linearGradient3859"
       gradientUnits="userSpaceOnUse"
       gradientTransform="matrix(0.06666667,0,0,0.06666667,302.4,209.33333)"
       x1="144"
       y1="280.00003"
       x2="144"
       y2="40.00005" /><clipPath
       clipPathUnits="userSpaceOnUse"
       id="clipPath3862"><rect
         ry="50"
         y="46"
         x="34"
         height="220"
         width="220"
         id="rect3864"
         style="color:#bebebe;fill:url(#linearGradient3866);fill-opacity:1;fill-rule:nonzero;stroke:none;stroke-width:0;marker:none;visibility:visible;display:inline;overflow:visible;enable-background:accumulate" /></clipPath><linearGradient
       inkscape:collect="always"
       xlink:href="#outerBackgroundGradient"
       id="linearGradient3866"
       gradientUnits="userSpaceOnUse"
       gradientTransform="translate(0,-4)"
       x1="144"
       y1="280"
       x2="144"
       y2="40" /><linearGradient
       inkscape:collect="always"
       xlink:href="#outerBackgroundGradient"
       id="linearGradient3876"
       gradientUnits="userSpaceOnUse"
       gradientTransform="translate(0,-4)"
       x1="272"
       y1="288"
       x2="272"
       y2="32" /><clipPath
       clipPathUnits="userSpaceOnUse"
       id="clipPath4187"><rect
         ry="12.5"
         y="142"
         x="290"
         height="60"
         width="60"
         id="rect4189"
         style="color:#bebebe;fill:url(#linearGradient4191);fill-opacity:1;fill-rule:nonzero;stroke:none;stroke-width:0;marker:none;visibility:visible;display:inline;overflow:visible;enable-background:accumulate" /></clipPath><linearGradient
       inkscape:collect="always"
       xlink:href="#outerBackgroundGradient"
       id="linearGradient4191"
       gradientUnits="userSpaceOnUse"
       x1="352"
       y1="204"
       x2="352"
       y2="140" /><linearGradient
       inkscape:collect="always"
       xlink:href="#outerBackgroundGradient"
       id="linearGradient4197"
       gradientUnits="userSpaceOnUse"
       x1="384"
       y1="124"
       x2="384"
       y2="28" /><linearGradient
       inkscape:collect="always"
       xlink:href="#outerBackgroundGradient"
       id="linearGradient4199"
       gradientUnits="userSpaceOnUse"
       x1="352"
       y1="204"
       x2="352"
       y2="140" /><clipPath
       clipPathUnits="userSpaceOnUse"
       id="clipPath4346"><rect
         style="color:#bebebe;fill:url(#linearGradient4350);fill-opacity:1;fill-rule:nonzero;stroke:none;stroke-width:0;marker:none;visibility:visible;display:inline;overflow:visible;enable-background:accumulate"
         id="rect4348"
         width="88"
         height="88"
         x="292"
         y="32"
         ry="18" /></clipPath><linearGradient
       inkscape:collect="always"
       xlink:href="#outerBackgroundGradient"
       id="linearGradient4350"
       gradientUnits="userSpaceOnUse"
       x1="384"
       y1="124"
       x2="384"
       y2="28" /><clipPath
       clipPathUnits="userSpaceOnUse"
       id="clipPath3871"><rect
         ry="5"
         y="101"
         x="417"
         height="22"
         width="22"
         id="rect3873"
         style="color:#bebebe;fill:url(#linearGradient3875);fill-opacity:1;fill-rule:nonzero;stroke:none;stroke-width:0;marker:none;visibility:visible;display:inline;overflow:visible;enable-background:accumulate" /></clipPath><linearGradient
       inkscape:collect="always"
       xlink:href="#outerBackgroundGradient"
       id="linearGradient3875"
       gradientUnits="userSpaceOnUse"
       gradientTransform="matrix(0.0875,0,0,0.0875,414.9,97.5)"
       x1="286.85715"
       y1="302.85715"
       x2="286.85715"
       y2="28.571428" /><clipPath
       clipPathUnits="userSpaceOnUse"
       id="clipPath3881"><rect
         style="color:#bebebe;fill:url(#linearGradient3885);fill-opacity:1;fill-rule:nonzero;stroke:none;stroke-width:0;marker:none;visibility:visible;display:inline;overflow:visible;enable-background:accumulate"
         id="rect3883"
         width="30"
         height="30"
         x="417"
         y="53"
         ry="7" /></clipPath><linearGradient
       inkscape:collect="always"
       xlink:href="#outerBackgroundGradient"
       id="linearGradient3885"
       gradientUnits="userSpaceOnUse"
       gradientTransform="matrix(0.11931818,0,0,0.11931818,414.13636,48.22727)"
       x1="283.80957"
       y1="299.80954"
       x2="283.80957"
       y2="31.61907" /><linearGradient
       inkscape:collect="always"
       xlink:href="#outerBackgroundGradient"
       id="linearGradient4235"
       gradientUnits="userSpaceOnUse"
       x1="384"
       y1="124"
       x2="384"
       y2="28" /><linearGradient
       inkscape:collect="always"
       xlink:href="#linearGradient978"
       id="linearGradient4254"
       x1="35"
       y1="156"
       x2="253"
       y2="156"
       gradientUnits="userSpaceOnUse"
       gradientTransform="matrix(0,-1,1,0,-12,300)" /><linearGradient
       inkscape:collect="always"
       xlink:href="#linearGradient1002"
       id="linearGradient4256"
       x1="417"
       y1="148"
       x2="431"
       y2="148"
       gradientUnits="userSpaceOnUse"
       gradientTransform="matrix(0,-1,1,0,276,572)" /><linearGradient
       inkscape:collect="always"
       xlink:href="#outerBackgroundGradient"
       id="linearGradient4258"
       x1="418"
       y1="112"
       x2="438"
       y2="112"
       gradientUnits="userSpaceOnUse"
       gradientTransform="matrix(0,-1,1,0,316,540)" /><linearGradient
       inkscape:collect="always"
       xlink:href="#linearGradient1014"
       id="linearGradient4260"
       x1="418"
       y1="68"
       x2="446"
       y2="68"
       gradientUnits="userSpaceOnUse"
       gradientTransform="matrix(0,-1,1,0,364,500)" /><linearGradient
       inkscape:collect="always"
       xlink:href="#linearGradient996"
       id="linearGradient4262"
       x1="292"
       y1="244"
       x2="332"
       y2="244"
       gradientUnits="userSpaceOnUse"
       gradientTransform="matrix(0,-1,1,0,68,556)" /><linearGradient
       inkscape:collect="always"
       xlink:href="#linearGradient984"
       id="linearGradient4264"
       x1="293"
       y1="76"
       x2="379"
       y2="76"
       gradientUnits="userSpaceOnUse"
       gradientTransform="matrix(0,-1,1,0,260,412)" /><linearGradient
       inkscape:collect="always"
       xlink:href="#linearGradient990"
       id="linearGradient4266"
       x1="291"
       y1="172"
       x2="349"
       y2="172"
       gradientUnits="userSpaceOnUse"
       gradientTransform="matrix(0,-1,1,0,148,492)" /><linearGradient
       inkscape:collect="always"
       xlink:href="#linearGradient1008"
       id="linearGradient3870"
       gradientUnits="userSpaceOnUse"
       gradientTransform="matrix(0,-1,1,0,316,540)"
       x1="418"
       y1="112"
       x2="438"
       y2="112" /><clipPath
       id="clip0_795_323"><rect
         width="86"
         height="129"
         fill="white"
         id="rect1017" /></clipPath><clipPath
       id="clip0_795_323-3"><rect
         width="86"
         height="129"
         fill="#ffffff"
         id="rect1017-6"
         x="0"
         y="0" /></clipPath><clipPath
       id="clip0_795_323-1"><rect
         width="86"
         height="129"
         fill="#ffffff"
         id="rect1017-2"
         x="0"
         y="0" /></clipPath><clipPath
       id="clip0_795_323-3-7"><rect
         width="86"
         height="129"
         fill="#ffffff"
         id="rect1017-6-0"
         x="0"
         y="0" /></clipPath><clipPath
       id="clip0_795_323-1-4"><rect
         width="86"
         height="129"
         fill="#ffffff"
         id="rect1017-2-5"
         x="0"
         y="0" /></clipPath><clipPath
       id="clip0_795_323-3-7-0"><rect
         width="86"
         height="129"
         fill="#ffffff"
         id="rect1017-6-0-3"
         x="0"
         y="0" /></clipPath><clipPath
       id="clip0_795_323-1-4-4"><rect
         width="86"
         height="129"
         fill="#ffffff"
         id="rect1017-2-5-3"
         x="0"
         y="0" /></clipPath><clipPath
       id="clip0_795_323-3-7-0-1"><rect
         width="86"
         height="129"
         fill="#ffffff"
         id="rect1017-6-0-3-4"
         x="0"
         y="0" /></clipPath><clipPath
       id="clip0_795_323-1-4-4-7"><rect
         width="86"
         height="129"
         fill="#ffffff"
         id="rect1017-2-5-3-1"
         x="0"
         y="0" /></clipPath><clipPath
       id="clip0_795_323-3-7-0-1-7"><rect
         width="86"
         height="129"
         fill="#ffffff"
         id="rect1017-6-0-3-4-2"
         x="0"
         y="0" /></clipPath><clipPath
       id="clip0_795_323-1-4-4-7-2"><rect
         width="86"
         height="129"
         fill="#ffffff"
         id="rect1017-2-5-3-1-9"
         x="0"
         y="0" /></clipPath><clipPath
       id="clip0_795_323-3-7-0-1-7-3"><rect
         width="86"
         height="129"
         fill="#ffffff"
         id="rect1017-6-0-3-4-2-9"
         x="0"
         y="0" /></clipPath><clipPath
       id="clip0_795_323-1-4-4-7-2-8"><rect
         width="86"
         height="129"
         fill="#ffffff"
         id="rect1017-2-5-3-1-9-4"
         x="0"
         y="0" /></clipPath><clipPath
       id="clip0_795_323-3-7-0-1-7-3-8"><rect
         width="86"
         height="129"
         fill="#ffffff"
         id="rect1017-6-0-3-4-2-9-1"
         x="0"
         y="0" /></clipPath><clipPath
       id="clip0_798_330"><rect
         width="24"
         height="24"
         fill="white"
         id="rect1233" /></clipPath></defs><metadata
     id="metadata4"><rdf:RDF><cc:Work
         rdf:about=""><dc:format>image/svg+xml</dc:format><dc:type
           rdf:resource="http://purl.org/dc/dcmitype/StillImage" /><dc:creator><cc:Agent><dc:title>Sam Hewitt</dc:title></cc:Agent></dc:creator><dc:source /><cc:license
           rdf:resource="" /><dc:subject><rdf:Bag /></dc:subject><dc:date /><dc:rights><cc:Agent><dc:title /></cc:Agent></dc:rights><dc:publisher><cc:Agent><dc:title /></cc:Agent></dc:publisher><dc:identifier /><dc:relation /><dc:language /><dc:coverage /><dc:description /><dc:contributor><cc:Agent><dc:title /></cc:Agent></dc:contributor></cc:Work><cc:Work
         rdf:about=""><dc:format>image/svg+xml</dc:format><dc:type
           rdf:resource="http://purl.org/dc/dcmitype/StillImage" /></cc:Work></rdf:RDF></metadata><g
     style="display:inline"
     inkscape:groupmode="layer"
     inkscape:label="Icon"
     id="layer1"><g
       style="display:none"
       inkscape:label="Baseplate"
       id="layer7"
       inkscape:groupmode="layer"><text
         y="19.745117"
         xml:space="preserve"
         x="15.006836"
         style="font-style:normal;font-variant:normal;font-weight:normal;font-stretch:normal;font-size:18px;font-family:'DejaVu Sans';-inkscape-font-specification:'DejaVu Sans';display:inline;fill:#000000;fill-opacity:1;stroke:none;enable-background:new"
         inkscape:label="context"
         id="context"><tspan
           style="font-style:normal;font-variant:normal;font-weight:normal;font-stretch:normal;font-family:'DejaVu Sans';-inkscape-font-specification:'DejaVu Sans'"
           y="19.745117"
           x="15.006836"
           sodipodi:role="line"
           id="tspan3933">apps</tspan></text><text
         y="19.745117"
         xml:space="preserve"
         x="122.48828"
         style="font-style:normal;font-variant:normal;font-weight:bold;font-stretch:normal;font-size:18px;line-height:125%;font-family:'DejaVu Sans';-inkscape-font-specification:'DejaVu Sans Bold';text-align:start;writing-mode:lr-tb;text-anchor:start;display:inline;fill:#000000;fill-opacity:1;stroke:none;enable-background:new"
         inkscape:label="icon-name"
         id="icon-name"><tspan
           style="font-style:normal;font-variant:normal;font-weight:bold;font-stretch:normal;font-size:18px;font-family:'DejaVu Sans';-inkscape-font-specification:'DejaVu Sans Bold'"
           y="19.745117"
           x="122.48828"
           sodipodi:role="line"
           id="tspan3937">localsend</tspan></text><rect
         style="display:inline;overflow:visible;visibility:visible;fill:#eeeeec;fill-opacity:1;fill-rule:nonzero;stroke:none;stroke-width:2;marker:none;enable-background:accumulate"
         id="rect16x16"
         width="16"
         height="16"
         x="416"
         y="140"
         inkscape:label="16x16" /><rect
         style="display:inline;overflow:visible;visibility:visible;fill:#d4d4d4;fill-opacity:1;fill-rule:nonzero;stroke:none;stroke-width:2;marker:none;enable-background:accumulate"
         id="rect24x24"
         width="24"
         height="24"
         x="416"
         y="100"
         inkscape:label="24x24" /><rect
         style="display:inline;overflow:visible;visibility:visible;fill:#eeeeec;fill-opacity:1;fill-rule:nonzero;stroke:none;stroke-width:2;marker:none;enable-background:accumulate"
         id="rect32x32"
         width="32"
         height="32"
         x="416"
         y="52"
         inkscape:label="32x32" /><rect
         inkscape:label="22x22"
         y="101"
         x="417"
         height="22"
         width="22"
         id="rect22x22"
         style="display:inline;overflow:visible;visibility:visible;fill:#eeeeec;fill-opacity:1;fill-rule:nonzero;stroke:none;stroke-width:2;marker:none;enable-background:accumulate" /><rect
         inkscape:label="48x48"
         y="220"
         x="288"
         height="48"
         width="48"
         id="rect48x48"
         style="display:inline;overflow:visible;visibility:visible;fill:#eeeeec;fill-opacity:1;fill-rule:nonzero;stroke:none;stroke-width:2;marker:none;enable-background:accumulate" /><rect
         style="display:inline;overflow:visible;visibility:visible;fill:#eeeeec;fill-opacity:1;fill-rule:nonzero;stroke:none;stroke-width:2;marker:none;enable-background:accumulate"
         id="rect256x256"
         width="256"
         height="256"
         x="16"
         y="28"
         inkscape:label="256x256" /><rect
         style="display:inline;overflow:visible;visibility:visible;fill:#eeeeec;fill-opacity:1;fill-rule:nonzero;stroke:none;stroke-width:2;marker:none;enable-background:accumulate"
         id="rect64x64"
         width="64"
         height="64"
         x="288"
         y="140"
         inkscape:label="64x64" /><rect
         style="display:inline;overflow:visible;visibility:visible;fill:#eeeeec;fill-opacity:1;fill-rule:nonzero;stroke:none;stroke-width:2;marker:none;enable-background:accumulate"
         id="rect96x96"
         width="96"
         height="96"
         x="288"
         y="28"
         inkscape:label="96x96" /></g><g
       inkscape:groupmode="layer"
       id="layer4"
       inkscape:label="Shadow"
       style="display:inline"
       sodipodi:insensitive="true"><rect
         ry="50"
         y="47"
         x="34"
         height="220"
         width="220"
         id="rect4114"
         style="opacity:0.1;color:#bebebe;fill:#000000;fill-opacity:1;fill-rule:nonzero;stroke:none;stroke-width:0;marker:none;visibility:visible;display:inline;overflow:visible;enable-background:accumulate" /><rect
         style="opacity:0.1;color:#bebebe;fill:#000000;fill-opacity:1;fill-rule:nonzero;stroke:none;stroke-width:0;marker:none;visibility:visible;display:inline;overflow:visible;enable-background:accumulate"
         id="rect4120"
         width="30"
         height="30"
         x="417"
         y="54"
         ry="7" /><rect
         transform="scale(1,-1)"
         ry="9"
         y="-266"
         x="291"
         height="42"
         width="42"
         id="rect4122"
         style="opacity:0.1;color:#bebebe;fill:#000000;fill-opacity:1;fill-rule:nonzero;stroke:none;stroke-width:0;marker:none;visibility:visible;display:inline;overflow:visible;enable-background:accumulate" /><rect
         style="opacity:0.1;color:#bebebe;fill:#000000;fill-opacity:1;fill-rule:nonzero;stroke:none;stroke-width:0;marker:none;visibility:visible;display:inline;overflow:visible;enable-background:accumulate"
         id="rect4124"
         width="88"
         height="88"
         x="292"
         y="33"
         ry="18" /><rect
         ry="12.5"
         y="143"
         x="290"
         height="60"
         width="60"
         id="rect4126"
         style="opacity:0.1;color:#bebebe;fill:#000000;fill-opacity:1;fill-rule:nonzero;stroke:none;stroke-width:0;marker:none;visibility:visible;display:inline;overflow:visible;enable-background:accumulate" /><path
         id="path4268"
         d="m 422,101 c -2.77,0 -5,2.23 -5,5 l 0,12 c 0,2.77 2.23,5 5,5 l 12,0 c 2.77,0 5,-2.23 5,-5 l 0,-12 c 0,-2.77 -2.23,-5 -5,-5 z"
         style="opacity:0.1;color:#bebebe;fill:#000000;fill-opacity:1;fill-rule:nonzero;stroke:none;stroke-width:0;marker:none;visibility:visible;display:inline;overflow:visible;enable-background:accumulate"
         inkscape:connector-curvature="0"
         sodipodi:nodetypes="sssssssss" /><path
         id="path4270"
         d="m 419,140 c -1.662,0 -3,1.338 -3,3 l 0,10 c 0,1.662 1.338,3 3,3 l 10,0 c 1.662,0 3,-1.338 3,-3 l 0,-10 c 0,-1.662 -1.338,-3 -3,-3 z"
         style="opacity:0.1;color:#bebebe;fill:#000000;fill-opacity:1;fill-rule:nonzero;stroke:none;stroke-width:0;marker:none;visibility:visible;display:inline;overflow:visible;enable-background:accumulate"
         inkscape:connector-curvature="0"
         sodipodi:nodetypes="sssssssss" /></g><g
       inkscape:groupmode="layer"
       id="layer2"
       inkscape:label="Background"
       style="display:inline"><path
         style="color:#bebebe;fill:url(#linearGradient4254);fill-opacity:1;fill-rule:nonzero;stroke:none;stroke-width:2;marker:none;visibility:visible;display:inline;overflow:visible;enable-background:accumulate"
         d="M 84 46.5 C 56.568735 46.5 34.5 68.568732 34.5 96 L 34.5 216 C 34.5 243.43127 56.568735 265.5 84 265.5 L 204 265.5 C 231.43127 265.5 253.5 243.43127 253.5 216 L 253.5 96 C 253.5 68.568732 231.43127 46.5 204 46.5 L 84 46.5 z "
         id="path4200" /><path
         style="color:#bebebe;fill:url(#linearGradient4256);fill-opacity:1;fill-rule:nonzero;stroke:none;stroke-width:2;marker:none;visibility:visible;display:inline;overflow:visible;enable-background:accumulate"
         d="M 419 140.5 C 417.6156 140.5 416.5 141.6156 416.5 143 L 416.5 153 C 416.5 154.3844 417.6156 155.5 419 155.5 L 429 155.5 C 430.3844 155.5 431.5 154.3844 431.5 153 L 431.5 143 C 431.5 141.6156 430.3844 140.5 429 140.5 L 419 140.5 z "
         id="path4202" /><path
         style="color:#bebebe;fill:url(#linearGradient3870);fill-opacity:1;fill-rule:nonzero;stroke:none;stroke-width:2;marker:none;visibility:visible;display:inline;overflow:visible;enable-background:accumulate"
         d="M 422 101.5 C 419.50301 101.5 417.5 103.50301 417.5 106 L 417.5 118 C 417.5 120.49699 419.50301 122.5 422 122.5 L 434 122.5 C 436.49699 122.5 438.5 120.49699 438.5 118 L 438.5 106 C 438.5 103.50301 436.49699 101.5 434 101.5 L 422 101.5 z "
         id="path4204" /><path
         style="color:#bebebe;fill:url(#linearGradient4260);fill-opacity:1;fill-rule:nonzero;stroke:none;stroke-width:2;marker:none;visibility:visible;display:inline;overflow:visible;enable-background:accumulate"
         d="M 424 53.5 C 420.39346 53.5 417.5 56.393464 417.5 60 L 417.5 76 C 417.5 79.606536 420.39346 82.5 424 82.5 L 440 82.5 C 443.60654 82.5 446.5 79.606536 446.5 76 L 446.5 60 C 446.5 56.393464 443.60654 53.5 440 53.5 L 424 53.5 z "
         id="path4206" /><path
         style="color:#bebebe;fill:url(#linearGradient4262);fill-opacity:1;fill-rule:nonzero;stroke:none;stroke-width:2;marker:none;visibility:visible;display:inline;overflow:visible;enable-background:accumulate"
         d="M 300 223.5 C 295.28469 223.5 291.5 227.28469 291.5 232 L 291.5 256 C 291.5 260.71531 295.28469 264.5 300 264.5 L 324 264.5 C 328.71531 264.5 332.5 260.71531 332.5 256 L 332.5 232 C 332.5 227.28469 328.71531 223.5 324 223.5 L 300 223.5 z "
         id="path4208" /><path
         style="color:#bebebe;fill:url(#linearGradient4264);fill-opacity:1;fill-rule:nonzero;stroke:none;stroke-width:2;marker:none;visibility:visible;display:inline;overflow:visible;enable-background:accumulate"
         d="M 310 32.5 C 300.29745 32.5 292.5 40.297452 292.5 50 L 292.5 102 C 292.5 111.70255 300.29745 119.5 310 119.5 L 362 119.5 C 371.70255 119.5 379.5 111.70255 379.5 102 L 379.5 50 C 379.5 40.297452 371.70255 32.5 362 32.5 L 310 32.5 z "
         id="path4210" /><path
         style="color:#bebebe;fill:url(#linearGradient4266);fill-opacity:1;fill-rule:nonzero;stroke:none;stroke-width:2;marker:none;visibility:visible;display:inline;overflow:visible;enable-background:accumulate"
         d="M 302.5 142.5 C 295.84498 142.5 290.5 147.84498 290.5 154.5 L 290.5 189.5 C 290.5 196.15502 295.84498 201.5 302.5 201.5 L 337.5 201.5 C 344.15502 201.5 349.5 196.15502 349.5 189.5 L 349.5 154.5 C 349.5 147.84498 344.15502 142.5 337.5 142.5 L 302.5 142.5 z "
         id="path4212" /></g><g
       inkscape:groupmode="layer"
       id="layer6"
       inkscape:label="Symbols"
       style="display:inline"><g
         id="g1345"
         transform="matrix(1.1974718,0,0,1.1974718,-28.435942,-30.64978)"><g
           style="display:inline;fill:#000000;fill-opacity:0.19642;enable-background:new"
           id="g1256-3"
           transform="matrix(5.6601416,0,0,5.6601416,76.078288,88.078275)"><path
             d="M 5.538,12.015 C 5.53959,10.3024 6.22117,8.66051 7.43292,7.45027 8.64466,6.24002 10.2874,5.56048 12,5.56101 c 1.7126,-5.3e-4 3.3553,0.67901 4.5671,1.88926 1.2117,1.21024 1.8933,2.85213 1.8949,4.56473 -0.0226,1.6987 -0.7135,3.3201 -1.9229,4.5131 C 15.3296,17.7211 13.6988,18.3897 12,18.389 10.3013,18.3894 8.67084,17.7208 7.46159,16.5278 6.25233,15.3348 5.56061,13.7135 5.538,12.015 Z M 22.53,6.26201 C 22.1407,6.51585 21.67,6.6136 21.2118,6.53575 20.7536,6.4579 20.3416,6.21018 20.058,5.84201 19.5166,5.13796 18.8856,4.50763 18.181,3.96701 17.8127,3.6842 17.5647,3.27277 17.4866,2.81501 c -0.078,-0.45776 0.0196,-0.92812 0.2734,-1.317 2.0109,1.10182 3.6656,2.75451 4.77,4.764 z M 3.943,5.84201 C 3.65938,6.21018 3.24738,6.4579 2.78919,6.53575 2.331,6.6136 1.86031,6.51585 1.471,6.26201 2.57535,4.25252 4.23012,2.59983 6.241,1.49801 6.49489,1.88678 6.59268,2.35705 6.51481,2.81481 6.43694,3.27256 6.18916,3.68405 5.821,3.96701 5.11602,4.50756 4.48468,5.13789 3.943,5.84201 Z M 24,12.015 c 0.001,1.14 -0.16,2.275 -0.48,3.37 -0.4549,-0.0949 -0.8572,-0.3581 -1.1265,-0.7369 -0.2692,-0.3788 -0.3854,-0.8453 -0.3255,-1.3061 0.115,-0.88 0.115,-1.773 0,-2.654 -0.06,-0.4607 0.0561,-0.92705 0.3252,-1.30582 0.269,-0.37878 0.6711,-0.64205 1.1258,-0.73717 0.32,1.095 0.482,2.22999 0.481,3.36999 z M 7.16924e-7,12.015 C 7.16924e-7,10.875 0.162001,9.74001 0.482001,8.64501 0.936558,8.74035 1.3384,9.00371 1.60721,9.38246 1.87602,9.76121 1.99201,10.2275 1.932,10.688 c -0.115,0.88 -0.115,1.773 0,2.654 0.06001,0.4606 -0.05598,0.9268 -0.32479,1.3056 C 1.3384,15.0263 0.936558,15.2897 0.482001,15.385 0.161907,14.29 -3.93641e-4,13.1549 7.16924e-7,12.014 Z M 17.76,22.533 c -0.2542,-0.3888 -0.3521,-0.8593 -0.2743,-1.3173 0.0779,-0.458 0.3259,-0.8697 0.6943,-1.1527 0.705,-0.5405 1.3363,-1.1709 1.878,-1.875 0.2836,-0.3682 0.6956,-0.6159 1.1538,-0.6937 0.4582,-0.0779 0.9289,0.0199 1.3182,0.2737 -1.1042,2.0099 -2.759,3.6629 -4.77,4.765 z m -11.519,0 c -2.01088,-1.1018 -3.66565,-2.7545 -4.77,-4.764 0.38931,-0.2538 0.86,-0.3516 1.31819,-0.2737 0.45819,0.0778 0.87019,0.3255 1.15381,0.6937 0.54144,0.7037 1.17244,1.3337 1.877,1.874 0.765,0.587 0.948,1.663 0.421,2.47 z M 12.001,24 c -1.1421,0.0014 -2.27857,-0.1602 -3.375,-0.48 0.0958,-0.4549 0.3597,-0.8569 0.739,-1.1257 0.37929,-0.2688 0.846,-0.3846 1.307,-0.3243 0.882,0.115 1.775,0.115 2.657,0 0.4608,-0.0604 0.9274,0.0553 1.3067,0.3239 0.3793,0.2686 0.6433,0.6704 0.7393,1.1251 C 14.279,23.839 13.142,24.001 12,24 Z M 13.507,1.94301 c -0.945,-0.136 -1.888,-0.1 -2.834,-0.013 C 10.212,1.98966 9.7455,1.87361 9.36621,1.60494 8.98691,1.33626 8.72266,0.934657 8.626,0.480007 9.72178,0.160401 10.8576,-0.00122726 11.999,7.01581e-6 h 0.002 C 13.143,-9.92984e-4 14.278,0.160007 15.374,0.480007 15.2844,0.904433 15.0482,1.28373 14.7068,1.55128 14.3653,1.81883 13.9405,1.95753 13.507,1.94301 Z"
             fill="#000000"
             id="path1229-6"
             clip-path="url(#clipPath1249)"
             style="fill:#000000;fill-opacity:0.19642" /></g><g
           style="display:inline;fill:#ffffff;fill-opacity:1;enable-background:new"
           id="g1256"
           transform="matrix(5.6601416,0,0,5.6601416,76.078288,86.500089)"><path
             d="M 5.538,12.015 C 5.53959,10.3024 6.22117,8.66051 7.43292,7.45027 8.64466,6.24002 10.2874,5.56048 12,5.56101 c 1.7126,-5.3e-4 3.3553,0.67901 4.5671,1.88926 1.2117,1.21024 1.8933,2.85213 1.8949,4.56473 -0.0226,1.6987 -0.7135,3.3201 -1.9229,4.5131 C 15.3296,17.7211 13.6988,18.3897 12,18.389 10.3013,18.3894 8.67084,17.7208 7.46159,16.5278 6.25233,15.3348 5.56061,13.7135 5.538,12.015 Z M 22.53,6.26201 C 22.1407,6.51585 21.67,6.6136 21.2118,6.53575 20.7536,6.4579 20.3416,6.21018 20.058,5.84201 19.5166,5.13796 18.8856,4.50763 18.181,3.96701 17.8127,3.6842 17.5647,3.27277 17.4866,2.81501 c -0.078,-0.45776 0.0196,-0.92812 0.2734,-1.317 2.0109,1.10182 3.6656,2.75451 4.77,4.764 z M 3.943,5.84201 C 3.65938,6.21018 3.24738,6.4579 2.78919,6.53575 2.331,6.6136 1.86031,6.51585 1.471,6.26201 2.57535,4.25252 4.23012,2.59983 6.241,1.49801 6.49489,1.88678 6.59268,2.35705 6.51481,2.81481 6.43694,3.27256 6.18916,3.68405 5.821,3.96701 5.11602,4.50756 4.48468,5.13789 3.943,5.84201 Z M 24,12.015 c 0.001,1.14 -0.16,2.275 -0.48,3.37 -0.4549,-0.0949 -0.8572,-0.3581 -1.1265,-0.7369 -0.2692,-0.3788 -0.3854,-0.8453 -0.3255,-1.3061 0.115,-0.88 0.115,-1.773 0,-2.654 -0.06,-0.4607 0.0561,-0.92705 0.3252,-1.30582 0.269,-0.37878 0.6711,-0.64205 1.1258,-0.73717 0.32,1.095 0.482,2.22999 0.481,3.36999 z M 7.16924e-7,12.015 C 7.16924e-7,10.875 0.162001,9.74001 0.482001,8.64501 0.936558,8.74035 1.3384,9.00371 1.60721,9.38246 1.87602,9.76121 1.99201,10.2275 1.932,10.688 c -0.115,0.88 -0.115,1.773 0,2.654 0.06001,0.4606 -0.05598,0.9268 -0.32479,1.3056 C 1.3384,15.0263 0.936558,15.2897 0.482001,15.385 0.161907,14.29 -3.93641e-4,13.1549 7.16924e-7,12.014 Z M 17.76,22.533 c -0.2542,-0.3888 -0.3521,-0.8593 -0.2743,-1.3173 0.0779,-0.458 0.3259,-0.8697 0.6943,-1.1527 0.705,-0.5405 1.3363,-1.1709 1.878,-1.875 0.2836,-0.3682 0.6956,-0.6159 1.1538,-0.6937 0.4582,-0.0779 0.9289,0.0199 1.3182,0.2737 -1.1042,2.0099 -2.759,3.6629 -4.77,4.765 z m -11.519,0 c -2.01088,-1.1018 -3.66565,-2.7545 -4.77,-4.764 0.38931,-0.2538 0.86,-0.3516 1.31819,-0.2737 0.45819,0.0778 0.87019,0.3255 1.15381,0.6937 0.54144,0.7037 1.17244,1.3337 1.877,1.874 0.765,0.587 0.948,1.663 0.421,2.47 z M 12.001,24 c -1.1421,0.0014 -2.27857,-0.1602 -3.375,-0.48 0.0958,-0.4549 0.3597,-0.8569 0.739,-1.1257 0.37929,-0.2688 0.846,-0.3846 1.307,-0.3243 0.882,0.115 1.775,0.115 2.657,0 0.4608,-0.0604 0.9274,0.0553 1.3067,0.3239 0.3793,0.2686 0.6433,0.6704 0.7393,1.1251 C 14.279,23.839 13.142,24.001 12,24 Z M 13.507,1.94301 c -0.945,-0.136 -1.888,-0.1 -2.834,-0.013 C 10.212,1.98966 9.7455,1.87361 9.36621,1.60494 8.98691,1.33626 8.72266,0.934657 8.626,0.480007 9.72178,0.160401 10.8576,-0.00122726 11.999,7.01581e-6 h 0.002 C 13.143,-9.92984e-4 14.278,0.160007 15.374,0.480007 15.2844,0.904433 15.0482,1.28373 14.7068,1.55128 14.3653,1.81883 13.9405,1.95753 13.507,1.94301 Z"
             fill="#000000"
             id="path1229"
             clip-path="url(#clipPath1249)"
             style="fill:#ffffff;fill-opacity:1" /></g></g><g
         id="g1345-7"
         style="display:inline;enable-background:new"
         transform="matrix(0.47526513,0,0,0.47526513,267.56182,2.6973501)"><g
           style="display:inline;fill:#000000;fill-opacity:0.19642;enable-background:new"
           id="g1256-3-5"
           transform="matrix(5.6601416,0,0,5.6601416,76.078288,88.078275)"><path
             d="M 5.538,12.015 C 5.53959,10.3024 6.22117,8.66051 7.43292,7.45027 8.64466,6.24002 10.2874,5.56048 12,5.56101 c 1.7126,-5.3e-4 3.3553,0.67901 4.5671,1.88926 1.2117,1.21024 1.8933,2.85213 1.8949,4.56473 -0.0226,1.6987 -0.7135,3.3201 -1.9229,4.5131 C 15.3296,17.7211 13.6988,18.3897 12,18.389 10.3013,18.3894 8.67084,17.7208 7.46159,16.5278 6.25233,15.3348 5.56061,13.7135 5.538,12.015 Z M 22.53,6.26201 C 22.1407,6.51585 21.67,6.6136 21.2118,6.53575 20.7536,6.4579 20.3416,6.21018 20.058,5.84201 19.5166,5.13796 18.8856,4.50763 18.181,3.96701 17.8127,3.6842 17.5647,3.27277 17.4866,2.81501 c -0.078,-0.45776 0.0196,-0.92812 0.2734,-1.317 2.0109,1.10182 3.6656,2.75451 4.77,4.764 z M 3.943,5.84201 C 3.65938,6.21018 3.24738,6.4579 2.78919,6.53575 2.331,6.6136 1.86031,6.51585 1.471,6.26201 2.57535,4.25252 4.23012,2.59983 6.241,1.49801 6.49489,1.88678 6.59268,2.35705 6.51481,2.81481 6.43694,3.27256 6.18916,3.68405 5.821,3.96701 5.11602,4.50756 4.48468,5.13789 3.943,5.84201 Z M 24,12.015 c 0.001,1.14 -0.16,2.275 -0.48,3.37 -0.4549,-0.0949 -0.8572,-0.3581 -1.1265,-0.7369 -0.2692,-0.3788 -0.3854,-0.8453 -0.3255,-1.3061 0.115,-0.88 0.115,-1.773 0,-2.654 -0.06,-0.4607 0.0561,-0.92705 0.3252,-1.30582 0.269,-0.37878 0.6711,-0.64205 1.1258,-0.73717 0.32,1.095 0.482,2.22999 0.481,3.36999 z M 7.16924e-7,12.015 C 7.16924e-7,10.875 0.162001,9.74001 0.482001,8.64501 0.936558,8.74035 1.3384,9.00371 1.60721,9.38246 1.87602,9.76121 1.99201,10.2275 1.932,10.688 c -0.115,0.88 -0.115,1.773 0,2.654 0.06001,0.4606 -0.05598,0.9268 -0.32479,1.3056 C 1.3384,15.0263 0.936558,15.2897 0.482001,15.385 0.161907,14.29 -3.93641e-4,13.1549 7.16924e-7,12.014 Z M 17.76,22.533 c -0.2542,-0.3888 -0.3521,-0.8593 -0.2743,-1.3173 0.0779,-0.458 0.3259,-0.8697 0.6943,-1.1527 0.705,-0.5405 1.3363,-1.1709 1.878,-1.875 0.2836,-0.3682 0.6956,-0.6159 1.1538,-0.6937 0.4582,-0.0779 0.9289,0.0199 1.3182,0.2737 -1.1042,2.0099 -2.759,3.6629 -4.77,4.765 z m -11.519,0 c -2.01088,-1.1018 -3.66565,-2.7545 -4.77,-4.764 0.38931,-0.2538 0.86,-0.3516 1.31819,-0.2737 0.45819,0.0778 0.87019,0.3255 1.15381,0.6937 0.54144,0.7037 1.17244,1.3337 1.877,1.874 0.765,0.587 0.948,1.663 0.421,2.47 z M 12.001,24 c -1.1421,0.0014 -2.27857,-0.1602 -3.375,-0.48 0.0958,-0.4549 0.3597,-0.8569 0.739,-1.1257 0.37929,-0.2688 0.846,-0.3846 1.307,-0.3243 0.882,0.115 1.775,0.115 2.657,0 0.4608,-0.0604 0.9274,0.0553 1.3067,0.3239 0.3793,0.2686 0.6433,0.6704 0.7393,1.1251 C 14.279,23.839 13.142,24.001 12,24 Z M 13.507,1.94301 c -0.945,-0.136 -1.888,-0.1 -2.834,-0.013 C 10.212,1.98966 9.7455,1.87361 9.36621,1.60494 8.98691,1.33626 8.72266,0.934657 8.626,0.480007 9.72178,0.160401 10.8576,-0.00122726 11.999,7.01581e-6 h 0.002 C 13.143,-9.92984e-4 14.278,0.160007 15.374,0.480007 15.2844,0.904433 15.0482,1.28373 14.7068,1.55128 14.3653,1.81883 13.9405,1.95753 13.507,1.94301 Z"
             fill="#000000"
             id="path1229-6-3"
             clip-path="url(#clipPath1249)"
             style="fill:#000000;fill-opacity:0.19642" /></g><g
           style="display:inline;fill:#ffffff;fill-opacity:1;enable-background:new"
           id="g1256-5"
           transform="matrix(5.6601416,0,0,5.6601416,76.078288,87.683371)"><path
             d="M 5.538,11.461209 C 5.53959,9.7486089 6.22117,8.1067189 7.43292,6.8964789 8.64466,5.6862289 10.2874,5.0066889 12,5.0072189 c 1.7126,-5.3e-4 3.3553,0.67901 4.5671,1.88926 1.2117,1.21024 1.8933,2.85213 1.8949,4.5647301 -0.0226,1.6987 -0.7135,3.3201 -1.9229,4.5131 -1.2095,1.193 -2.8403,1.8616 -4.5391,1.8609 -1.6987,4e-4 -3.32916,-0.6682 -4.53841,-1.8612 -1.20926,-1.193 -1.90098,-2.8143 -1.92359,-4.5128 z M 22.53,5.7082189 c -0.3893,0.25384 -0.86,0.35159 -1.3182,0.27374 -0.4582,-0.07785 -0.8702,-0.32557 -1.1538,-0.69374 -0.5414,-0.70405 -1.1724,-1.33438 -1.877,-1.875 -0.3683,-0.28281 -0.6163,-0.69424 -0.6944,-1.152 -0.078,-0.45776 0.0196,-0.92812 0.2734,-1.31699997 2.0109,1.10181997 3.6656,2.75450997 4.77,4.76399997 z m -18.587,-0.42 c -0.28362,0.36817 -0.69562,0.61589 -1.15381,0.69374 -0.45819,0.07785 -0.92888,-0.0199 -1.31819,-0.27374 1.10435,-2.00949 2.75912,-3.66218 4.77,-4.76399997 0.25389,0.38876997 0.35168,0.85903997 0.27381,1.31679997 -0.07787,0.45775 -0.32565,0.86924 -0.69381,1.1522 -0.70498,0.54055 -1.33632,1.17088 -1.878,1.875 z M 24,11.461209 c 0.001,1.14 -0.16,2.275 -0.48,3.37 -0.4549,-0.0949 -0.8572,-0.3581 -1.1265,-0.7369 -0.2692,-0.3788 -0.3854,-0.8453 -0.3255,-1.3061 0.115,-0.88 0.115,-1.773 0,-2.654 -0.06,-0.4607001 0.0561,-0.9270501 0.3252,-1.3058201 0.269,-0.37878 0.6711,-0.64205 1.1258,-0.73717 0.32,1.095 0.482,2.2299901 0.481,3.3699901 z m -23.999999283076,0 c 0,-1.14 0.162000283076,-2.2749901 0.482000283076,-3.3699901 0.454557,0.09534 0.856399,0.3587 1.125209,0.73745 0.26881,0.37875 0.3848,0.84504 0.32479,1.3055401 -0.115,0.88 -0.115,1.773 0,2.654 0.06001,0.4606 -0.05598,0.9268 -0.32479,1.3056 -0.26881,0.3787 -0.670652,0.6421 -1.125209,0.7374 -0.320094,-1.095 -0.482394641,-2.2301 -0.482000283076,-3.371 z M 17.76,21.979209 c -0.2542,-0.3888 -0.3521,-0.8593 -0.2743,-1.3173 0.0779,-0.458 0.3259,-0.8697 0.6943,-1.1527 0.705,-0.5405 1.3363,-1.1709 1.878,-1.875 0.2836,-0.3682 0.6956,-0.6159 1.1538,-0.6937 0.4582,-0.0779 0.9289,0.0199 1.3182,0.2737 -1.1042,2.0099 -2.759,3.6629 -4.77,4.765 z m -11.519,0 c -2.01088,-1.1018 -3.66565,-2.7545 -4.77,-4.764 0.38931,-0.2538 0.86,-0.3516 1.31819,-0.2737 0.45819,0.0778 0.87019,0.3255 1.15381,0.6937 0.54144,0.7037 1.17244,1.3337 1.877,1.874 0.765,0.587 0.948,1.663 0.421,2.47 z m 5.76,1.467 c -1.1421,0.0014 -2.27857,-0.1602 -3.375,-0.48 0.0958,-0.4549 0.3597,-0.8569 0.739,-1.1257 0.37929,-0.2688 0.846,-0.3846 1.307,-0.3243 0.882,0.115 1.775,0.115 2.657,0 0.4608,-0.0604 0.9274,0.0553 1.3067,0.3239 0.3793,0.2686 0.6433,0.6704 0.7393,1.1251 -1.096,0.32 -2.233,0.482 -3.375,0.481 z M 13.507,1.3892189 c -0.945,-0.136 -1.888,-0.1 -2.834,-0.013 -0.461,0.05965 -0.9275,-0.0564 -1.30679,-0.32507 C 8.98691,0.78246893 8.72266,0.38086593 8.626,-0.07378407 c 1.09578,-0.319606 2.2316,-0.48123426 3.373,-0.47999999 h 0.002 c 1.142,-0.001 2.277,0.15999999 3.373,0.47999999 -0.0896,0.424426 -0.3258,0.803723 -0.6672,1.071273 C 14.3653,1.2650389 13.9405,1.4037389 13.507,1.3892189 Z"
             fill="#000000"
             id="path1229-62"
             clip-path="url(#clipPath1249)"
             style="fill:#ffffff;fill-opacity:1" /></g></g><g
         id="g1345-7-9"
         style="display:inline;enable-background:new"
         transform="matrix(0.30633608,0,0,0.30633608,275.8876,124.83515)"><g
           style="display:inline;fill:#000000;fill-opacity:0.19642;enable-background:new"
           id="g1256-3-5-3"
           transform="matrix(5.6601416,0,0,5.6601416,76.078288,88.078275)"><path
             d="M 5.538,12.015 C 5.53959,10.3024 6.22117,8.66051 7.43292,7.45027 8.64466,6.24002 10.2874,5.56048 12,5.56101 c 1.7126,-5.3e-4 3.3553,0.67901 4.5671,1.88926 1.2117,1.21024 1.8933,2.85213 1.8949,4.56473 -0.0226,1.6987 -0.7135,3.3201 -1.9229,4.5131 C 15.3296,17.7211 13.6988,18.3897 12,18.389 10.3013,18.3894 8.67084,17.7208 7.46159,16.5278 6.25233,15.3348 5.56061,13.7135 5.538,12.015 Z M 22.53,6.26201 C 22.1407,6.51585 21.67,6.6136 21.2118,6.53575 20.7536,6.4579 20.3416,6.21018 20.058,5.84201 19.5166,5.13796 18.8856,4.50763 18.181,3.96701 17.8127,3.6842 17.5647,3.27277 17.4866,2.81501 c -0.078,-0.45776 0.0196,-0.92812 0.2734,-1.317 2.0109,1.10182 3.6656,2.75451 4.77,4.764 z M 3.943,5.84201 C 3.65938,6.21018 3.24738,6.4579 2.78919,6.53575 2.331,6.6136 1.86031,6.51585 1.471,6.26201 2.57535,4.25252 4.23012,2.59983 6.241,1.49801 6.49489,1.88678 6.59268,2.35705 6.51481,2.81481 6.43694,3.27256 6.18916,3.68405 5.821,3.96701 5.11602,4.50756 4.48468,5.13789 3.943,5.84201 Z M 24,12.015 c 0.001,1.14 -0.16,2.275 -0.48,3.37 -0.4549,-0.0949 -0.8572,-0.3581 -1.1265,-0.7369 -0.2692,-0.3788 -0.3854,-0.8453 -0.3255,-1.3061 0.115,-0.88 0.115,-1.773 0,-2.654 -0.06,-0.4607 0.0561,-0.92705 0.3252,-1.30582 0.269,-0.37878 0.6711,-0.64205 1.1258,-0.73717 0.32,1.095 0.482,2.22999 0.481,3.36999 z M 7.16924e-7,12.015 C 7.16924e-7,10.875 0.162001,9.74001 0.482001,8.64501 0.936558,8.74035 1.3384,9.00371 1.60721,9.38246 1.87602,9.76121 1.99201,10.2275 1.932,10.688 c -0.115,0.88 -0.115,1.773 0,2.654 0.06001,0.4606 -0.05598,0.9268 -0.32479,1.3056 C 1.3384,15.0263 0.936558,15.2897 0.482001,15.385 0.161907,14.29 -3.93641e-4,13.1549 7.16924e-7,12.014 Z M 17.76,22.533 c -0.2542,-0.3888 -0.3521,-0.8593 -0.2743,-1.3173 0.0779,-0.458 0.3259,-0.8697 0.6943,-1.1527 0.705,-0.5405 1.3363,-1.1709 1.878,-1.875 0.2836,-0.3682 0.6956,-0.6159 1.1538,-0.6937 0.4582,-0.0779 0.9289,0.0199 1.3182,0.2737 -1.1042,2.0099 -2.759,3.6629 -4.77,4.765 z m -11.519,0 c -2.01088,-1.1018 -3.66565,-2.7545 -4.77,-4.764 0.38931,-0.2538 0.86,-0.3516 1.31819,-0.2737 0.45819,0.0778 0.87019,0.3255 1.15381,0.6937 0.54144,0.7037 1.17244,1.3337 1.877,1.874 0.765,0.587 0.948,1.663 0.421,2.47 z M 12.001,24 c -1.1421,0.0014 -2.27857,-0.1602 -3.375,-0.48 0.0958,-0.4549 0.3597,-0.8569 0.739,-1.1257 0.37929,-0.2688 0.846,-0.3846 1.307,-0.3243 0.882,0.115 1.775,0.115 2.657,0 0.4608,-0.0604 0.9274,0.0553 1.3067,0.3239 0.3793,0.2686 0.6433,0.6704 0.7393,1.1251 C 14.279,23.839 13.142,24.001 12,24 Z M 13.507,1.94301 c -0.945,-0.136 -1.888,-0.1 -2.834,-0.013 C 10.212,1.98966 9.7455,1.87361 9.36621,1.60494 8.98691,1.33626 8.72266,0.934657 8.626,0.480007 9.72178,0.160401 10.8576,-0.00122726 11.999,7.01581e-6 h 0.002 C 13.143,-9.92984e-4 14.278,0.160007 15.374,0.480007 15.2844,0.904433 15.0482,1.28373 14.7068,1.55128 14.3653,1.81883 13.9405,1.95753 13.507,1.94301 Z"
             fill="#000000"
             id="path1229-6-3-6"
             clip-path="url(#clipPath1249)"
             style="fill:#000000;fill-opacity:0.19642" /></g><g
           style="display:inline;fill:#ffffff;fill-opacity:1;enable-background:new"
           id="g1256-5-0"
           transform="matrix(5.6601416,0,0,5.6601416,75.471882,87.683371)"><path
             d="m 5.6451364,11.365491 c 0.00159,-1.7125998 0.68317,-3.3544898 1.89492,-4.5647298 1.21174,-1.21025 2.8544796,-1.88979 4.5670796,-1.88926 1.7126,-5.3e-4 3.3553,0.67901 4.5671,1.88926 1.2117,1.21024 1.8933,2.85213 1.8949,4.5647298 -0.0226,1.6987 -0.7135,3.3201 -1.9229,4.5131 -1.2095,1.193 -2.8403,1.8616 -4.5391,1.8609 -1.6987,4e-4 -3.3291596,-0.6682 -4.5384096,-1.8612 -1.20926,-1.193 -1.90098,-2.8143 -1.92359,-4.5128 z M 22.637136,5.6125012 c -0.3893,0.25384 -0.86,0.35159 -1.3182,0.27374 -0.4582,-0.07785 -0.8702,-0.32557 -1.1538,-0.69374 -0.5414,-0.70405 -1.1724,-1.33438 -1.877,-1.875 -0.3683,-0.28281 -0.6163,-0.69424 -0.6944,-1.152 -0.078,-0.45776 0.0196,-0.92812 0.2734,-1.317 2.0109,1.10182 3.6656,2.75451 4.77,4.764 z m -18.5869996,-0.42 c -0.28362,0.36817 -0.69562,0.61589 -1.15381,0.69374 -0.45819,0.07785 -0.92888,-0.0199 -1.31819,-0.27374 1.10435,-2.00949 2.75912,-3.66218 4.77,-4.764 0.25389,0.38877 0.35168,0.85904 0.27381,1.3168 -0.07787,0.45775 -0.32565,0.86924 -0.69381,1.1522 -0.70498,0.54055 -1.33632,1.17088 -1.878,1.875 z M 24.107136,11.365491 c 10e-4,1.14 -0.16,2.275 -0.48,3.37 -0.4549,-0.0949 -0.8572,-0.3581 -1.1265,-0.7369 -0.2692,-0.3788 -0.3854,-0.8453 -0.3255,-1.3061 0.115,-0.88 0.115,-1.773 0,-2.654 -0.06,-0.4606998 0.0561,-0.9270498 0.3252,-1.3058198 0.269,-0.37878 0.6711,-0.64205 1.1258,-0.73717 0.32,1.095 0.482,2.2299898 0.481,3.3699898 z m -23.99999887,0 c 0,-1.14 0.16200028,-2.2749898 0.48200028,-3.3699898 0.45455699,0.09534 0.85639899,0.3587 1.12520899,0.73745 0.26881,0.37875 0.3848,0.84504 0.32479,1.3055398 -0.115,0.88 -0.115,1.773 0,2.654 0.06001,0.4606 -0.05598,0.9268 -0.32479,1.3056 -0.26881,0.3787 -0.670652,0.6421 -1.12520899,0.7374 -0.320094,-1.095 -0.48239464,-2.2301 -0.48200028,-3.371 z m 17.75999887,10.518 c -0.2542,-0.3888 -0.3521,-0.8593 -0.2743,-1.3173 0.0779,-0.458 0.3259,-0.8697 0.6943,-1.1527 0.705,-0.5405 1.3363,-1.1709 1.878,-1.875 0.2836,-0.3682 0.6956,-0.6159 1.1538,-0.6937 0.4582,-0.0779 0.9289,0.0199 1.3182,0.2737 -1.1042,2.0099 -2.759,3.6629 -4.77,4.765 z m -11.5189996,0 c -2.01088,-1.1018 -3.66565,-2.7545 -4.77,-4.764 0.38931,-0.2538 0.86,-0.3516 1.31819,-0.2737 0.45819,0.0778 0.87019,0.3255 1.15381,0.6937 0.54144,0.7037 1.17244,1.3337 1.877,1.874 0.765,0.587 0.948,1.663 0.421,2.47 z m 5.7599996,1.467 c -1.1421,0.0014 -2.2785696,-0.1602 -3.3749996,-0.48 0.0958,-0.4549 0.3597,-0.8569 0.739,-1.1257 0.37929,-0.2688 0.8459996,-0.3846 1.3069996,-0.3243 0.882,0.115 1.775,0.115 2.657,0 0.4608,-0.0604 0.9274,0.0553 1.3067,0.3239 0.3793,0.2686 0.6433,0.6704 0.7393,1.1251 -1.096,0.32 -2.233,0.482 -3.375,0.481 z m 1.506,-22.0569898 c -0.945,-0.136 -1.888,-0.1 -2.834,-0.013 -0.461,0.05965 -0.9274996,-0.0564 -1.3067896,-0.32507003 -0.3793,-0.26867997 -0.64355,-0.67028297 -0.74021,-1.12493297 1.09578,-0.319606 2.2315996,-0.48123426 3.3729996,-0.47999999 h 0.002 c 1.142,-0.001 2.277,0.15999999 3.373,0.47999999 -0.0896,0.424426 -0.3258,0.803723 -0.6672,1.071273 -0.3415,0.26755 -0.7663,0.40625 -1.1998,0.39173 z"
             fill="#000000"
             id="path1229-62-6"
             clip-path="url(#clipPath1249)"
             style="fill:#ffffff;fill-opacity:1" /></g></g><g
         id="g1345-7-9-9"
         style="display:inline;enable-background:new"
         transform="matrix(0.22690069,0,0,0.22690069,279.3263,209.21662)"><g
           style="display:inline;fill:#000000;fill-opacity:0.19642;enable-background:new"
           id="g1256-3-5-3-2"
           transform="matrix(5.6601416,0,0,5.6601416,76.078288,88.078275)"><path
             d="M 5.538,12.015 C 5.53959,10.3024 6.22117,8.66051 7.43292,7.45027 8.64466,6.24002 10.2874,5.56048 12,5.56101 c 1.7126,-5.3e-4 3.3553,0.67901 4.5671,1.88926 1.2117,1.21024 1.8933,2.85213 1.8949,4.56473 -0.0226,1.6987 -0.7135,3.3201 -1.9229,4.5131 C 15.3296,17.7211 13.6988,18.3897 12,18.389 10.3013,18.3894 8.67084,17.7208 7.46159,16.5278 6.25233,15.3348 5.56061,13.7135 5.538,12.015 Z M 22.53,6.26201 C 22.1407,6.51585 21.67,6.6136 21.2118,6.53575 20.7536,6.4579 20.3416,6.21018 20.058,5.84201 19.5166,5.13796 18.8856,4.50763 18.181,3.96701 17.8127,3.6842 17.5647,3.27277 17.4866,2.81501 c -0.078,-0.45776 0.0196,-0.92812 0.2734,-1.317 2.0109,1.10182 3.6656,2.75451 4.77,4.764 z M 3.943,5.84201 C 3.65938,6.21018 3.24738,6.4579 2.78919,6.53575 2.331,6.6136 1.86031,6.51585 1.471,6.26201 2.57535,4.25252 4.23012,2.59983 6.241,1.49801 6.49489,1.88678 6.59268,2.35705 6.51481,2.81481 6.43694,3.27256 6.18916,3.68405 5.821,3.96701 5.11602,4.50756 4.48468,5.13789 3.943,5.84201 Z M 24,12.015 c 0.001,1.14 -0.16,2.275 -0.48,3.37 -0.4549,-0.0949 -0.8572,-0.3581 -1.1265,-0.7369 -0.2692,-0.3788 -0.3854,-0.8453 -0.3255,-1.3061 0.115,-0.88 0.115,-1.773 0,-2.654 -0.06,-0.4607 0.0561,-0.92705 0.3252,-1.30582 0.269,-0.37878 0.6711,-0.64205 1.1258,-0.73717 0.32,1.095 0.482,2.22999 0.481,3.36999 z M 7.16924e-7,12.015 C 7.16924e-7,10.875 0.162001,9.74001 0.482001,8.64501 0.936558,8.74035 1.3384,9.00371 1.60721,9.38246 1.87602,9.76121 1.99201,10.2275 1.932,10.688 c -0.115,0.88 -0.115,1.773 0,2.654 0.06001,0.4606 -0.05598,0.9268 -0.32479,1.3056 C 1.3384,15.0263 0.936558,15.2897 0.482001,15.385 0.161907,14.29 -3.93641e-4,13.1549 7.16924e-7,12.014 Z M 17.76,22.533 c -0.2542,-0.3888 -0.3521,-0.8593 -0.2743,-1.3173 0.0779,-0.458 0.3259,-0.8697 0.6943,-1.1527 0.705,-0.5405 1.3363,-1.1709 1.878,-1.875 0.2836,-0.3682 0.6956,-0.6159 1.1538,-0.6937 0.4582,-0.0779 0.9289,0.0199 1.3182,0.2737 -1.1042,2.0099 -2.759,3.6629 -4.77,4.765 z m -11.519,0 c -2.01088,-1.1018 -3.66565,-2.7545 -4.77,-4.764 0.38931,-0.2538 0.86,-0.3516 1.31819,-0.2737 0.45819,0.0778 0.87019,0.3255 1.15381,0.6937 0.54144,0.7037 1.17244,1.3337 1.877,1.874 0.765,0.587 0.948,1.663 0.421,2.47 z M 12.001,24 c -1.1421,0.0014 -2.27857,-0.1602 -3.375,-0.48 0.0958,-0.4549 0.3597,-0.8569 0.739,-1.1257 0.37929,-0.2688 0.846,-0.3846 1.307,-0.3243 0.882,0.115 1.775,0.115 2.657,0 0.4608,-0.0604 0.9274,0.0553 1.3067,0.3239 0.3793,0.2686 0.6433,0.6704 0.7393,1.1251 C 14.279,23.839 13.142,24.001 12,24 Z M 13.507,1.94301 c -0.945,-0.136 -1.888,-0.1 -2.834,-0.013 C 10.212,1.98966 9.7455,1.87361 9.36621,1.60494 8.98691,1.33626 8.72266,0.934657 8.626,0.480007 9.72178,0.160401 10.8576,-0.00122726 11.999,7.01581e-6 h 0.002 C 13.143,-9.92984e-4 14.278,0.160007 15.374,0.480007 15.2844,0.904433 15.0482,1.28373 14.7068,1.55128 14.3653,1.81883 13.9405,1.95753 13.507,1.94301 Z"
             fill="#000000"
             id="path1229-6-3-6-0"
             clip-path="url(#clipPath1249)"
             style="fill:#000000;fill-opacity:0.19642" /></g><g
           style="display:inline;fill:#ffffff;fill-opacity:1;enable-background:new"
           id="g1256-5-0-2"
           transform="matrix(5.6601416,0,0,5.6601416,75.471882,87.683371)"><path
             d="m 5.6451364,11.129953 c 0.00159,-1.7126003 0.68317,-3.3544903 1.89492,-4.5647303 1.21174,-1.21025 2.8544796,-1.88979 4.5670796,-1.88926 1.7126,-5.3e-4 3.3553,0.67901 4.5671,1.88926 1.2117,1.21024 1.8933,2.85213 1.8949,4.5647303 -0.0226,1.6987 -0.7135,3.3201 -1.9229,4.5131 -1.2095,1.193 -2.8403,1.8616 -4.5391,1.8609 -1.6987,4e-4 -3.3291596,-0.6682 -4.5384096,-1.8612 -1.20926,-1.193 -1.90098,-2.8143 -1.92359,-4.5128 z M 22.637136,5.3769627 c -0.3893,0.25384 -0.86,0.35159 -1.3182,0.27374 -0.4582,-0.07785 -0.8702,-0.32557 -1.1538,-0.69374 -0.5414,-0.70405 -1.1724,-1.33438 -1.877,-1.875 -0.3683,-0.28281 -0.6163,-0.69424 -0.6944,-1.152 -0.078,-0.45776 0.0196,-0.92812 0.2734,-1.31699998 2.0109,1.10181998 3.6656,2.75450998 4.77,4.76399998 z m -18.5869996,-0.42 c -0.28362,0.36817 -0.69562,0.61589 -1.15381,0.69374 -0.45819,0.07785 -0.92888,-0.0199 -1.31819,-0.27374 1.10435,-2.00949 2.75912,-3.66218 4.77,-4.76399998 0.25389,0.38876998 0.35168,0.85903998 0.27381,1.31679998 -0.07787,0.45775 -0.32565,0.86924 -0.69381,1.1522 -0.70498,0.54055 -1.33632,1.17088 -1.878,1.875 z M 24.107136,11.129953 c 10e-4,1.14 -0.16,2.275 -0.48,3.37 -0.4549,-0.0949 -0.8572,-0.3581 -1.1265,-0.7369 -0.2692,-0.3788 -0.3854,-0.8453 -0.3255,-1.3061 0.115,-0.88 0.115,-1.773 0,-2.6540005 -0.06,-0.4606998 0.0561,-0.9270498 0.3252,-1.3058198 0.269,-0.37878 0.6711,-0.64205 1.1258,-0.73717 0.32,1.095 0.482,2.2299898 0.481,3.3699903 z m -23.99999887,0 c 0,-1.1400005 0.16200028,-2.2749903 0.48200028,-3.3699903 0.45455699,0.09534 0.85639899,0.3587 1.12520899,0.73745 0.26881,0.37875 0.3848,0.84504 0.32479,1.3055398 -0.115,0.8800005 -0.115,1.7730005 0,2.6540005 0.06001,0.4606 -0.05598,0.9268 -0.32479,1.3056 -0.26881,0.3787 -0.670652,0.6421 -1.12520899,0.7374 -0.320094,-1.095 -0.48239464,-2.2301 -0.48200028,-3.371 z m 17.75999887,10.518 c -0.2542,-0.3888 -0.3521,-0.8593 -0.2743,-1.3173 0.0779,-0.458 0.3259,-0.8697 0.6943,-1.1527 0.705,-0.5405 1.3363,-1.1709 1.878,-1.875 0.2836,-0.3682 0.6956,-0.6159 1.1538,-0.6937 0.4582,-0.0779 0.9289,0.0199 1.3182,0.2737 -1.1042,2.0099 -2.759,3.6629 -4.77,4.765 z m -11.5189996,0 c -2.01088,-1.1018 -3.66565,-2.7545 -4.77,-4.764 0.38931,-0.2538 0.86,-0.3516 1.31819,-0.2737 0.45819,0.0778 0.87019,0.3255 1.15381,0.6937 0.54144,0.7037 1.17244,1.3337 1.877,1.874 0.765,0.587 0.948,1.663 0.421,2.47 z m 5.7599996,1.467 c -1.1421,0.0014 -2.2785696,-0.1602 -3.3749996,-0.48 0.0958,-0.4549 0.3597,-0.8569 0.739,-1.1257 0.37929,-0.2688 0.8459996,-0.3846 1.3069996,-0.3243 0.882,0.115 1.775,0.115 2.657,0 0.4608,-0.0604 0.9274,0.0553 1.3067,0.3239 0.3793,0.2686 0.6433,0.6704 0.7393,1.1251 -1.096,0.32 -2.233,0.482 -3.375,0.481 z m 1.506,-22.0569903 c -0.945,-0.13599998 -1.888,-0.1 -2.834,-0.013 -0.461,0.05965 -0.9274996,-0.0564 -1.3067896,-0.32507001 -0.3793,-0.26867997 -0.64355,-0.67028297 -0.74021,-1.12493297 1.09578,-0.319606 2.2315996,-0.48123426 3.3729996,-0.47999999 h 0.002 c 1.142,-0.001 2.277,0.15999999 3.373,0.47999999 -0.0896,0.424426 -0.3258,0.803723 -0.6672,1.071273 -0.3415,0.26755 -0.7663,0.40624998 -1.1998,0.39172998 z"
             fill="#000000"
             id="path1229-62-6-3"
             clip-path="url(#clipPath1249)"
             style="fill:#ffffff;fill-opacity:1" /></g></g><g
         id="g1345-7-9-9-8"
         style="display:inline;enable-background:new"
         transform="matrix(0.1512214,0,0,0.1512214,410.22412,44.898079)"><g
           style="display:inline;fill:#000000;fill-opacity:0.19642;enable-background:new"
           id="g1256-3-5-3-2-9"
           transform="matrix(5.6601416,0,0,5.6601416,76.078288,88.078275)"><path
             d="M 5.538,12.015 C 5.53959,10.3024 6.22117,8.66051 7.43292,7.45027 8.64466,6.24002 10.2874,5.56048 12,5.56101 c 1.7126,-5.3e-4 3.3553,0.67901 4.5671,1.88926 1.2117,1.21024 1.8933,2.85213 1.8949,4.56473 -0.0226,1.6987 -0.7135,3.3201 -1.9229,4.5131 C 15.3296,17.7211 13.6988,18.3897 12,18.389 10.3013,18.3894 8.67084,17.7208 7.46159,16.5278 6.25233,15.3348 5.56061,13.7135 5.538,12.015 Z M 22.53,6.26201 C 22.1407,6.51585 21.67,6.6136 21.2118,6.53575 20.7536,6.4579 20.3416,6.21018 20.058,5.84201 19.5166,5.13796 18.8856,4.50763 18.181,3.96701 17.8127,3.6842 17.5647,3.27277 17.4866,2.81501 c -0.078,-0.45776 0.0196,-0.92812 0.2734,-1.317 2.0109,1.10182 3.6656,2.75451 4.77,4.764 z M 3.943,5.84201 C 3.65938,6.21018 3.24738,6.4579 2.78919,6.53575 2.331,6.6136 1.86031,6.51585 1.471,6.26201 2.57535,4.25252 4.23012,2.59983 6.241,1.49801 6.49489,1.88678 6.59268,2.35705 6.51481,2.81481 6.43694,3.27256 6.18916,3.68405 5.821,3.96701 5.11602,4.50756 4.48468,5.13789 3.943,5.84201 Z M 24,12.015 c 0.001,1.14 -0.16,2.275 -0.48,3.37 -0.4549,-0.0949 -0.8572,-0.3581 -1.1265,-0.7369 -0.2692,-0.3788 -0.3854,-0.8453 -0.3255,-1.3061 0.115,-0.88 0.115,-1.773 0,-2.654 -0.06,-0.4607 0.0561,-0.92705 0.3252,-1.30582 0.269,-0.37878 0.6711,-0.64205 1.1258,-0.73717 0.32,1.095 0.482,2.22999 0.481,3.36999 z M 7.16924e-7,12.015 C 7.16924e-7,10.875 0.162001,9.74001 0.482001,8.64501 0.936558,8.74035 1.3384,9.00371 1.60721,9.38246 1.87602,9.76121 1.99201,10.2275 1.932,10.688 c -0.115,0.88 -0.115,1.773 0,2.654 0.06001,0.4606 -0.05598,0.9268 -0.32479,1.3056 C 1.3384,15.0263 0.936558,15.2897 0.482001,15.385 0.161907,14.29 -3.93641e-4,13.1549 7.16924e-7,12.014 Z M 17.76,22.533 c -0.2542,-0.3888 -0.3521,-0.8593 -0.2743,-1.3173 0.0779,-0.458 0.3259,-0.8697 0.6943,-1.1527 0.705,-0.5405 1.3363,-1.1709 1.878,-1.875 0.2836,-0.3682 0.6956,-0.6159 1.1538,-0.6937 0.4582,-0.0779 0.9289,0.0199 1.3182,0.2737 -1.1042,2.0099 -2.759,3.6629 -4.77,4.765 z m -11.519,0 c -2.01088,-1.1018 -3.66565,-2.7545 -4.77,-4.764 0.38931,-0.2538 0.86,-0.3516 1.31819,-0.2737 0.45819,0.0778 0.87019,0.3255 1.15381,0.6937 0.54144,0.7037 1.17244,1.3337 1.877,1.874 0.765,0.587 0.948,1.663 0.421,2.47 z M 12.001,24 c -1.1421,0.0014 -2.27857,-0.1602 -3.375,-0.48 0.0958,-0.4549 0.3597,-0.8569 0.739,-1.1257 0.37929,-0.2688 0.846,-0.3846 1.307,-0.3243 0.882,0.115 1.775,0.115 2.657,0 0.4608,-0.0604 0.9274,0.0553 1.3067,0.3239 0.3793,0.2686 0.6433,0.6704 0.7393,1.1251 C 14.279,23.839 13.142,24.001 12,24 Z M 13.507,1.94301 c -0.945,-0.136 -1.888,-0.1 -2.834,-0.013 C 10.212,1.98966 9.7455,1.87361 9.36621,1.60494 8.98691,1.33626 8.72266,0.934657 8.626,0.480007 9.72178,0.160401 10.8576,-0.00122726 11.999,7.01581e-6 h 0.002 C 13.143,-9.92984e-4 14.278,0.160007 15.374,0.480007 15.2844,0.904433 15.0482,1.28373 14.7068,1.55128 14.3653,1.81883 13.9405,1.95753 13.507,1.94301 Z"
             fill="#000000"
             id="path1229-6-3-6-0-7"
             clip-path="url(#clipPath1249)"
             style="fill:#000000;fill-opacity:0.19642" /></g><g
           style="display:inline;fill:#ffffff;fill-opacity:1;enable-background:new"
           id="g1256-5-0-2-3"
           transform="matrix(5.6601416,0,0,5.6601416,75.471882,86.625488)"><path
             d="m 5.6451364,11.129953 c 0.00159,-1.7126003 0.68317,-3.3544903 1.89492,-4.5647303 1.21174,-1.21025 2.8544796,-1.88979 4.5670796,-1.88926 1.7126,-5.3e-4 3.3553,0.67901 4.5671,1.88926 1.2117,1.21024 1.8933,2.85213 1.8949,4.5647303 -0.0226,1.6987 -0.7135,3.3201 -1.9229,4.5131 -1.2095,1.193 -2.8403,1.8616 -4.5391,1.8609 -1.6987,4e-4 -3.3291596,-0.6682 -4.5384096,-1.8612 -1.20926,-1.193 -1.90098,-2.8143 -1.92359,-4.5128 z M 22.637136,5.3769627 c -0.3893,0.25384 -0.86,0.35159 -1.3182,0.27374 -0.4582,-0.07785 -0.8702,-0.32557 -1.1538,-0.69374 -0.5414,-0.70405 -1.1724,-1.33438 -1.877,-1.875 -0.3683,-0.28281 -0.6163,-0.69424 -0.6944,-1.152 -0.078,-0.45776 0.0196,-0.92812 0.2734,-1.31699998 2.0109,1.10181998 3.6656,2.75450998 4.77,4.76399998 z m -18.5869996,-0.42 c -0.28362,0.36817 -0.69562,0.61589 -1.15381,0.69374 -0.45819,0.07785 -0.92888,-0.0199 -1.31819,-0.27374 1.10435,-2.00949 2.75912,-3.66218 4.77,-4.76399998 0.25389,0.38876998 0.35168,0.85903998 0.27381,1.31679998 -0.07787,0.45775 -0.32565,0.86924 -0.69381,1.1522 -0.70498,0.54055 -1.33632,1.17088 -1.878,1.875 z M 24.107136,11.129953 c 10e-4,1.14 -0.16,2.275 -0.48,3.37 -0.4549,-0.0949 -0.8572,-0.3581 -1.1265,-0.7369 -0.2692,-0.3788 -0.3854,-0.8453 -0.3255,-1.3061 0.115,-0.88 0.115,-1.773 0,-2.6540005 -0.06,-0.4606998 0.0561,-0.9270498 0.3252,-1.3058198 0.269,-0.37878 0.6711,-0.64205 1.1258,-0.73717 0.32,1.095 0.482,2.2299898 0.481,3.3699903 z m -23.99999887,0 c 0,-1.1400005 0.16200028,-2.2749903 0.48200028,-3.3699903 0.45455699,0.09534 0.85639899,0.3587 1.12520899,0.73745 0.26881,0.37875 0.3848,0.84504 0.32479,1.3055398 -0.115,0.8800005 -0.115,1.7730005 0,2.6540005 0.06001,0.4606 -0.05598,0.9268 -0.32479,1.3056 -0.26881,0.3787 -0.670652,0.6421 -1.12520899,0.7374 -0.320094,-1.095 -0.48239464,-2.2301 -0.48200028,-3.371 z m 17.75999887,10.518 c -0.2542,-0.3888 -0.3521,-0.8593 -0.2743,-1.3173 0.0779,-0.458 0.3259,-0.8697 0.6943,-1.1527 0.705,-0.5405 1.3363,-1.1709 1.878,-1.875 0.2836,-0.3682 0.6956,-0.6159 1.1538,-0.6937 0.4582,-0.0779 0.9289,0.0199 1.3182,0.2737 -1.1042,2.0099 -2.759,3.6629 -4.77,4.765 z m -11.5189996,0 c -2.01088,-1.1018 -3.66565,-2.7545 -4.77,-4.764 0.38931,-0.2538 0.86,-0.3516 1.31819,-0.2737 0.45819,0.0778 0.87019,0.3255 1.15381,0.6937 0.54144,0.7037 1.17244,1.3337 1.877,1.874 0.765,0.587 0.948,1.663 0.421,2.47 z m 5.7599996,1.467 c -1.1421,0.0014 -2.2785696,-0.1602 -3.3749996,-0.48 0.0958,-0.4549 0.3597,-0.8569 0.739,-1.1257 0.37929,-0.2688 0.8459996,-0.3846 1.3069996,-0.3243 0.882,0.115 1.775,0.115 2.657,0 0.4608,-0.0604 0.9274,0.0553 1.3067,0.3239 0.3793,0.2686 0.6433,0.6704 0.7393,1.1251 -1.096,0.32 -2.233,0.482 -3.375,0.481 z m 1.506,-22.0569903 c -0.945,-0.13599998 -1.888,-0.1 -2.834,-0.013 -0.461,0.05965 -0.9274996,-0.0564 -1.3067896,-0.32507001 -0.3793,-0.26867997 -0.64355,-0.67028297 -0.74021,-1.12493297 1.09578,-0.319606 2.2315996,-0.48123426 3.3729996,-0.47999999 h 0.002 c 1.142,-0.001 2.277,0.15999999 3.373,0.47999999 -0.0896,0.424426 -0.3258,0.803723 -0.6672,1.071273 -0.3415,0.26755 -0.7663,0.40624998 -1.1998,0.39172998 z"
             fill="#000000"
             id="path1229-62-6-3-6"
             clip-path="url(#clipPath1249)"
             style="fill:#ffffff;fill-opacity:1" /></g></g><g
         id="g1345-7-9-9-8-9"
         style="display:inline;enable-background:new"
         transform="matrix(0.11861264,0,0,0.11861264,410.91978,93.879683)"><g
           style="display:inline;fill:#000000;fill-opacity:0.19642;enable-background:new"
           id="g1256-3-5-3-2-9-4"
           transform="matrix(5.6601416,0,0,5.6601416,76.078288,88.078275)"><path
             d="M 5.538,12.015 C 5.53959,10.3024 6.22117,8.66051 7.43292,7.45027 8.64466,6.24002 10.2874,5.56048 12,5.56101 c 1.7126,-5.3e-4 3.3553,0.67901 4.5671,1.88926 1.2117,1.21024 1.8933,2.85213 1.8949,4.56473 -0.0226,1.6987 -0.7135,3.3201 -1.9229,4.5131 C 15.3296,17.7211 13.6988,18.3897 12,18.389 10.3013,18.3894 8.67084,17.7208 7.46159,16.5278 6.25233,15.3348 5.56061,13.7135 5.538,12.015 Z M 22.53,6.26201 C 22.1407,6.51585 21.67,6.6136 21.2118,6.53575 20.7536,6.4579 20.3416,6.21018 20.058,5.84201 19.5166,5.13796 18.8856,4.50763 18.181,3.96701 17.8127,3.6842 17.5647,3.27277 17.4866,2.81501 c -0.078,-0.45776 0.0196,-0.92812 0.2734,-1.317 2.0109,1.10182 3.6656,2.75451 4.77,4.764 z M 3.943,5.84201 C 3.65938,6.21018 3.24738,6.4579 2.78919,6.53575 2.331,6.6136 1.86031,6.51585 1.471,6.26201 2.57535,4.25252 4.23012,2.59983 6.241,1.49801 6.49489,1.88678 6.59268,2.35705 6.51481,2.81481 6.43694,3.27256 6.18916,3.68405 5.821,3.96701 5.11602,4.50756 4.48468,5.13789 3.943,5.84201 Z M 24,12.015 c 0.001,1.14 -0.16,2.275 -0.48,3.37 -0.4549,-0.0949 -0.8572,-0.3581 -1.1265,-0.7369 -0.2692,-0.3788 -0.3854,-0.8453 -0.3255,-1.3061 0.115,-0.88 0.115,-1.773 0,-2.654 -0.06,-0.4607 0.0561,-0.92705 0.3252,-1.30582 0.269,-0.37878 0.6711,-0.64205 1.1258,-0.73717 0.32,1.095 0.482,2.22999 0.481,3.36999 z M 7.16924e-7,12.015 C 7.16924e-7,10.875 0.162001,9.74001 0.482001,8.64501 0.936558,8.74035 1.3384,9.00371 1.60721,9.38246 1.87602,9.76121 1.99201,10.2275 1.932,10.688 c -0.115,0.88 -0.115,1.773 0,2.654 0.06001,0.4606 -0.05598,0.9268 -0.32479,1.3056 C 1.3384,15.0263 0.936558,15.2897 0.482001,15.385 0.161907,14.29 -3.93641e-4,13.1549 7.16924e-7,12.014 Z M 17.76,22.533 c -0.2542,-0.3888 -0.3521,-0.8593 -0.2743,-1.3173 0.0779,-0.458 0.3259,-0.8697 0.6943,-1.1527 0.705,-0.5405 1.3363,-1.1709 1.878,-1.875 0.2836,-0.3682 0.6956,-0.6159 1.1538,-0.6937 0.4582,-0.0779 0.9289,0.0199 1.3182,0.2737 -1.1042,2.0099 -2.759,3.6629 -4.77,4.765 z m -11.519,0 c -2.01088,-1.1018 -3.66565,-2.7545 -4.77,-4.764 0.38931,-0.2538 0.86,-0.3516 1.31819,-0.2737 0.45819,0.0778 0.87019,0.3255 1.15381,0.6937 0.54144,0.7037 1.17244,1.3337 1.877,1.874 0.765,0.587 0.948,1.663 0.421,2.47 z M 12.001,24 c -1.1421,0.0014 -2.27857,-0.1602 -3.375,-0.48 0.0958,-0.4549 0.3597,-0.8569 0.739,-1.1257 0.37929,-0.2688 0.846,-0.3846 1.307,-0.3243 0.882,0.115 1.775,0.115 2.657,0 0.4608,-0.0604 0.9274,0.0553 1.3067,0.3239 0.3793,0.2686 0.6433,0.6704 0.7393,1.1251 C 14.279,23.839 13.142,24.001 12,24 Z M 13.507,1.94301 c -0.945,-0.136 -1.888,-0.1 -2.834,-0.013 C 10.212,1.98966 9.7455,1.87361 9.36621,1.60494 8.98691,1.33626 8.72266,0.934657 8.626,0.480007 9.72178,0.160401 10.8576,-0.00122726 11.999,7.01581e-6 h 0.002 C 13.143,-9.92984e-4 14.278,0.160007 15.374,0.480007 15.2844,0.904433 15.0482,1.28373 14.7068,1.55128 14.3653,1.81883 13.9405,1.95753 13.507,1.94301 Z"
             fill="#000000"
             id="path1229-6-3-6-0-7-7"
             clip-path="url(#clipPath1249)"
             style="fill:#000000;fill-opacity:0.19642" /></g><g
           style="display:inline;fill:#ffffff;fill-opacity:1;enable-background:new"
           id="g1256-5-0-2-3-8"
           transform="matrix(5.6601416,0,0,5.6601416,75.471882,86.625488)"><path
             d="m 5.6451364,11.129953 c 0.00159,-1.7126003 0.68317,-3.3544903 1.89492,-4.5647303 1.21174,-1.21025 2.8544796,-1.88979 4.5670796,-1.88926 1.7126,-5.3e-4 3.3553,0.67901 4.5671,1.88926 1.2117,1.21024 1.8933,2.85213 1.8949,4.5647303 -0.0226,1.6987 -0.7135,3.3201 -1.9229,4.5131 -1.2095,1.193 -2.8403,1.8616 -4.5391,1.8609 -1.6987,4e-4 -3.3291596,-0.6682 -4.5384096,-1.8612 -1.20926,-1.193 -1.90098,-2.8143 -1.92359,-4.5128 z M 22.637136,5.3769627 c -0.3893,0.25384 -0.86,0.35159 -1.3182,0.27374 -0.4582,-0.07785 -0.8702,-0.32557 -1.1538,-0.69374 -0.5414,-0.70405 -1.1724,-1.33438 -1.877,-1.875 -0.3683,-0.28281 -0.6163,-0.69424 -0.6944,-1.152 -0.078,-0.45776 0.0196,-0.92812 0.2734,-1.31699998 2.0109,1.10181998 3.6656,2.75450998 4.77,4.76399998 z m -18.5869996,-0.42 c -0.28362,0.36817 -0.69562,0.61589 -1.15381,0.69374 -0.45819,0.07785 -0.92888,-0.0199 -1.31819,-0.27374 1.10435,-2.00949 2.75912,-3.66218 4.77,-4.76399998 0.25389,0.38876998 0.35168,0.85903998 0.27381,1.31679998 -0.07787,0.45775 -0.32565,0.86924 -0.69381,1.1522 -0.70498,0.54055 -1.33632,1.17088 -1.878,1.875 z M 24.107136,11.129953 c 10e-4,1.14 -0.16,2.275 -0.48,3.37 -0.4549,-0.0949 -0.8572,-0.3581 -1.1265,-0.7369 -0.2692,-0.3788 -0.3854,-0.8453 -0.3255,-1.3061 0.115,-0.88 0.115,-1.773 0,-2.6540005 -0.06,-0.4606998 0.0561,-0.9270498 0.3252,-1.3058198 0.269,-0.37878 0.6711,-0.64205 1.1258,-0.73717 0.32,1.095 0.482,2.2299898 0.481,3.3699903 z m -23.99999887,0 c 0,-1.1400005 0.16200028,-2.2749903 0.48200028,-3.3699903 0.45455699,0.09534 0.85639899,0.3587 1.12520899,0.73745 0.26881,0.37875 0.3848,0.84504 0.32479,1.3055398 -0.115,0.8800005 -0.115,1.7730005 0,2.6540005 0.06001,0.4606 -0.05598,0.9268 -0.32479,1.3056 -0.26881,0.3787 -0.670652,0.6421 -1.12520899,0.7374 -0.320094,-1.095 -0.48239464,-2.2301 -0.48200028,-3.371 z m 17.75999887,10.518 c -0.2542,-0.3888 -0.3521,-0.8593 -0.2743,-1.3173 0.0779,-0.458 0.3259,-0.8697 0.6943,-1.1527 0.705,-0.5405 1.3363,-1.1709 1.878,-1.875 0.2836,-0.3682 0.6956,-0.6159 1.1538,-0.6937 0.4582,-0.0779 0.9289,0.0199 1.3182,0.2737 -1.1042,2.0099 -2.759,3.6629 -4.77,4.765 z m -11.5189996,0 c -2.01088,-1.1018 -3.66565,-2.7545 -4.77,-4.764 0.38931,-0.2538 0.86,-0.3516 1.31819,-0.2737 0.45819,0.0778 0.87019,0.3255 1.15381,0.6937 0.54144,0.7037 1.17244,1.3337 1.877,1.874 0.765,0.587 0.948,1.663 0.421,2.47 z m 5.7599996,1.467 c -1.1421,0.0014 -2.2785696,-0.1602 -3.3749996,-0.48 0.0958,-0.4549 0.3597,-0.8569 0.739,-1.1257 0.37929,-0.2688 0.8459996,-0.3846 1.3069996,-0.3243 0.882,0.115 1.775,0.115 2.657,0 0.4608,-0.0604 0.9274,0.0553 1.3067,0.3239 0.3793,0.2686 0.6433,0.6704 0.7393,1.1251 -1.096,0.32 -2.233,0.482 -3.375,0.481 z m 1.506,-22.0569903 c -0.945,-0.13599998 -1.888,-0.1 -2.834,-0.013 -0.461,0.05965 -0.9274996,-0.0564 -1.3067896,-0.32507001 -0.3793,-0.26867997 -0.64355,-0.67028297 -0.74021,-1.12493297 1.09578,-0.319606 2.2315996,-0.48123426 3.3729996,-0.47999999 h 0.002 c 1.142,-0.001 2.277,0.15999999 3.373,0.47999999 -0.0896,0.424426 -0.3258,0.803723 -0.6672,1.071273 -0.3415,0.26755 -0.7663,0.40624998 -1.1998,0.39172998 z"
             fill="#000000"
             id="path1229-62-6-3-6-4"
             clip-path="url(#clipPath1249)"
             style="fill:#ffffff;fill-opacity:1" /></g></g><g
         id="g1345-7-9-9-8-9-5"
         style="display:inline;enable-background:new"
         transform="matrix(0.08118683,0,0,0.08118683,412.30909,135.59718)"><g
           style="display:inline;fill:#000000;fill-opacity:0.19642;enable-background:new"
           id="g1256-3-5-3-2-9-4-0"
           transform="matrix(5.6601416,0,0,5.6601416,76.078288,88.078275)"><path
             d="M 5.538,12.015 C 5.53959,10.3024 6.22117,8.66051 7.43292,7.45027 8.64466,6.24002 10.2874,5.56048 12,5.56101 c 1.7126,-5.3e-4 3.3553,0.67901 4.5671,1.88926 1.2117,1.21024 1.8933,2.85213 1.8949,4.56473 -0.0226,1.6987 -0.7135,3.3201 -1.9229,4.5131 C 15.3296,17.7211 13.6988,18.3897 12,18.389 10.3013,18.3894 8.67084,17.7208 7.46159,16.5278 6.25233,15.3348 5.56061,13.7135 5.538,12.015 Z M 22.53,6.26201 C 22.1407,6.51585 21.67,6.6136 21.2118,6.53575 20.7536,6.4579 20.3416,6.21018 20.058,5.84201 19.5166,5.13796 18.8856,4.50763 18.181,3.96701 17.8127,3.6842 17.5647,3.27277 17.4866,2.81501 c -0.078,-0.45776 0.0196,-0.92812 0.2734,-1.317 2.0109,1.10182 3.6656,2.75451 4.77,4.764 z M 3.943,5.84201 C 3.65938,6.21018 3.24738,6.4579 2.78919,6.53575 2.331,6.6136 1.86031,6.51585 1.471,6.26201 2.57535,4.25252 4.23012,2.59983 6.241,1.49801 6.49489,1.88678 6.59268,2.35705 6.51481,2.81481 6.43694,3.27256 6.18916,3.68405 5.821,3.96701 5.11602,4.50756 4.48468,5.13789 3.943,5.84201 Z M 24,12.015 c 0.001,1.14 -0.16,2.275 -0.48,3.37 -0.4549,-0.0949 -0.8572,-0.3581 -1.1265,-0.7369 -0.2692,-0.3788 -0.3854,-0.8453 -0.3255,-1.3061 0.115,-0.88 0.115,-1.773 0,-2.654 -0.06,-0.4607 0.0561,-0.92705 0.3252,-1.30582 0.269,-0.37878 0.6711,-0.64205 1.1258,-0.73717 0.32,1.095 0.482,2.22999 0.481,3.36999 z M 7.16924e-7,12.015 C 7.16924e-7,10.875 0.162001,9.74001 0.482001,8.64501 0.936558,8.74035 1.3384,9.00371 1.60721,9.38246 1.87602,9.76121 1.99201,10.2275 1.932,10.688 c -0.115,0.88 -0.115,1.773 0,2.654 0.06001,0.4606 -0.05598,0.9268 -0.32479,1.3056 C 1.3384,15.0263 0.936558,15.2897 0.482001,15.385 0.161907,14.29 -3.93641e-4,13.1549 7.16924e-7,12.014 Z M 17.76,22.533 c -0.2542,-0.3888 -0.3521,-0.8593 -0.2743,-1.3173 0.0779,-0.458 0.3259,-0.8697 0.6943,-1.1527 0.705,-0.5405 1.3363,-1.1709 1.878,-1.875 0.2836,-0.3682 0.6956,-0.6159 1.1538,-0.6937 0.4582,-0.0779 0.9289,0.0199 1.3182,0.2737 -1.1042,2.0099 -2.759,3.6629 -4.77,4.765 z m -11.519,0 c -2.01088,-1.1018 -3.66565,-2.7545 -4.77,-4.764 0.38931,-0.2538 0.86,-0.3516 1.31819,-0.2737 0.45819,0.0778 0.87019,0.3255 1.15381,0.6937 0.54144,0.7037 1.17244,1.3337 1.877,1.874 0.765,0.587 0.948,1.663 0.421,2.47 z M 12.001,24 c -1.1421,0.0014 -2.27857,-0.1602 -3.375,-0.48 0.0958,-0.4549 0.3597,-0.8569 0.739,-1.1257 0.37929,-0.2688 0.846,-0.3846 1.307,-0.3243 0.882,0.115 1.775,0.115 2.657,0 0.4608,-0.0604 0.9274,0.0553 1.3067,0.3239 0.3793,0.2686 0.6433,0.6704 0.7393,1.1251 C 14.279,23.839 13.142,24.001 12,24 Z M 13.507,1.94301 c -0.945,-0.136 -1.888,-0.1 -2.834,-0.013 C 10.212,1.98966 9.7455,1.87361 9.36621,1.60494 8.98691,1.33626 8.72266,0.934657 8.626,0.480007 9.72178,0.160401 10.8576,-0.00122726 11.999,7.01581e-6 h 0.002 C 13.143,-9.92984e-4 14.278,0.160007 15.374,0.480007 15.2844,0.904433 15.0482,1.28373 14.7068,1.55128 14.3653,1.81883 13.9405,1.95753 13.507,1.94301 Z"
             fill="#000000"
             id="path1229-6-3-6-0-7-7-3"
             clip-path="url(#clipPath1249)"
             style="fill:#000000;fill-opacity:0.19642" /></g><g
           style="display:inline;fill:#ffffff;fill-opacity:1;enable-background:new"
           id="g1256-5-0-2-3-8-6"
           transform="matrix(5.6601416,0,0,5.6601416,75.471882,86.625488)"><path
             d="m 5.6451364,11.129953 c 0.00159,-1.7126003 0.68317,-3.3544903 1.89492,-4.5647303 1.21174,-1.21025 2.8544796,-1.88979 4.5670796,-1.88926 1.7126,-5.3e-4 3.3553,0.67901 4.5671,1.88926 1.2117,1.21024 1.8933,2.85213 1.8949,4.5647303 -0.0226,1.6987 -0.7135,3.3201 -1.9229,4.5131 -1.2095,1.193 -2.8403,1.8616 -4.5391,1.8609 -1.6987,4e-4 -3.3291596,-0.6682 -4.5384096,-1.8612 -1.20926,-1.193 -1.90098,-2.8143 -1.92359,-4.5128 z M 22.637136,5.3769627 c -0.3893,0.25384 -0.86,0.35159 -1.3182,0.27374 -0.4582,-0.07785 -0.8702,-0.32557 -1.1538,-0.69374 -0.5414,-0.70405 -1.1724,-1.33438 -1.877,-1.875 -0.3683,-0.28281 -0.6163,-0.69424 -0.6944,-1.152 -0.078,-0.45776 0.0196,-0.92812 0.2734,-1.31699998 2.0109,1.10181998 3.6656,2.75450998 4.77,4.76399998 z m -18.5869996,-0.42 c -0.28362,0.36817 -0.69562,0.61589 -1.15381,0.69374 -0.45819,0.07785 -0.92888,-0.0199 -1.31819,-0.27374 1.10435,-2.00949 2.75912,-3.66218 4.77,-4.76399998 0.25389,0.38876998 0.35168,0.85903998 0.27381,1.31679998 -0.07787,0.45775 -0.32565,0.86924 -0.69381,1.1522 -0.70498,0.54055 -1.33632,1.17088 -1.878,1.875 z M 24.107136,11.129953 c 10e-4,1.14 -0.16,2.275 -0.48,3.37 -0.4549,-0.0949 -0.8572,-0.3581 -1.1265,-0.7369 -0.2692,-0.3788 -0.3854,-0.8453 -0.3255,-1.3061 0.115,-0.88 0.115,-1.773 0,-2.6540005 -0.06,-0.4606998 0.0561,-0.9270498 0.3252,-1.3058198 0.269,-0.37878 0.6711,-0.64205 1.1258,-0.73717 0.32,1.095 0.482,2.2299898 0.481,3.3699903 z m -23.99999887,0 c 0,-1.1400005 0.16200028,-2.2749903 0.48200028,-3.3699903 0.45455699,0.09534 0.85639899,0.3587 1.12520899,0.73745 0.26881,0.37875 0.3848,0.84504 0.32479,1.3055398 -0.115,0.8800005 -0.115,1.7730005 0,2.6540005 0.06001,0.4606 -0.05598,0.9268 -0.32479,1.3056 -0.26881,0.3787 -0.670652,0.6421 -1.12520899,0.7374 -0.320094,-1.095 -0.48239464,-2.2301 -0.48200028,-3.371 z m 17.75999887,10.518 c -0.2542,-0.3888 -0.3521,-0.8593 -0.2743,-1.3173 0.0779,-0.458 0.3259,-0.8697 0.6943,-1.1527 0.705,-0.5405 1.3363,-1.1709 1.878,-1.875 0.2836,-0.3682 0.6956,-0.6159 1.1538,-0.6937 0.4582,-0.0779 0.9289,0.0199 1.3182,0.2737 -1.1042,2.0099 -2.759,3.6629 -4.77,4.765 z m -11.5189996,0 c -2.01088,-1.1018 -3.66565,-2.7545 -4.77,-4.764 0.38931,-0.2538 0.86,-0.3516 1.31819,-0.2737 0.45819,0.0778 0.87019,0.3255 1.15381,0.6937 0.54144,0.7037 1.17244,1.3337 1.877,1.874 0.765,0.587 0.948,1.663 0.421,2.47 z m 5.7599996,1.467 c -1.1421,0.0014 -2.2785696,-0.1602 -3.3749996,-0.48 0.0958,-0.4549 0.3597,-0.8569 0.739,-1.1257 0.37929,-0.2688 0.8459996,-0.3846 1.3069996,-0.3243 0.882,0.115 1.775,0.115 2.657,0 0.4608,-0.0604 0.9274,0.0553 1.3067,0.3239 0.3793,0.2686 0.6433,0.6704 0.7393,1.1251 -1.096,0.32 -2.233,0.482 -3.375,0.481 z m 1.506,-22.0569903 c -0.945,-0.13599998 -1.888,-0.1 -2.834,-0.013 -0.461,0.05965 -0.9274996,-0.0564 -1.3067896,-0.32507001 -0.3793,-0.26867997 -0.64355,-0.67028297 -0.74021,-1.12493297 1.09578,-0.319606 2.2315996,-0.48123426 3.3729996,-0.47999999 h 0.002 c 1.142,-0.001 2.277,0.15999999 3.373,0.47999999 -0.0896,0.424426 -0.3258,0.803723 -0.6672,1.071273 -0.3415,0.26755 -0.7663,0.40624998 -1.1998,0.39172998 z"
             fill="#000000"
             id="path1229-62-6-3-6-4-1"
             clip-path="url(#clipPath1249)"
             style="fill:#ffffff;fill-opacity:1" /></g></g></g><g
       inkscape:groupmode="layer"
       id="layer5"
       inkscape:label="Highlights"
       style="display:inline"
       sodipodi:insensitive="true"><path
         style="opacity:0.12999998;color:#bebebe;fill:#ffffff;fill-opacity:1;fill-rule:nonzero;stroke:none;stroke-width:0;marker:none;visibility:visible;display:inline;overflow:visible;enable-background:accumulate"
         d="M 84,47 C 56.836703,47 35,68.836703 35,96 l 0,1 C 35,69.836703 56.836703,48 84,48 l 120,0 c 27.1633,0 49,21.836703 49,49 l 0,-1 C 253,68.836703 231.1633,47 204,47 L 84,47 z"
         id="rect3894"
         inkscape:connector-curvature="0" /><path
         style="opacity:0.12999998;color:#bebebe;fill:#ffffff;fill-opacity:1;fill-rule:nonzero;stroke:none;stroke-width:0;marker:none;visibility:visible;display:inline;overflow:visible;enable-background:accumulate"
         d="m 419,141 c -1.1253,0 -2,0.8747 -2,2 l 0,1 c 0,-1.1253 0.8747,-2 2,-2 l 10,0 c 1.1253,0 2,0.8747 2,2 l 0,-1 c 0,-1.1253 -0.8747,-2 -2,-2 l -10,0 z"
         id="rect3896"
         inkscape:connector-curvature="0" /><path
         style="opacity:0.12999998;color:#bebebe;fill:#ffffff;fill-opacity:1;fill-rule:nonzero;stroke:none;stroke-width:0;marker:none;visibility:visible;display:inline;overflow:visible;enable-background:accumulate"
         d="m 422,102 c -2.2333,0 -4,1.7667 -4,4 l 0,1 c 0,-2.2333 1.7667,-4 4,-4 l 12,0 c 2.2333,0 4,1.7667 4,4 l 0,-1 c 0,-2.2333 -1.7667,-4 -4,-4 l -12,0 z"
         id="rect3898"
         inkscape:connector-curvature="0" /><path
         style="opacity:0.12999998;color:#bebebe;fill:#ffffff;fill-opacity:1;fill-rule:nonzero;stroke:none;stroke-width:0;marker:none;visibility:visible;display:inline;overflow:visible;enable-background:accumulate"
         d="m 424,54 c -3.3413,0 -6,2.658703 -6,6 l 0,1 c 0,-3.341297 2.6587,-6 6,-6 l 16,0 c 3.3413,0 6,2.658703 6,6 l 0,-1 c 0,-3.341297 -2.6587,-6 -6,-6 l -16,0 z"
         id="rect3900"
         inkscape:connector-curvature="0" /><path
         style="opacity:0.12999998;color:#bebebe;fill:#ffffff;fill-opacity:1;fill-rule:nonzero;stroke:none;stroke-width:0;marker:none;visibility:visible;display:inline;overflow:visible;enable-background:accumulate"
         d="m 300,224 c -4.4493,0 -8,3.5507 -8,8 l 0,1 c 0,-4.4493 3.5507,-8 8,-8 l 24,0 c 4.4493,0 8,3.5507 8,8 l 0,-1 c 0,-4.4493 -3.5507,-8 -8,-8 l -24,0 z"
         id="rect3902"
         inkscape:connector-curvature="0" /><path
         style="opacity:0.12999998;color:#bebebe;fill:#ffffff;fill-opacity:1;fill-rule:nonzero;stroke:none;stroke-width:0;marker:none;visibility:visible;display:inline;overflow:visible;enable-background:accumulate"
         d="m 310,33 c -9.4353,0 -17,7.564703 -17,17 l 0,1 c 0,-9.435297 7.5647,-17 17,-17 l 52,0 c 9.4353,0 17,7.564703 17,17 l 0,-1 c 0,-9.435297 -7.5647,-17 -17,-17 l -52,0 z"
         id="rect3904"
         inkscape:connector-curvature="0" /><path
         style="opacity:0.12999998;color:#bebebe;fill:#ffffff;fill-opacity:1;fill-rule:nonzero;stroke:none;stroke-width:0;marker:none;visibility:visible;display:inline;overflow:visible;enable-background:accumulate"
         d="m 302.5,143 c -6.3883,0 -11.5,5.1117 -11.5,11.5 l 0,1 c 0,-6.3883 5.1117,-11.5 11.5,-11.5 l 35,0 c 6.3883,0 11.5,5.1117 11.5,11.5 l 0,-1 c 0,-6.3883 -5.1117,-11.5 -11.5,-11.5 l -35,0 z"
         id="rect3906"
         inkscape:connector-curvature="0" /><path
         id="path4085"
         d="m 204,266 c 27.1633,0 49,-21.8367 49,-49 l 0,-1 c 0,27.1633 -21.8367,49 -49,49 L 84,265 C 56.8367,265 35,243.1633 35,216 l 0,1 c 0,27.1633 21.8367,49 49,49 l 120,0 z"
         style="opacity:0.5;color:#bebebe;fill:#000000;fill-opacity:1;fill-rule:nonzero;stroke:none;stroke-width:0;marker:none;visibility:visible;display:inline;overflow:visible;enable-background:accumulate"
         inkscape:connector-curvature="0" /><path
         id="path4087"
         d="m 429,156 c 1.1253,0 2,-0.8747 2,-2 l 0,-1 c 0,1.1253 -0.8747,2 -2,2 l -10,0 c -1.1253,0 -2,-0.8747 -2,-2 l 0,1 c 0,1.1253 0.8747,2 2,2 l 10,0 z"
         style="opacity:0.3;color:#bebebe;fill:#000000;fill-opacity:1;fill-rule:nonzero;stroke:none;stroke-width:0;marker:none;visibility:visible;display:inline;overflow:visible;enable-background:accumulate"
         inkscape:connector-curvature="0" /><path
         id="path4089"
         d="m 434,123 c 2.2333,0 4,-1.7667 4,-4 l 0,-1 c 0,2.2333 -1.7667,4 -4,4 l -12,0 c -2.2333,0 -4,-1.7667 -4,-4 l 0,1 c 0,2.2333 1.7667,4 4,4 l 12,0 z"
         style="opacity:0.3;color:#bebebe;fill:#000000;fill-opacity:1;fill-rule:nonzero;stroke:none;stroke-width:0;marker:none;visibility:visible;display:inline;overflow:visible;enable-background:accumulate"
         inkscape:connector-curvature="0" /><path
         id="path4091"
         d="m 440,83 c 3.3413,0 6,-2.6587 6,-6 l 0,-1 c 0,3.3413 -2.6587,6 -6,6 l -16,0 c -3.3413,0 -6,-2.6587 -6,-6 l 0,1 c 0,3.3413 2.6587,6 6,6 l 16,0 z"
         style="opacity:0.5;color:#bebebe;fill:#000000;fill-opacity:1;fill-rule:nonzero;stroke:none;stroke-width:0;marker:none;visibility:visible;display:inline;overflow:visible;enable-background:accumulate"
         inkscape:connector-curvature="0" /><path
         id="path4093"
         d="m 324,265 c 4.4493,0 8,-3.5507 8,-8 l 0,-1 c 0,4.4493 -3.5507,8 -8,8 l -24,0 c -4.4493,0 -8,-3.5507 -8,-8 l 0,1 c 0,4.4493 3.5507,8 8,8 l 24,0 z"
         style="opacity:0.5;color:#bebebe;fill:#000000;fill-opacity:1;fill-rule:nonzero;stroke:none;stroke-width:0;marker:none;visibility:visible;display:inline;overflow:visible;enable-background:accumulate"
         inkscape:connector-curvature="0" /><path
         id="path4095"
         d="m 362,120 c 9.4353,0 17,-7.5647 17,-17 l 0,-1 c 0,9.4353 -7.5647,17 -17,17 l -52,0 c -9.4353,0 -17,-7.5647 -17,-17 l 0,1 c 0,9.4353 7.5647,17 17,17 l 52,0 z"
         style="opacity:0.5;color:#bebebe;fill:#000000;fill-opacity:1;fill-rule:nonzero;stroke:none;stroke-width:0;marker:none;visibility:visible;display:inline;overflow:visible;enable-background:accumulate"
         inkscape:connector-curvature="0" /><path
         id="path4097"
         d="m 337.5,202 c 6.3883,0 11.5,-5.1117 11.5,-11.5 l 0,-1 c 0,6.3883 -5.1117,11.5 -11.5,11.5 l -35,0 c -6.3883,0 -11.5,-5.1117 -11.5,-11.5 l 0,1 c 0,6.3883 5.1117,11.5 11.5,11.5 l 35,0 z"
         style="opacity:0.5;color:#bebebe;fill:#000000;fill-opacity:1;fill-rule:nonzero;stroke:none;stroke-width:0;marker:none;visibility:visible;display:inline;overflow:visible;enable-background:accumulate"
         inkscape:connector-curvature="0" /><path
         inkscape:connector-curvature="0"
         id="path4280"
         d="M 84,265 C 56.836703,265 35,243.1633 35,216 l 0,-1 c 0,27.1633 21.836703,49 49,49 l 120,0 c 27.1633,0 49,-21.8367 49,-49 l 0,1 c 0,27.1633 -21.8367,49 -49,49 l -120,0 z"
         style="opacity:0.1;color:#bebebe;fill:#ffffff;fill-opacity:1;fill-rule:nonzero;stroke:none;stroke-width:0;marker:none;visibility:visible;display:inline;overflow:visible;enable-background:accumulate" /><path
         style="opacity:0.1;color:#bebebe;fill:#ffffff;fill-opacity:1;fill-rule:nonzero;stroke:none;stroke-width:0;marker:none;visibility:visible;display:inline;overflow:visible;enable-background:accumulate"
         d="m 300,264 c -4.4493,0 -8,-3.5507 -8,-8 l 0,-1 c 0,4.4493 3.5507,8 8,8 l 24,0 c 4.4493,0 8,-3.5507 8,-8 l 0,1 c 0,4.4493 -3.5507,8 -8,8 l -24,0 z"
         id="path4294"
         inkscape:connector-curvature="0" /><path
         style="opacity:0.1;color:#bebebe;fill:#ffffff;fill-opacity:1;fill-rule:nonzero;stroke:none;stroke-width:0;marker:none;visibility:visible;display:inline;overflow:visible;enable-background:accumulate"
         d="m 302.5,201 c -6.3883,0 -11.5,-5.1117 -11.5,-11.5 l 0,-1 c 0,6.3883 5.1117,11.5 11.5,11.5 l 35,0 c 6.3883,0 11.5,-5.1117 11.5,-11.5 l 0,1 c 0,6.3883 -5.1117,11.5 -11.5,11.5 l -35,0 z"
         id="path4296"
         inkscape:connector-curvature="0" /><path
         style="opacity:0.1;color:#bebebe;fill:#ffffff;fill-opacity:1;fill-rule:nonzero;stroke:none;stroke-width:0;marker:none;visibility:visible;display:inline;overflow:visible;enable-background:accumulate"
         d="m 310,119 c -9.4353,0 -17,-7.5647 -17,-17 l 0,-1 c 0,9.4353 7.5647,17 17,17 l 52,0 c 9.4353,0 17,-7.5647 17,-17 l 0,1 c 0,9.4353 -7.5647,17 -17,17 l -52,0 z"
         id="path4298"
         inkscape:connector-curvature="0" /><path
         style="opacity:0.1;color:#bebebe;fill:#ffffff;fill-opacity:1;fill-rule:nonzero;stroke:none;stroke-width:0;marker:none;visibility:visible;display:inline;overflow:visible;enable-background:accumulate"
         d="m 424,82 c -3.3413,0 -6,-2.658703 -6,-6 l 0,-1 c 0,3.341297 2.6587,6 6,6 l 16,0 c 3.3413,0 6,-2.658703 6,-6 l 0,1 c 0,3.341297 -2.6587,6 -6,6 l -16,0 z"
         id="path4300"
         inkscape:connector-curvature="0" /><path
         style="opacity:0.1;color:#bebebe;fill:#ffffff;fill-opacity:1;fill-rule:nonzero;stroke:none;stroke-width:0;marker:none;visibility:visible;display:inline;overflow:visible;enable-background:accumulate"
         d="m 422,122 c -2.2333,0 -4,-1.7667 -4,-4 l 0,-1 c 0,2.2333 1.7667,4 4,4 l 12,0 c 2.2333,0 4,-1.7667 4,-4 l 0,1 c 0,2.2333 -1.7667,4 -4,4 l -12,0 z"
         id="path4302"
         inkscape:connector-curvature="0" /><path
         style="opacity:0.1;color:#bebebe;fill:#ffffff;fill-opacity:1;fill-rule:nonzero;stroke:none;stroke-width:0;marker:none;visibility:visible;display:inline;overflow:visible;enable-background:accumulate"
         d="m 419,154.5 c -1.1253,0 -2,-0.8747 -2,-2 l 0,-1 c 0,1.1253 0.8747,2 2,2 l 10,0 c 1.1253,0 2,-0.8747 2,-2 l 0,1 c 0,1.1253 -0.8747,2 -2,2 l -10,0 z"
         id="path4304"
         inkscape:connector-curvature="0" /></g><g
       inkscape:groupmode="layer"
       id="layer3"
       inkscape:label="Border"
       style="display:inline"
       sodipodi:insensitive="true"><path
         style="opacity:0.41000001;color:#bebebe;fill:#000000;fill-opacity:1;fill-rule:nonzero;stroke:none;stroke-width:0;marker:none;visibility:visible;display:inline;overflow:visible;enable-background:accumulate"
         d="m 422,101 c -2.77,0 -5,2.23 -5,5 l 0,12 c 0,2.77 2.23,5 5,5 l 12,0 c 2.77,0 5,-2.23 5,-5 l 0,-12 c 0,-2.77 -2.23,-5 -5,-5 l -12,0 z m 0,1 12,0 c 2.2333,0 4,1.7667 4,4 l 0,12 c 0,2.2333 -1.7667,4 -4,4 l -12,0 c -2.2333,0 -4,-1.7667 -4,-4 l 0,-12 c 0,-2.2333 1.7667,-4 4,-4 z"
         id="rect4099"
         inkscape:connector-curvature="0" /><path
         style="opacity:0.41000001;color:#bebebe;fill:#000000;fill-opacity:1;fill-rule:nonzero;stroke:none;stroke-width:0;marker:none;visibility:visible;display:inline;overflow:visible;enable-background:accumulate"
         d="m 424,53 c -3.878,0 -7,3.122 -7,7 l 0,16 c 0,3.878 3.122,7 7,7 l 16,0 c 3.878,0 7,-3.122 7,-7 l 0,-16 c 0,-3.878 -3.122,-7 -7,-7 l -16,0 z m 0,1 16,0 c 3.3413,0 6,2.658703 6,6 l 0,16 c 0,3.341297 -2.6587,6 -6,6 l -16,0 c -3.3413,0 -6,-2.658703 -6,-6 l 0,-16 c 0,-3.341297 2.6587,-6 6,-6 z"
         id="rect4151"
         inkscape:connector-curvature="0" /><path
         style="opacity:0.41000001;color:#bebebe;fill:#000000;fill-opacity:1;fill-rule:nonzero;stroke:none;stroke-width:0;marker:none;visibility:visible;display:inline;overflow:visible;enable-background:accumulate"
         d="m 419,140 c -1.662,0 -3,1.338 -3,3 l 0,10 c 0,1.662 1.338,3 3,3 l 10,0 c 1.662,0 3,-1.338 3,-3 l 0,-10 c 0,-1.662 -1.338,-3 -3,-3 l -10,0 z m 0,1 10,0 c 1.1253,0 2,0.8747 2,2 l 0,10 c 0,1.1253 -0.8747,2 -2,2 l -10,0 c -1.1253,0 -2,-0.8747 -2,-2 l 0,-10 c 0,-1.1253 0.8747,-2 2,-2 z"
         id="rect4095"
         inkscape:connector-curvature="0" /><path
         style="opacity:0.41000001;color:#bebebe;fill:#000000;fill-opacity:1;fill-rule:nonzero;stroke:none;stroke-width:0;marker:none;visibility:visible;display:inline;overflow:visible;enable-background:accumulate"
         d="m 300,223 c -4.986,0 -9,4.014 -9,9 l 0,24 c 0,4.986 4.014,9 9,9 l 24,0 c 4.986,0 9,-4.014 9,-9 l 0,-24 c 0,-4.986 -4.014,-9 -9,-9 l -24,0 z m 0,1 24,0 c 4.4493,0 8,3.5507 8,8 l 0,24 c 0,4.4493 -3.5507,8 -8,8 l -24,0 c -4.4493,0 -8,-3.5507 -8,-8 l 0,-24 c 0,-4.4493 3.5507,-8 8,-8 z"
         id="rect4783"
         inkscape:connector-curvature="0" /><path
         style="opacity:0.41000001;color:#bebebe;fill:#000000;fill-opacity:1;fill-rule:nonzero;stroke:none;stroke-width:0;marker:none;visibility:visible;display:inline;overflow:visible;enable-background:accumulate"
         d="m 302.5,142 c -6.925,0 -12.5,5.575 -12.5,12.5 l 0,35 c 0,6.925 5.575,12.5 12.5,12.5 l 35,0 c 6.925,0 12.5,-5.575 12.5,-12.5 l 0,-35 c 0,-6.925 -5.575,-12.5 -12.5,-12.5 l -35,0 z m 0,1 35,0 c 6.3883,0 11.5,5.1117 11.5,11.5 l 0,35 c 0,6.3883 -5.1117,11.5 -11.5,11.5 l -35,0 c -6.3883,0 -11.5,-5.1117 -11.5,-11.5 l 0,-35 c 0,-6.3883 5.1117,-11.5 11.5,-11.5 z"
         id="rect4515"
         inkscape:connector-curvature="0" /><path
         style="opacity:0.41000001;color:#bebebe;fill:#000000;fill-opacity:1;fill-rule:nonzero;stroke:none;stroke-width:0;marker:none;visibility:visible;display:inline;overflow:visible;enable-background:accumulate"
         d="m 310,32 c -9.972,0 -18,8.028 -18,18 l 0,52 c 0,9.972 8.028,18 18,18 l 52,0 c 9.972,0 18,-8.028 18,-18 l 0,-52 c 0,-9.972 -8.028,-18 -18,-18 l -52,0 z m 0,1 52,0 c 9.4353,0 17,7.564703 17,17 l 0,52 c 0,9.4353 -7.5647,17 -17,17 l -52,0 c -9.4353,0 -17,-7.5647 -17,-17 l 0,-52 c 0,-9.435297 7.5647,-17 17,-17 z"
         id="rect4511"
         inkscape:connector-curvature="0" /><path
         style="opacity:0.41000001;color:#bebebe;fill:#000000;fill-opacity:1;fill-rule:nonzero;stroke:none;stroke-width:0;marker:none;visibility:visible;display:inline;overflow:visible;enable-background:accumulate"
         d="M 84,46 C 56.3,46 34,68.3 34,96 l 0,120 c 0,27.7 22.3,50 50,50 l 120,0 c 27.7,0 50,-22.3 50,-50 L 254,96 C 254,68.3 231.7,46 204,46 L 84,46 z m 0,1 120,0 c 27.1633,0 49,21.836703 49,49 l 0,120 c 0,27.1633 -21.8367,49 -49,49 L 84,265 C 56.836703,265 35,243.1633 35,216 L 35,96 C 35,68.836703 56.836703,47 84,47 z"
         id="rect4040"
         inkscape:connector-curvature="0" /></g></g></svg>
